<?xml version="1.0" standalone="no"?>
<!DOCTYPE svg PUBLIC "-//W3C//DTD SVG 1.1//EN" "http://www.w3.org/Graphics/SVG/1.1/DTD/svg11.dtd" >
<svg xmlns="http://www.w3.org/2000/svg">
<metadata>
This is a custom SVG webfont generated by Font Squirrel.
</metadata>
<defs>
<font id="webfontJcHcaHbE" horiz-adv-x="527" >
<font-face units-per-em="1000" ascent="777" descent="-223" />
<missing-glyph horiz-adv-x="213" />
<glyph unicode=" "  horiz-adv-x="213" />
<glyph unicode="&#x09;" horiz-adv-x="213" />
<glyph unicode="&#xa0;" horiz-adv-x="213" />
<glyph unicode="!" horiz-adv-x="276" d="M68 63q0 7 29 32q4 3 12.5 14t16.5 17.5t16 6.5q4 0 7 -2t9 -8.5t7 -7.5q11 -12 23 -21l16 -13q6 -4 10 -8.5t4 -10.5q0 -8 -6.5 -15t-17.5 -14.5t-14 -10.5q-4 -4 -11 -14t-13.5 -15.5t-12.5 -5.5t-20 11.5t-22 22.5q-3 4 -12 11.5t-15 15t-6 15.5zM98 651q0 38 49 38 q24 0 35 -7t11 -25q0 -3 -0.5 -7t-2 -13.5t-2.5 -18.5q-4 -34 -12 -161.5t-23 -246.5q-2 -11 -14 -11t-12 9q-9 103 -13 163.5t-4 75.5l-2 29q0 15 -1 31q-9 126 -9 144z" />
<glyph unicode="&#x22;" horiz-adv-x="459" d="M251 649q0 6 27 33q2 2 10.5 12.5t15 14.5t14.5 4q7 0 21.5 -10t30.5 -37.5t16 -64.5q0 -42 -14 -78t-33.5 -55.5t-36 -30t-25.5 -10.5q-5 0 -9 4.5t-4 7.5q0 6 9 13l19 16q10 9 19 28t9 45q0 27 -11 45.5t-23.5 25.5t-23.5 16t-11 21zM56 649q0 6 27 33q2 2 10.5 12.5 t15 14.5t14.5 4q3 0 10 -3.5t17 -12.5t19 -21t15 -32t6 -43q0 -42 -14 -78t-33 -55.5t-35.5 -30t-25.5 -10.5q-5 0 -9 4.5t-4 7.5q0 6 8.5 13.5t19.5 16t19.5 27.5t8.5 45q0 27 -11 45.5t-23.5 25.5t-23.5 16t-11 21z" />
<glyph unicode="#" horiz-adv-x="533" d="M59 139v3q0 12 2 16.5t12 4.5h82q3 0 3 2q2 18 7 52l9 57q3 24 3 26q0 5 -7 5h-95q-9 0 -12.5 3.5t-3.5 16.5q0 22 16 22h102q9 0 9 7q14 100 22 167q3 20 4 22q5 7 22 7q20 0 20 -12q0 -3 -13 -93t-13 -93q0 -5 6 -5h98q8 0 9 7q26 188 28 190q4 6 23 6q16 0 16 -10 q0 -4 -12.5 -94t-12.5 -94q0 -5 5 -5h69q18 0 18 -25q0 -17 -15 -17h-81q-3 0 -5 -6q-18 -129 -18 -130q0 -6 7 -6h95q6 0 9 -1t5.5 -5.5t2.5 -13.5q0 -22 -17 -22h-98q-9 0 -11 -10l-12 -86q-9 -68 -13 -79.5t-21 -11.5q-19 0 -19 13q0 3 11.5 84.5t11.5 83.5q0 6 -7 6h-66 q-19 0 -28 -1t-10.5 -2.5t-2.5 -4.5q-22 -166 -24 -171q-5 -8 -23 -8t-18 13q0 3 11.5 84t11.5 83q0 7 -8 7h-70q-14 0 -14 18zM201 168q0 -5 8 -5h95q9 0 10 7q3 26 6 49l6 35l3.5 23.5t2 15.5t0.5 7q0 5 -6 5h-98q-7 0 -9 -7q-18 -129 -18 -130z" />
<glyph unicode="$" horiz-adv-x="533" d="M64 96q0 6 1.5 19.5t7 32t14.5 18.5q10 0 15.5 -6.5t15.5 -29.5l16 -32q16 -29 49 -50t61 -21q10 0 10 15q0 64 1.5 144.5t1.5 137.5q0 14 -36 25q-59 19 -96.5 56t-37.5 108t49 121t116 59q7 1 10 5t3 18q0 6 -0.5 14t-0.5 13q0 23 22 23q15 0 18.5 -4t3.5 -14v-22 q0 -10 -0.5 -16t-0.5 -7q0 -9 5 -9q32 -4 59 -14t42 -21t25.5 -22.5t14.5 -19t4 -10.5q0 -15 -10.5 -39.5t-19.5 -24.5t-13 11q-17 37 -46 67.5t-56 30.5q-9 0 -9 -19q0 -84 -2.5 -130t-2.5 -66q0 -16 2 -21t11 -7q90 -25 133.5 -73t43.5 -128q0 -50 -16.5 -90t-44.5 -64 t-55.5 -38.5t-58.5 -22.5q-3 -1 -7 -2q-12 -3 -13 -8q-1 -3 -1 -9v-19v-63q0 -27 -4.5 -34.5t-17.5 -7.5q-21 0 -21 21q0 18 1.5 52.5t1.5 45.5q0 19 -6 19q-47 0 -98 22.5t-73 49.5q-11 13 -11 36zM146 539q0 -84 105 -111h2q9 0 9 17q0 44 0.5 99t0.5 97q0 12 -11 12 q-27 0 -66.5 -30.5t-39.5 -83.5zM293 40q0 -13 7 -13q5 0 16 2t31.5 12t37.5 25.5t30 46.5t13 72q0 31 -12.5 56t-30 39t-36.5 23.5t-30.5 13t-14.5 3.5q-7 0 -7 -14q0 -53 -2 -133t-2 -133z" />
<glyph unicode="%" horiz-adv-x="771" d="M59 344q0 81 57.5 157t141.5 76q32 0 56 -17l47 -35q22 -17 47 -17q19 0 42 8.5t41.5 18.5t42 28.5t34.5 28.5l32 28l19 18q8 8 18 8q9 0 9 -9q0 -8 -8 -21l-435 -663q-26 -40 -31 -42q-6 -2 -10 -2q-12 0 -22.5 8t-10.5 16q0 12 29 55q7 9 11 15l165 237l106 150l75 102 q21 29 21 32q0 4 -4 4q-1 0 -19.5 -11t-47 -22t-55.5 -11q-11 0 -22 2.5t-18.5 5t-8.5 2.5t-1 -1l1 -7q1 -6 1 -12q0 -57 -10 -93t-41 -81q-54 -80 -142 -80q-35 0 -72.5 32.5t-37.5 91.5zM131 364q0 -55 16 -86t44 -31q48 0 77 66t29 143q0 40 -13 66t-34 26 q-56 0 -87.5 -56.5t-31.5 -127.5zM386 64q0 85 55 157t143 72q54 0 81 -34t27 -89q0 -87 -55 -167.5t-130 -80.5q-59 0 -90 40.5t-31 101.5zM457 73q0 -55 16 -87t44 -32q45 0 77 68t32 143q0 40 -14.5 68.5t-35.5 28.5q-56 0 -87.5 -58.5t-31.5 -130.5z" />
<glyph unicode="&#x26;" horiz-adv-x="947" d="M59 242q0 34 11.5 70.5t28.5 58.5q24 29 54.5 45t49 20t18.5 6q0 3 -12 17.5t-24 44t-12 67.5q0 66 58 99.5t130 33.5q35 0 66 -11.5t35 -11.5t10.5 1.5t11.5 1.5q16 0 16 -23q0 -1 1 -13.5t2 -28.5t1 -26q0 -29 -1.5 -35t-9.5 -6q-6 0 -21 18l-32 40q-17 21 -45.5 39 t-58.5 18q-47 0 -70 -24.5t-23 -52.5q0 -25 27.5 -64.5t55.5 -69.5l81 -82q75 -75 145 -135t79 -60q6 0 12 8.5t10 28.5t4 47q0 37 -10.5 59.5t-18.5 28t-28 15.5q-7 3 -17.5 4t-15.5 3.5t-5 10.5q0 7 4.5 9t20.5 2q21 0 46.5 -1t102.5 -1q19 0 19 -13q0 -7 -5.5 -10.5 t-13 -5.5t-14 -12t-7.5 -28q-1 -12 -2.5 -27t-3.5 -30.5t-3 -21.5q-3 -19 -12 -41t-16.5 -37t-7.5 -18q0 -9 59.5 -46.5t120.5 -67.5q20 -10 43 -10q7 0 19 1.5t17 1.5q13 0 13 -9q0 -16 -28.5 -27t-68.5 -11q-39 0 -75 10.5t-61 25t-44 29.5t-30.5 25.5t-13.5 10.5 q-4 0 -15.5 -10.5t-30.5 -26t-46 -31t-72 -26t-99 -10.5q-32 0 -64 4.5t-76.5 20.5t-78 43t-57 78t-23.5 118zM125 276q0 -35 17 -73t49.5 -74.5t90.5 -60t130 -23.5q43 0 84.5 14.5t62.5 29t21 20.5q0 4 -26 23.5t-86 70.5t-122 113l-28 28l-22 22l-18 18l-13 13 q-5 5 -9.5 10t-7.5 7t-5.5 4t-4.5 2.5t-4 0.5q-33 0 -71 -42t-38 -103z" />
<glyph unicode="'" horiz-adv-x="264" d="M56 649q0 6 27 33q2 2 10.5 12.5t15 14.5t14.5 4q3 0 10 -3.5t17 -12.5t19 -21t15 -32t6 -43q0 -42 -14 -78t-33 -55.5t-35.5 -30t-25.5 -10.5q-5 0 -9 4.5t-4 7.5q0 6 8.5 13.5t19.5 16t19.5 27.5t8.5 45q0 27 -11 45.5t-23.5 25.5t-23.5 16t-11 21z" />
<glyph unicode="(" horiz-adv-x="326" d="M73 278q0 89 21 172t51 139t62.5 99t56 63.5t31.5 20.5q21 0 21 -21q0 -6 -20.5 -26t-49.5 -55t-58 -84t-49.5 -130.5t-20.5 -178.5q0 -89 20 -167.5t48.5 -129t57.5 -88t49 -59.5t20 -28q0 -9 -7 -14t-13 -5q-11 0 -35.5 24t-56 70t-60.5 104t-48.5 136.5t-19.5 157.5z " />
<glyph unicode=")" horiz-adv-x="326" d="M10 -192q0 6 20.5 26t49.5 54.5t58 83.5t49.5 130.5t20.5 178.5q0 89 -20 167.5t-48.5 129t-57.5 88t-49 59.5t-20 28q0 9 7 14t13 5q11 0 35.5 -24t56 -70t60.5 -104t48.5 -136.5t19.5 -157.5q0 -89 -21 -172t-51 -139t-62.5 -99t-56 -63.5t-31.5 -20.5q-21 0 -21 22z " />
<glyph unicode="*" horiz-adv-x="431" d="M59 383q0 13 54 37t54 27q0 4 -54 29t-54 37q0 9 9.5 22t22.5 13q9 0 48 -26.5t43 -26.5q5 0 5 19q0 10 -1.5 37.5t-1.5 41.5q0 13 5 17t21 4q24 0 30.5 -6t6.5 -30q0 -9 -2 -32t-2 -33q0 -18 5 -18t45.5 27t46.5 27q12 0 22.5 -12.5t10.5 -22.5q0 -12 -54.5 -37 t-54.5 -29q0 -5 54.5 -29t54.5 -36q0 -10 -10 -22.5t-24 -12.5q-9 0 -48 26.5t-42 26.5q-5 0 -5 -19q0 -10 1.5 -30.5t1.5 -27.5q0 -29 -5.5 -35.5t-30.5 -6.5q-27 0 -27 24q0 8 1.5 34t1.5 38q0 23 -5 23q-4 0 -44.5 -26.5t-46.5 -26.5q-13 0 -22.5 13t-9.5 22z" />
<glyph unicode="+" d="M31 212q0 8 0.5 11.5t4.5 6t13 2.5h170q22 0 22 19v176q0 7 2.5 10.5t6 4t12.5 0.5t13 -0.5t7.5 -5.5t3.5 -14v-163q0 -27 17 -27h177q8 0 11.5 -2.5t4 -6t0.5 -12.5q0 -14 -3 -18.5t-18 -4.5h-172q-12 0 -14.5 -3.5t-2.5 -14.5v-175q0 -11 -5 -14t-15 -3 q-16 0 -20.5 2.5t-4.5 15.5v174q0 12 -4.5 15t-19.5 3h-169q-9 0 -12.5 3t-4 6.5t-0.5 14.5z" />
<glyph unicode="," horiz-adv-x="250" d="M54 54q0 5 3 10t7 8l10 10l11 11q3 3 8 10t9 11t10.5 7.5t14.5 3.5q5 0 20 -12t32 -43t17 -70q0 -63 -44.5 -114.5t-71.5 -51.5q-15 0 -15 13q0 7 9.5 16t21.5 18.5t21.5 28t9.5 42.5q0 20 -9 35.5t-16.5 22t-30.5 23.5q-13 9 -15 11.5t-2 9.5z" />
<glyph unicode="-" horiz-adv-x="340" d="M44 145v11q0 29 9.5 37t47.5 19q53 16 94 30.5t55.5 20t23.5 5.5q22 0 22 -34v-6q0 -9 -0.5 -14t-4 -10t-6 -7t-12 -6t-17.5 -6l-24 -7q-18 -5 -33 -10q-28 -9 -55 -19l-40 -15q-13 -4 -24 -7t-20 -3q-16 0 -16 21z" />
<glyph unicode="." horiz-adv-x="252" d="M54 55q0 12 31 39q4 4 11.5 14t15 15.5t15.5 5.5t41 -39q3 -3 11.5 -10.5t13.5 -14t5 -10.5q0 -5 -5 -10.5t-15 -13.5l-15 -12q-4 -4 -11.5 -14t-14 -15.5t-12.5 -5.5q-9 0 -23 17.5t-17 19.5q-31 22 -31 34z" />
<glyph unicode="/" horiz-adv-x="416" d="M20 -170q0 2 19 57q305 823 307 830q4 11 9.5 14.5t19.5 3.5q21 0 21 -12q0 -8 -14 -44l-304 -831q-8 -22 -13.5 -26.5t-18.5 -4.5q-26 0 -26 13z" />
<glyph unicode="0" horiz-adv-x="529" d="M39 212q0 101 67 158t158 57q93 0 159.5 -56.5t66.5 -164.5q0 -90 -58 -155.5t-161 -65.5q-113 0 -172.5 67t-59.5 160zM95 207q0 -81 53 -124.5t123 -43.5q68 0 117 48t49 127q0 74 -53.5 118t-123.5 44q-69 0 -117 -43.5t-48 -125.5z" />
<glyph unicode="1" horiz-adv-x="340" d="M20 12q0 9 14 13.5t31 5.5t32.5 9.5t18.5 25.5q9 54 9 103v80q0 11 0.5 28t0.5 23q0 62 -13.5 76t-66.5 17q-18 0 -18 15q0 11 21 11q2 0 29 -3t87 -3q40 0 68.5 2.5t36.5 2.5q11 0 17 -5t6 -10q0 -6 -3.5 -9.5t-7.5 -4.5t-11.5 -1.5t-10.5 -1.5q-5 -1 -17 -2.5 t-15.5 -2.5t-11 -6.5t-9.5 -15t-4.5 -26.5t-2.5 -42q0 -6 -0.5 -22t-0.5 -29q0 -10 -1 -50.5t-1 -63.5v-23q0 -26 4 -42q6 -18 35.5 -25.5t56.5 -11.5t27 -15q0 -9 -6 -11t-22 -2q-14 0 -59.5 2.5t-68.5 2.5t-63.5 -2.5t-52.5 -2.5q-28 0 -28 16z" />
<glyph unicode="2" horiz-adv-x="468" d="M29 8q0 6 5.5 10t22.5 11t32 16q112 67 164 133t52 119q0 43 -33.5 69t-66.5 26q-59 0 -59 -46q0 -11 8 -32t8 -27q0 -10 -13 -10q-25 0 -47.5 11.5t-22.5 24.5q0 12 8 29t25 36.5t53 32.5t84 13q59 0 96.5 -28t37.5 -80q0 -43 -39.5 -94t-89.5 -92q-61 -50 -61 -58 t46 -8q100 0 142 13q16 5 33.5 27.5t21.5 22.5q12 0 12 -11q0 -3 -25 -50.5t-28 -51.5q-15 -17 -21 -18q-4 0 -16 0.5t-53 1.5t-112 1q-65 0 -99.5 -0.5t-37.5 -0.5q-27 0 -27 10z" />
<glyph unicode="3" horiz-adv-x="404" d="M39 -136q0 32 18 32q4 0 15 -13t34 -25.5t56 -12.5q59 0 99 48.5t40 102.5q0 48 -41 80t-107 32q-9 0 -20 -1t-18 -2.5t-8 -1.5q-13 0 -13 11q0 5 1 7t6.5 5t13 6.5t23.5 13.5l35 23q29 21 53 54t24 73q0 31 -27.5 55.5t-64.5 24.5q-32 0 -52.5 -16t-26.5 -16 q-11 0 -11 10q0 17 40 43.5t84 26.5q51 0 90.5 -21.5t39.5 -71.5q0 -29 -17.5 -58.5t-38.5 -48.5l-38 -34q-17 -15 -17 -19q0 -1 10.5 -2.5t29.5 -6t35 -12.5q72 -36 72 -108q0 -83 -71 -164.5t-162 -81.5q-85 0 -85 36v20z" />
<glyph unicode="4" horiz-adv-x="504" d="M10 14q0 10 8.5 21t55.5 62l246 272q2 3 8 11l12 12q4 6 10.5 12t11.5 9.5t9 3.5q11 0 11 -24q0 -1 -3 -69l-7 -146q-3 -76 -3 -97q0 -14 18 -14q24 0 39 3.5t19 8t8 8t9 3.5q13 0 13 -13q0 -6 -2.5 -14t-7.5 -19.5t-7 -16.5q-1 -2 -3 -7.5t-3.5 -9t-4 -7.5t-5.5 -6 t-7 -2q-8 0 -28 0.5t-27 0.5q-9 0 -11.5 -4t-2.5 -15q0 -15 1.5 -52.5t1.5 -53.5q0 -2 0.5 -11t0.5 -15q0 -19 -16 -24q-26 -7 -44 -7q-19 0 -19 14q0 4 1.5 9.5t2.5 15t2.5 43.5t1.5 88q0 16 -9 16q-12 0 -63 -1t-86 -1q-22 0 -55.5 0.5t-47.5 0.5q-12 0 -16.5 0.5t-8 4 t-3.5 10.5zM103 76q0 -12 38 -12h37q11 0 38.5 -0.5t40.5 -0.5q27 0 36 1.5t9 8.5q3 142 3 199q0 24 -5 24t-33 -29.5t-38 -41.5q-19 -24 -53 -61l-53 -60q-20 -23 -20 -28z" />
<glyph unicode="5" horiz-adv-x="342" d="M-47 -127q0 28 12 28q8 0 21.5 -15.5t38 -31.5t59.5 -16q54 0 94.5 64t40.5 141q0 47 -12.5 75.5t-51.5 56.5q-22 15 -45.5 23t-37.5 9.5t-23.5 6t-9.5 15.5q0 10 4 18.5t18.5 45t32.5 96.5q7 24 31 24q2 0 29.5 -1t44.5 -1h5h25q10 0 18 0.5t12.5 1t8 1t5.5 2t3 2t3 3.5 t3 4q4 4 8.5 10t7 9t5.5 5.5t6 2.5q13 0 13 -11q0 -5 -3 -12q-9 -18 -16 -34.5t-10 -24.5l-5 -14q-3 -7 -5.5 -8.5t-5.5 -2.5t-10 -1q-154 -1 -160 -7q-1 0 -2 -3q-15 -35 -15 -45t23.5 -16.5t62.5 -22.5t65 -44q13 -14 28 -47.5t15 -74.5q0 -85 -46 -162 q-75 -127 -214 -127q-27 0 -57 17q-6 4 -10 27.5t-4 33.5z" />
<glyph unicode="6" horiz-adv-x="497" d="M44 255q0 114 64.5 217t155.5 166q37 26 80.5 41t66.5 15q15 0 15 -13t-10 -14q-44 -6 -75 -22t-73 -52q-44 -37 -76.5 -92t-43.5 -87t-11 -39q0 -4 3 -4q1 0 15.5 13.5t43 27t65.5 13.5q87 0 138 -59t51 -158q0 -95 -53.5 -161.5t-144.5 -66.5q-81 0 -152 73 q-59 62 -59 202zM125 261q0 -68 14.5 -119t37.5 -78t46.5 -39.5t46.5 -12.5q44 0 81 41t37 116q0 27 -9.5 61t-27.5 69t-52 59t-77 24q-34 0 -77 -31q-7 -6 -9.5 -9t-6.5 -23.5t-4 -57.5z" />
<glyph unicode="7" horiz-adv-x="501" d="M23 -175q0 15 186.5 257t186.5 253t-61 11h-78q-36 0 -58.5 -1t-53 -5.5t-48 -16.5t-21.5 -30q-2 -9 -13 -9q-10 0 -10 8q0 14 8.5 52.5t8.5 53.5q1 14 44 14q29 0 92.5 -2t102.5 -2q57 0 93 2.5t45.5 5.5t15 5.5t8.5 2.5q11 0 11 -11q0 -9 -33 -59l-267 -394 q-17 -25 -30 -47.5t-20 -37t-12 -26.5t-7 -18.5t-4 -11t-4.5 -6t-7.5 -1.5q-3 0 -20.5 1t-31.5 1q-22 0 -22 11z" />
<glyph unicode="8" horiz-adv-x="500" d="M39 179q0 40 13.5 71t33 48t39 28t33 16.5t13.5 7.5t-17.5 14t-38.5 28t-38.5 48t-17.5 70q0 77 51.5 127t129.5 50q87 0 134 -45.5t47 -117.5q0 -33 -9.5 -60t-23.5 -42.5t-28 -26t-23.5 -16.5t-9.5 -8q0 -4 21 -17t46 -30.5t46 -54t21 -81.5q0 -82 -52 -146t-153 -64 q-79 0 -122 25q-45 26 -70 72.5t-25 103.5zM83 180q0 -75 47.5 -123t119.5 -48q74 0 111 44.5t37 97.5q0 64 -69 122.5t-102 58.5q-8 0 -22 -2.5t-36 -12.5t-40.5 -25.5t-32 -44.5t-13.5 -67zM117 534q0 -52 67 -97t100 -45q25 0 62.5 37.5t37.5 97.5q0 40 -36.5 84.5 t-100.5 44.5q-49 0 -89.5 -33t-40.5 -89z" />
<glyph unicode="9" horiz-adv-x="486" d="M39 189q0 87 56 160t149 73q95 0 149 -71t54 -177q0 -94 -45 -185t-134 -152q-60 -42 -154 -42q-19 0 -19 17q0 14 26 14q60 0 131 60q38 32 64 76t26 63q0 2 -2 2q-1 0 -12.5 -9.5t-37.5 -19t-63 -9.5q-91 0 -139.5 58t-48.5 142zM109 240q0 -75 45 -140.5t109 -65.5 q18 0 34 4.5t35 17t30.5 41t11.5 70.5q0 98 -47.5 158.5t-106.5 60.5q-44 0 -77.5 -38.5t-33.5 -107.5z" />
<glyph unicode=":" horiz-adv-x="260" d="M59 55q0 8 35 39q3 3 11.5 13t15 15t15.5 5q2 0 5 -2t6.5 -6t7 -7.5t8.5 -10.5t9 -11q3 -3 11.5 -10.5t13.5 -14t5 -10.5q0 -5 -5 -10.5t-15 -13.5l-15 -12q-4 -4 -11 -14t-13.5 -15.5t-12.5 -5.5q-7 0 -14 7t-14.5 16.5t-12.5 13.5q-30 21 -30 34zM66 336q0 11 30 37 q4 4 10.5 13t13 14.5t14.5 5.5t36 -37q2 -3 9.5 -9.5t12 -12.5t4.5 -12q0 -4 -3 -8.5t-7 -7.5l-10 -9q-7 -6 -10 -9q-4 -4 -10.5 -13t-12.5 -14.5t-13 -5.5t-13.5 6.5t-12 16t-8.5 12.5q-4 4 -10.5 9.5t-10 9t-6.5 7.5t-3 7z" />
<glyph unicode=";" horiz-adv-x="262" d="M59 342q0 10 31 37q4 4 10 13t12.5 15t15.5 6q8 0 37 -38q3 -3 10.5 -9.5t12.5 -13t5 -12.5q0 -4 -3 -8.5t-6 -7.5l-11 -9q-7 -6 -10 -9q-4 -3 -11 -12.5t-13.5 -15t-13.5 -5.5t-13.5 6.5t-12.5 16.5t-9 13q-4 4 -10 9l-11 10q-4 3 -7 7t-3 7zM61 54q0 6 4 11.5t14.5 15 t13.5 12.5t10 13t14 14.5t17 4.5q2 0 9 -4.5t17.5 -14.5t20 -24t16.5 -36t7 -46q0 -63 -46 -115.5t-73 -52.5q-3 0 -7.5 4.5t-4.5 10.5q0 7 15 19.5t30.5 34t15.5 51.5q0 26 -13 42.5t-42 38.5q-17 18 -18 21z" />
<glyph unicode="&#x3c;" d="M41 211q0 6 0.5 8.5t4 5.5t10.5 6l361 132q36 13 42.5 15.5t8.5 2.5q19 0 19 -25q0 -12 -16 -16l-305 -111q-42 -15 -42 -21q0 -3 42 -18l310 -112q11 -4 11 -13q0 -8 -6 -16t-18 -8q-3 0 -408 147q-10 4 -12 8t-2 15z" />
<glyph unicode="=" d="M31 114q0 8 0.5 11.5t4.5 6.5t13 3h431q8 0 11.5 -2.5t4 -6t0.5 -12.5q0 -15 -3 -19.5t-18 -4.5h-427q-9 0 -12.5 3t-4 6.5t-0.5 14.5zM31 310q0 8 0.5 11.5t4.5 6t13 2.5h431q8 0 11.5 -2.5t4 -6t0.5 -12.5q0 -14 -3 -18.5t-18 -4.5h-427q-9 0 -12.5 3t-4 6.5t-0.5 14.5 z" />
<glyph unicode="&#x3e;" d="M41 65q0 10 10 13l311 112q42 15 42 18q0 6 -42 21l-306 111q-15 4 -15 16q0 25 18 25q3 0 51 -18l361 -132q16 -6 16 -20q0 -11 -2.5 -15t-12.5 -8q-405 -147 -408 -147q-12 0 -17.5 8t-5.5 16z" />
<glyph unicode="?" horiz-adv-x="350" d="M75 612q0 17 32 39t72 22q54 0 94 -30t40 -84q0 -33 -22 -75t-48 -76t-48 -78t-22 -79q0 -11 2.5 -26.5t2.5 -19.5q0 -10 -8 -10q-15 0 -23.5 28t-8.5 51q0 36 46 140t46 134q0 39 -32 59.5t-59 20.5q-18 0 -36 -12.5t-19 -12.5q-9 0 -9 9zM97 59q0 10 36 41q4 3 12 12.5 t14.5 14.5t12.5 5q4 0 12 -7.5t16 -17.5l7 -10l10 -8q10 -8 17 -15.5t7 -11.5q0 -8 -5.5 -14t-15.5 -12.5t-13 -9.5q-4 -4 -11.5 -14t-13.5 -15.5t-12 -5.5t-18.5 11t-21.5 22q-3 3 -18 15t-15 20z" />
<glyph unicode="@" horiz-adv-x="821" d="M44 286q0 96 32.5 172t80 119.5t107.5 72t108.5 38t90.5 9.5q139 0 226.5 -88.5t87.5 -216.5q0 -109 -68.5 -186t-159.5 -77q-32 0 -51 12.5t-23 27.5t-6 27.5t-4 12.5t-15.5 -15.5t-31.5 -33.5t-47.5 -33.5t-60.5 -15.5q-47 0 -70 26.5t-23 70.5q0 57 31.5 122 t86.5 111.5t113 46.5q19 0 44.5 -4.5t27.5 -4.5q7 0 19 20t23 20q8 0 8 -19q0 -4 -12 -52.5t-24.5 -108.5t-12.5 -93v-13q0 -59 41 -59q76 0 125 57.5t49 165.5q0 123 -78 192.5t-194 69.5q-151 0 -255.5 -100.5t-104.5 -261.5q0 -142 88.5 -233t230.5 -91q63 0 114 16.5 t77 32.5t27 16q11 0 11 -12q0 -6 -11 -16.5t-33 -23t-50.5 -24t-69 -19t-83.5 -7.5q-160 0 -260.5 93t-100.5 257zM284 227q0 -30 17.5 -45t44.5 -15q28 0 55 17t36 31q13 19 25 66q40 151 40 155q0 6 -22 13t-40 7q-49 0 -102.5 -64.5t-53.5 -164.5z" />
<glyph unicode="A" horiz-adv-x="812" d="M20 8q0 14 15 19q32 12 56 53.5t119 248.5l173 372q7 15 12.5 19t17.5 4q9 0 12 -4t13 -33l10 -29l15 -39q10 -27 22 -56l111 -261q78 -183 85 -198q17 -34 38 -51.5t36.5 -19t26 -5t10.5 -15.5q0 -15 -27 -15q-11 0 -43 3t-47 3q-19 0 -49 -2t-44 -2q-31 0 -39.5 2.5 t-8.5 11.5q0 7 8 11.5t17 6t17 9t8 20.5q0 22 -25 90t-42 100q-9 17 -41 17q-5 0 -44 -1t-77 -1h-53q-45 0 -56.5 -5t-20.5 -24l-20 -41l-19 -40l-12 -28q-8 -18 -10.5 -28.5t-2.5 -18.5q0 -23 11.5 -35t25.5 -13.5t25.5 -5.5t11.5 -14q0 -7 -3 -10.5t-14 -3.5 q-6 0 -34.5 0.5t-48.5 0.5q-22 0 -49.5 -2t-36.5 -2q-29 0 -29 12zM271 338q0 -13 9 -16t42 -3h31l95 1q39 0 39 16q0 13 -49 123.5t-62 110.5q-9 0 -57 -110.5t-48 -121.5z" />
<glyph unicode="B" horiz-adv-x="630" d="M20 694q0 15 9 15q3 0 13 -0.5t27 -0.5q20 0 79.5 0.5t66.5 0.5q23 0 58 1.5t52 1.5q91 0 152 -43.5t61 -123.5q0 -29 -10.5 -54.5t-25 -41.5t-29 -27.5t-25 -18t-10.5 -7.5q0 -3 17 -7.5t41 -15t47.5 -28.5t40.5 -53.5t17 -83.5q0 -43 -25 -92t-59 -72 q-44 -31 -82 -41.5t-92 -10.5q-40 0 -106 5.5t-73 5.5q-11 0 -39.5 -2t-46.5 -2h-14q-21 0 -21 15q0 14 11 14q6 0 13 0.5t10 0.5q9 0 17.5 6.5t17.5 29t10 57.5q3 65 3 312v170q0 7 -2.5 16.5t-10 25t-27 26t-48.5 10.5q-17 0 -17 12zM201 92q0 -60 98 -60h23q54 0 86 5 q47 8 77.5 49t30.5 98q0 49 -18 84.5t-41 53.5t-54.5 28t-49 12t-33.5 2q-32 0 -52.5 0.5t-26 0.5t-9 0.5t-5.5 0.5q-9 0 -13 -2.5t-7.5 -19t-4 -47.5t-0.5 -93v-8v-60q0 -23 -0.5 -32.5t-0.5 -11.5zM207 545q0 -50 0.5 -78t2.5 -43t4 -19t6 -4q28 -3 51 -3h64q63 0 94.5 33 t31.5 85q0 56 -52.5 108.5t-149.5 52.5q-31 0 -41.5 -18.5t-10.5 -84.5v-29z" />
<glyph unicode="C" horiz-adv-x="807" d="M44 324q0 109 42 196t129.5 140.5t207.5 53.5q61 0 123 -18t99 -36l37 -19q3 0 10 5t11 5q5 0 10 -4t5 -12q1 -29 4.5 -61.5t6.5 -53.5t3 -25q0 -18 -12 -18q-9 0 -17 14q-97 182 -280 182q-125 0 -205 -80t-80 -209q0 -71 18.5 -133t56 -113.5t103.5 -81.5t154 -30 q144 0 242 150q4 7 15 7q9 0 9 -14q0 -11 -3.5 -29.5t-8.5 -41t-6 -27.5q-2 -11 -16 -18q-54 -26 -84.5 -39t-77.5 -23.5t-96 -10.5q-87 0 -157 21t-114.5 55t-74.5 79.5t-42 92t-12 96.5z" />
<glyph unicode="D" horiz-adv-x="792" d="M20 700q0 9 8.5 10.5t42.5 1.5h87q25 0 92 2t103 2q69 0 138 -21t127 -60.5t94 -103t36 -141.5q0 -70 -9.5 -121.5t-31.5 -89t-44 -61t-60 -55.5q-30 -24 -87 -45t-117 -21q-6 0 -102 2.5t-138 2.5q-35 0 -65 -2.5t-35 -2.5q-24 0 -24 13q0 8 3.5 11.5t15 6.5t16.5 5 q16 7 29.5 26.5t13.5 38.5q0 56 0.5 143t0.5 128q0 36 -0.5 112.5t-0.5 141.5q0 17 -16.5 34.5t-36.5 18.5q-14 1 -20.5 2t-13 6.5t-6.5 15.5zM197 141q0 -19 0.5 -31t4 -22t5.5 -14t12 -9t15 -7l24 -6q18 -5 30 -8q35 -10 73 -10h20q68 0 116 19.5t92 61.5q74 71 74 230 q0 80 -31.5 145t-82.5 103.5t-110 59t-119 20.5h-40q-12 0 -28.5 -2.5t-22 -4t-13.5 -10t-9.5 -14.5t-4 -23.5t-2.5 -30.5v-42q0 -22 -1 -103.5t-1 -88.5q0 -60 -0.5 -130t-0.5 -83z" />
<glyph unicode="E" horiz-adv-x="604" d="M20 699q0 14 28 14q4 0 13 -1t14 -1q3 0 94 -2.5t150 -2.5q21 0 103.5 2t96.5 2q19 0 19 -23q0 -6 -6 -39.5t-6 -62.5q0 -9 -5 -15.5t-11 -6.5q-15 0 -15 21q0 27 -17 49t-42 23q-90 7 -138 7h-26q-52 0 -60.5 -7.5t-10.5 -53.5q-4 -72 -4 -167q0 -50 19 -51h25h42h31 q60 0 80 4t36 15q19 13 23 37q3 17 14 17q9 0 11 -3t2 -13q0 -7 -4 -46t-4 -59q0 -19 1.5 -36t1.5 -25q0 -25 -7 -25q-15 0 -22 24q-14 42 -25 49q-21 14 -96 14h-49q-18 0 -23.5 0.5t-8.5 0.5h-7q-41 0 -41 -19q0 -29 -1 -72.5t-1 -71.5v-40q0 -72 24 -79q25 -8 43 -8 q75 0 131.5 7t85 17.5t47.5 23t24.5 23t11 17.5t11.5 7q12 0 12 -17q0 -43 -43 -87t-75 -44q-72 0 -162.5 5t-112.5 5q-28 0 -70 -4.5t-66 -4.5q-21 0 -21 10v12q0 3 3 5t6.5 2.5t13 3.5t20.5 8q24 12 31.5 47t7.5 147v124q0 27 1.5 84t1.5 89q0 27 -2 91q-1 29 -25 45 t-56 17q-16 0 -16 18z" />
<glyph unicode="F" horiz-adv-x="554" d="M20 697q0 3 1.5 6t8 7t16.5 4h27q24 0 77.5 -3t139.5 -3q71 0 126 2.5t101 2.5q17 0 17 -24q0 -9 -2 -22.5t-6 -36t-6 -43.5q-2 -20 -15 -20q-14 0 -14 20q0 66 -46 69q-151 12 -180 12q-45 0 -55.5 -11t-11.5 -45v-8q-3 -54 -3 -167q0 -49 18 -50q5 0 13.5 -0.5 t11.5 -0.5q7 0 21 0.5t22 0.5h31q60 0 79.5 3.5t35.5 14.5q9 6 14 14t7 19t5 16t12 5t11 -3t2 -13q0 -7 -4.5 -35t-4.5 -48q0 -19 3.5 -46.5t3.5 -35.5q0 -16 -3.5 -20.5t-10.5 -4.5q-17 0 -21 25q0 2 -1 9t-1.5 10t-2.5 8.5t-4 8.5t-5 6.5t-8 5.5q-14 6 -50 10t-47 4h-87 q-41 0 -41 -19q0 -29 -1 -72.5t-1 -71.5q0 -7 -0.5 -20.5t-0.5 -19.5q0 -20 4 -40t23.5 -42t52.5 -22q30 0 30 -18q0 -3 -2 -7t-9.5 -8t-19.5 -4q-16 0 -50.5 4t-46.5 4q-28 0 -62.5 -3t-58.5 -3q-20 0 -20 11q0 13 4.5 16t38.5 15q26 9 32 53.5t7 180.5v83q0 27 1.5 84.5 t1.5 89.5v58q0 66 -47 88q-7 3 -17 4.5t-16.5 1.5t-11.5 3.5t-5 10.5z" />
<glyph unicode="G" horiz-adv-x="818" d="M44 329q0 109 43.5 196t133.5 140.5t214 53.5q48 0 90 -7.5t69 -17.5t47 -20.5t30.5 -18t12.5 -7.5q3 0 13.5 7.5t14.5 7.5q15 0 15 -20q1 -29 4.5 -61t6.5 -53t3 -25q0 -17 -12 -17t-17 12q-35 76 -117 128.5t-169 52.5q-125 0 -206.5 -78.5t-81.5 -217.5q0 -92 34 -173 t103.5 -134t159.5 -53q77 0 139.5 35t69.5 80q3 24 3 126q0 39 -17 56q-12 12 -44 16q-30 3 -35 12q-2 4 -2 10q0 11 18 11q13 0 56 -2.5t55 -2.5q20 0 43 0.5t37 0.5h15q16 0 16 -9q0 -7 -25.5 -18t-28.5 -28q-7 -43 -7 -112q0 -30 1 -53t1.5 -32.5t1.5 -16.5t1 -10 q0 -5 -7.5 -7.5t-24.5 -7t-31 -12.5l-7 -4q-7 -5 -14 -9t-19 -10l-23 -12q-12 -6 -27 -12.5t-31 -11.5t-33 -9t-35.5 -6.5t-36.5 -2.5q-109 0 -189.5 29.5t-124.5 80t-65 109.5t-21 127z" />
<glyph unicode="H" horiz-adv-x="791" d="M20 699q0 11 28 11q10 0 46 -2t67 -2q19 0 36.5 1t51.5 1q22 0 22 -14q0 -17 -35 -17q-20 0 -29 -41t-9 -84v-37q0 -24 -1 -54.5t-1 -37.5q0 -25 6 -32t28 -7q2 0 39 0.5t125 0.5q8 0 27 -0.5t62.5 -1t99.5 -0.5q7 0 9 17q2 20 2 122v54q0 39 -8.5 62t-21 30t-25 9 t-21 5.5t-8.5 13.5t39 10q10 0 43 -1t54 -1q10 0 34 1t44 1q23 0 23 -13t-14 -13q-28 0 -42.5 -17t-14.5 -45q0 -33 -1.5 -116.5t-1.5 -126.5q0 -23 -1 -72.5t-1 -77.5v-37q0 -30 2 -55.5t2 -36.5q0 -65 84 -74q12 0 12 -11q0 -7 -10 -9t-39 -2q-11 0 -36.5 2.5t-40.5 2.5 q-18 0 -43.5 -2.5t-50.5 -2.5h-17q-5 0 -10.5 1.5t-7 4t-1.5 7.5q0 6 10 11t22 8t23.5 11.5t13.5 21.5q7 36 7 73q0 10 0.5 28t0.5 26q0 18 1 59t1 64q0 15 -12 21t-51 6q-15 0 -69 -2l-54 -1q-44 0 -99 1.5t-85 1.5q-15 0 -20 -6t-5 -31t-2 -65t-2 -58v-43q0 -43 8 -64 t39 -41q8 -5 43 -5q7 0 13 -3.5t6 -7.5q0 -18 -32 -18q-30 0 -49.5 2t-33.5 2q-28 0 -60 -2.5t-48 -2.5q-47 0 -47 15q0 9 9.5 12.5t21.5 5t25 13t18 33.5q3 17 8 103t5 164v57q0 13 0.5 49.5t0.5 58.5q0 76 -6 119q-3 25 -26.5 39t-48.5 14q-10 0 -15.5 6.5t-5.5 10.5z" />
<glyph unicode="I" horiz-adv-x="328" d="M20 695q0 15 28 15q10 0 46 -2t67 -2q19 0 36.5 1t51.5 1q27 0 27 -14q0 -8 -46 -27q-32 -13 -32 -115q0 -135 -1.5 -238.5t-1.5 -131.5q0 -84 25 -121q22 -31 48 -31q2 0 10 -0.5t10 -0.5q7 0 14 -3.5t7 -7.5q0 -11 -5.5 -14.5t-19.5 -3.5q-30 0 -55.5 2t-39.5 2 q-28 0 -61 -2.5t-49 -2.5q-45 0 -45 15q0 9 9.5 12.5t21.5 5t25 13t18 33.5q2 7 6.5 113.5t4.5 153.5v57q0 13 0.5 49.5t0.5 58.5v46q0 44 -4 73q-3 24 -26.5 37t-48.5 14q-21 1 -21 15z" />
<glyph unicode="J" horiz-adv-x="290" d="M-45 -154q0 15 11.5 35t19.5 20q6 0 21.5 -17t36.5 -17q55 0 69 78q13 68 13 121v41v56l-1 26q0 20 -0.5 35t-1 32t-1 87t-0.5 187q0 64 -4 99q-3 24 -26.5 36t-49.5 13q-22 1 -22 18t29 17q10 0 45.5 -3t67.5 -3q19 0 33 0.5t48 0.5q28 0 28 -13q0 -9 -46 -28 q-21 -8 -21 -68v-46q0 -166 -0.5 -271.5t-0.5 -135.5t-0.5 -48t-0.5 -29q0 -114 -61.5 -187.5t-145.5 -73.5q-40 0 -40 38z" />
<glyph unicode="K" horiz-adv-x="724" d="M20 695q0 13 28 13q10 0 46 -1t67 -1q18 0 33 1t53 1q17 0 17 -13q0 -4 -5 -7t-14.5 -7t-15.5 -7q-31 -18 -31 -122q0 -54 -1.5 -104t-1.5 -52q0 -21 9 -21q7 0 80 59.5t145 129t72 91.5q0 6 -3 10.5t-10 7.5t-12 4.5t-14 3t-11 2.5q-11 2 -11 14q0 11 16 11 q2 0 10.5 -0.5t14.5 -0.5q2 0 23.5 -1t36.5 -1l124 3q20 0 20 -13q0 -7 -6 -10.5t-23 -8.5t-29 -10q-5 -2 -49 -30q-9 -6 -113 -93l-174 -147l-11 -14q0 -5 11 -16l122 -121q139 -138 180 -172.5t78 -40.5q29 -4 33 -12q1 -2 1 -6q0 -9 -8.5 -11t-49.5 -2h-97q-7 0 -10.5 1 t-7 3t-8.5 9l-14 14l-22 26q-16 18 -35 37q-212 215 -223 224t-19 9q-14 0 -14 -27v-3q0 -3 0.5 -9t0.5 -14v-21v-30q0 -131 15 -158q19 -32 67 -32q2 0 4 -0.5t4 -0.5q7 0 14 -3.5t7 -7.5q0 -11 -5.5 -14.5t-19.5 -3.5q-30 0 -55.5 2t-39.5 2q-28 0 -61 -2.5t-49 -2.5 q-36 0 -36 11v4q0 7 9 10l24 6q14 4 22 12q14 14 17.5 64.5t3.5 161.5v134q0 13 -1 49.5t-1 58.5v46q0 51 -3 73q-3 24 -25.5 37t-47.5 14q-21 1 -21 15z" />
<glyph unicode="L" horiz-adv-x="603" d="M20 695q0 18 27 18q4 0 13 -1t14 -1q10 0 37.5 -2t49.5 -2q31 0 66 2t39 2q17 0 17 -10q0 -14 -12 -18.5t-26.5 -6t-28 -22t-15.5 -61.5q-2 -39 -5 -218t-3 -200v-40q0 -72 24 -79q25 -8 43 -8q75 0 131.5 7t85 17.5t47.5 23t24.5 23t11 17.5t11.5 7q12 0 12 -17 q0 -43 -43 -87t-75 -44q-72 0 -162.5 5t-112.5 5q-28 0 -64.5 -4t-60.5 -4q-29 0 -29 12q0 7 5.5 11.5t10.5 4.5q15 0 29 10q18 14 26 51.5t8 144.5v124q0 27 1.5 84t1.5 89q0 27 -2 91q-1 29 -25 45t-56 17q-10 0 -12.5 3.5t-2.5 10.5z" />
<glyph unicode="M" horiz-adv-x="919" d="M20 695q0 15 18 15q6 0 27.5 -2t25.5 -2q15 0 41 1t34 1q19 0 24 -14l43 -94l49 -107l48 -102l47 -101l37 -77q20 -39 30.5 -57.5t13.5 -18.5t6.5 3.5t7 9.5t6 12t7 15.5t6.5 14.5l129 266l39 81l27 58l17 38l11 24q3 8 4.5 12.5t2.5 7t2 4.5t3.5 9t5 9.5t10 5.5t19.5 3 q19 0 35.5 -1t50.5 -1q17 0 17 -13q0 -10 -6.5 -14.5t-26.5 -7.5q-25 -3 -35 -25t-10 -84q0 -135 6 -244.5t6 -137.5q0 -100 16 -127.5t67 -27.5q7 0 12.5 -5t5.5 -9q0 -6 -1 -9t-4 -5t-6 -2h-11q-30 0 -59 2t-43 2q-28 0 -58 -2.5t-46 -2.5q-18 0 -18 14q0 9 8 13t18.5 5 t22 12.5t16.5 34.5q4 20 4 64q0 32 -1.5 77t-3.5 87.5t-4 80t-3 61.5l-2 24q0 43 -9 43q-1 0 -3 -1t-3.5 -3t-3.5 -4t-4 -6.5t-4 -7.5t-5 -8.5t-5 -9.5l-5 -11q-4 -7 -6 -12l-139 -281l-51 -105q-18 -38 -22 -44.5t-10 -6.5q-9 0 -15 8.5t-18 37.5t-21 48q-183 372 -188 379 q-3 4 -6 4q-8 0 -8 -40q-1 -78 -5 -154t-4 -110v-45q0 -26 1.5 -40t8 -32.5t23.5 -28.5t44 -13q5 0 9.5 -3.5t4.5 -7.5q0 -11 -3 -14.5t-12 -3.5q-20 0 -60 2t-44 2q-2 0 -29 -1.5t-53 -1.5q-8 0 -11.5 1t-6.5 4.5t-3 10.5q0 8 9 11t20.5 3.5t25.5 16t21 45.5q5 22 12 174 t7 225q0 100 -19.5 138t-84.5 53q-13 3 -13 15z" />
<glyph unicode="N" horiz-adv-x="798" d="M20 691q0 6 7 11.5t18 5.5q6 0 20 -0.5t18 -0.5q15 0 28 1t21 1q9 0 21 -5.5t14 -11.5q2 -3 11 -14l24 -27q15 -17 27 -33q136 -177 364 -427q6 -7 14.5 -16t12 -13.5t7.5 -8.5t6.5 -5.5t4.5 -1.5q10 0 10 62v117q0 67 -0.5 113t-1 66.5t-0.5 25.5v7q0 34 -4.5 58 t-10.5 37t-17.5 22t-19.5 11.5t-23 5.5t-21 5q-20 6 -20 17q0 15 19 15q6 0 48 -0.5t47 -0.5q24 0 53.5 1t36.5 1q17 0 23.5 -3.5t6.5 -13.5q0 -4 -5.5 -7.5t-11.5 -6t-12 -4.5l-6 -2q-33 -18 -33 -113v-38q0 -76 -5.5 -263.5t-5.5 -231.5v-20q0 -23 -14 -23q-9 0 -16 7 l-397 458q-64 72 -71 72q-10 0 -10 -68q0 -95 -4 -204.5t-4 -119.5q0 -45 15.5 -68.5t33.5 -26.5t33.5 -6.5t15.5 -13.5q0 -11 -3.5 -14t-12.5 -3q-7 0 -31.5 1t-75.5 1q-9 0 -37 -1t-48 -1q-22 0 -22 16q0 9 13 11.5t32 15.5t29 49q6 23 15 186t9 225q0 86 -24 128.5 t-78 48.5q-13 1 -13 15z" />
<glyph unicode="O" horiz-adv-x="853" d="M44 339q0 168 101 275.5t286 107.5q86 0 155 -25t109 -61.5t67 -83.5t37 -86.5t10 -73.5q0 -136 -53 -229.5t-139.5 -136t-199.5 -42.5q-119 0 -205.5 52t-127 131t-40.5 172zM132 390q0 -40 11 -86.5t36 -96t60.5 -89t90 -65t119.5 -25.5q34 0 71.5 10.5t74.5 32.5 t66 53.5t47.5 77t18.5 98.5q0 181 -95 281.5t-235 100.5q-110 0 -187.5 -74t-77.5 -218z" />
<glyph unicode="P" horiz-adv-x="564" d="M20 694q0 16 23 16q3 0 11 0.5t26 0.5q5 0 27.5 -1.5t32.5 -1.5q22 0 85 1.5t80 1.5q94 0 162 -47.5t68 -136.5q0 -49 -18 -87.5t-43.5 -60.5t-57 -36.5t-56 -19t-43.5 -4.5q-32 0 -65 7.5t-33 15.5q0 15 13 15q5 0 20.5 -4t30.5 -4q23 0 49 6.5t54 21t46 44t18 68.5 q0 67 -54 124.5t-149 57.5q-31 0 -42 -18.5t-11 -83.5q0 -208 -1 -237.5t-1 -175.5q0 -88 41 -115q11 -7 27.5 -9t27.5 -1.5t19.5 -4t8.5 -16.5q0 -17 -23 -17t-81 2.5t-62 2.5q-10 0 -39.5 -2t-53.5 -2q-31 0 -31 11q0 6 1.5 10t3 6.5t6.5 4.5t7 3t9.5 2.5t10.5 2.5 q2 1 6 1.5t5.5 1t5 3t5.5 6.5l6 12q3 8 7 20q7 19 11 150t4 203q0 62 -0.5 114.5t-0.5 55.5q0 27 -17 53.5t-56 26.5q-20 0 -20 13z" />
<glyph unicode="Q" horiz-adv-x="839" d="M45 339q0 171 94.5 277t292.5 106q83 0 149.5 -27t105 -66.5t64.5 -90t35 -92.5t9 -79q0 -71 -24 -142.5t-74.5 -129t-115.5 -75.5q-71 -20 -71 -23q0 -11 19 -19q4 -2 29 -13l33 -15l34 -15q25 -11 39 -16l36 -14q23 -9 38.5 -13.5t34.5 -9.5t34.5 -7t28.5 -2 q29 0 46 8.5t26.5 16.5t20.5 8q3 0 6.5 -4.5t3.5 -7.5q0 -35 -54 -61.5t-120 -26.5q-63 0 -177.5 51t-215 102t-130.5 51q-46 0 -68 -32t-22 -74v-18q0 -26 -18 -26q-10 0 -17 13t-7 29q0 44 20 83t44 56q22 16 22 18q0 4 -22 19q-129 93 -129 261zM136 390q0 -136 74 -238 q39 -55 111.5 -89.5t126.5 -34.5q70 0 144 38q42 22 83.5 86.5t41.5 147.5q0 161 -93 271.5t-226 110.5q-110 0 -186 -74t-76 -218z" />
<glyph unicode="R" horiz-adv-x="718" d="M20 696q0 16 29 16h166q23 0 53 1.5t47 1.5q90 0 154 -45.5t64 -122.5q0 -51 -19.5 -89.5t-43 -55.5t-43 -29.5t-19.5 -16.5q0 -12 84 -129.5t115 -150.5q38 -47 92 -47q14 0 14 -12q0 -15 -12 -20t-62 -5q-47 0 -86 23q-50 29 -169 224l-10 16q-48 78 -74 78h-21h-61 q-12 0 -14.5 -10t-2.5 -61v-79q0 -31 0.5 -39.5t0.5 -13.5v-9q0 -41 19 -63.5t42.5 -26t42.5 -8t19 -14.5q0 -16 -18 -16q-1 0 -69 3.5t-74 3.5q-29 0 -69 -2t-41 -2q-21 0 -21 16q0 11 13 15.5t29 6.5t29 22t13 57q0 26 0.5 140t0.5 175q0 62 -0.5 113.5t-0.5 55.5 q0 37 -15 56.5t-33.5 22t-33.5 6.5t-15 14zM201 536q0 -103 1 -127.5t7 -28.5q15 -9 43 -9h10h29q85 0 121.5 39t36.5 100q0 62 -48.5 113t-146.5 51q-37 0 -45 -19.5t-8 -90.5v-28z" />
<glyph unicode="S" horiz-adv-x="596" d="M59 187q0 21 14 21q13 0 16 -10q10 -24 18.5 -41.5t27.5 -43t41 -42t56.5 -28.5t75.5 -12q75 0 120.5 39.5t45.5 103.5q0 47 -31 78.5t-71 45.5l-102 36q-61 22 -100 45q-91 54 -91 147q0 89 64.5 142.5t167.5 53.5q38 0 90.5 -16.5t53.5 -16.5q3 0 11 4t12 4q13 0 15 -8 q21 -121 21 -136q0 -28 -14 -28q-9 0 -14 14q-12 29 -23.5 47t-16.5 23t-26 24q-54 48 -131 48q-62 0 -104 -30t-42 -81q0 -45 24.5 -74t65.5 -45t86 -30t95.5 -39t83.5 -60q40 -43 40 -107q0 -105 -67 -166.5t-166 -61.5q-69 0 -111 7.5t-86 30.5q-13 8 -31 78t-18 84z" />
<glyph unicode="T" horiz-adv-x="703" d="M20 580q0 40 10 103q0 2 0.5 7t1 6.5t1 5t1.5 5t2.5 4t3.5 3.5t5 2t7 1.5t9 0.5q16 0 84.5 -4t197.5 -4q220 0 308 5q1 0 3.5 0.5t3.5 0.5q11 0 15 -6t4 -11q0 -7 3 -42t3 -39q0 -25 -3 -31.5t-13 -6.5q-8 0 -11 12q-8 29 -14 39.5t-26 18.5t-61 8h-130q-24 0 -29.5 -9.5 t-5.5 -54.5v-49q0 -134 -1.5 -236t-1.5 -130q0 -14 -0.5 -35.5t-0.5 -29.5q0 -43 14 -57q13 -12 29 -18.5t27.5 -7.5t19.5 -5t8 -13q0 -11 -5 -14t-19 -3q-12 0 -53 4t-58 4q-12 0 -48.5 -3.5t-53.5 -3.5q-37 0 -37 16q0 10 6 13.5t23.5 6t22.5 3.5q34 8 38 40q10 88 10 378 l-1 179q0 19 -11 23.5t-65 4.5q-70 0 -105.5 -4t-41.5 -7.5t-14 -13.5q-9 -12 -14.5 -26.5t-7 -24t-6 -16t-13.5 -6.5q-11 0 -11 17z" />
<glyph unicode="U" horiz-adv-x="815" d="M20 697q0 5 1 7t6 4t16 2t46 -2t67 -2q20 0 36.5 1t57.5 1q21 0 21 -14q0 -9 -7 -11t-17.5 -3t-21 -7t-17.5 -29.5t-7 -63.5v-28q0 -47 -0.5 -118.5t-0.5 -97.5q0 -31 0.5 -47t2.5 -46.5t5.5 -48t11.5 -43t19.5 -40.5t29 -33t40.5 -27.5t54 -16t69 -6.5q32 0 50 1 t49.5 6.5t50 16t42 32t36.5 52.5t22 79t9 109q0 101 -0.5 154t-0.5 58q0 35 -1.5 55t-10 44t-24.5 35q-10 7 -26 10l-26 4q-10 1 -10 8q0 16 20 16q6 0 39 -1t38 -1q24 0 51 1.5t34 1.5q21 0 21 -13q0 -8 -21.5 -20.5t-26.5 -22.5q-11 -21 -11 -66q0 -7 0.5 -28.5t0.5 -38.5 q0 -192 -16 -294t-48.5 -148.5t-97.5 -74.5q-53 -22 -143 -22q-167 0 -237 64q-55 51 -68 122.5t-13 246.5v17q0 39 1 86t1 58q0 55 -13 75.5t-61 27.5q-22 3 -22 19z" />
<glyph unicode="V" horiz-adv-x="807" d="M20 696q0 14 28 14q5 0 38.5 -2t71.5 -2q9 0 31.5 1t33.5 1q23 0 28 -2t5 -9q0 -6 -10 -11t-20.5 -13.5t-10.5 -22.5q0 -13 3.5 -26.5t15.5 -41.5l24 -56l42 -90l55 -124q84 -193 100 -193q5 0 57.5 121t103.5 253t51 156q0 16 -11.5 24.5t-24.5 10t-24.5 5t-11.5 11.5 q0 7 3.5 8.5t17.5 1.5q3 0 23 -0.5t40 -0.5q18 0 40.5 1t48.5 1q19 0 19 -14q0 -7 -6.5 -12t-15.5 -9t-21 -17t-21 -34l-223 -508l-47 -110q-11 -27 -14 -32t-8 -5q-18 0 -45 69q-26 65 -103 232l-69 153q-31 70 -44 103l-26 59q-11 26 -17 37t-14 20q-17 19 -35.5 27 t-30 7.5t-19.5 3t-8 15.5z" />
<glyph unicode="W" horiz-adv-x="1110" d="M20 695q0 14 27 14q6 0 38.5 -1.5t71.5 -1.5q28 0 56 1.5t30 1.5q9 0 11.5 -2.5t2.5 -9.5q0 -6 -21.5 -17t-21.5 -30q0 -9 4 -22t16 -41l26 -58l41 -93l55 -124l20 -48l22 -51l19 -43q10 -22 16.5 -33t9.5 -11q4 0 32 62t50 117q4 9 9.5 20t8 18.5t2.5 15.5 q0 12 -60 146.5t-77 153.5q-4 5 -8 8l-8 5q-3 3 -5.5 4.5t-6.5 2t-5.5 0.5t-6 0.5t-5.5 0.5q-28 3 -34 5.5t-6 10.5q0 14 29 14q6 0 39 -2t71 -2q2 0 27 2t39 2q30 0 30 -8q0 -6 -11 -12t-21.5 -15.5t-10.5 -23.5q0 -19 31 -89q2 -4 13.5 -33t20.5 -48.5t13 -19.5 q8 0 40 87.5t32 103.5q0 18 -15 25.5t-30 11t-15 11.5q0 11 22 11q6 0 30 -1t34 -1h17q14 0 53 3h9q13 0 13 -10t-19 -16t-26 -13q-16 -16 -28 -46l-50 -119q-30 -70 -35 -84t-5 -25q0 -8 61 -144t72 -136q12 0 116.5 252.5t104.5 277.5q0 16 -11.5 24.5t-25.5 10t-25.5 5 t-11.5 11.5q0 7 3 8.5t16 1.5q3 0 23 -0.5t40 -0.5q18 0 40.5 1t48.5 1q20 0 20 -14q0 -7 -5.5 -11t-16.5 -10t-19 -14q-5 -5 -8.5 -10t-7.5 -12l-6 -13q-3 -5 -8 -17l-9 -20l-172 -386q-76 -173 -90 -202t-22 -29q-5 0 -12 12.5t-19.5 42t-14.5 34.5l-27 61l-28 66l-23 55 q-12 28 -20 42.5t-11 14.5q-10 0 -67.5 -138t-61.5 -154q-1 -4 -2.5 -8t-2.5 -7l-2 -6q-1 -3 -2 -5t-1.5 -4t-1.5 -3.5t-2 -2.5t-2 -1l-2 -2h-3q-9 0 -22 28.5t-47 112t-69 160.5q-58 127 -123 287q-19 48 -41 75.5t-39 34.5t-31 8t-22 4t-8 15z" />
<glyph unicode="X" horiz-adv-x="751" d="M20 701q0 8 7 10.5t35 2.5q19 0 38 -2t51 -2q6 0 53.5 1t51.5 1q22 0 22 -9t-7 -13t-15.5 -4.5t-15.5 -5.5t-7 -16q0 -19 54 -97q81 -123 91 -133q6 -6 9 -6q8 0 23 22l29 42l35 50l32 48q17 24 26.5 41t9.5 24q0 16 -8.5 23.5t-18 8.5t-18 4.5t-8.5 12.5q0 10 15 10 q22 0 43 -2t38 -2q56 0 73.5 2t20.5 2q16 0 16 -10t-9 -13.5t-29 -10.5t-37 -19q-19 -13 -53 -59q-155 -208 -155 -210q0 -7 36 -58l90 -129q92 -134 130 -165q3 -3 19.5 -6t30 -8t13.5 -13q0 -5 -1.5 -7.5t-9 -4.5t-21.5 -2q-19 0 -61.5 3.5t-45.5 3.5q-29 0 -51.5 -1.5 t-34.5 -3t-16 -1.5q-13 0 -13 13q0 12 25.5 18t25.5 25q0 7 -6.5 20t-21.5 37l-30 47l-46 65l-52 78q-10 17 -17 17q-2 0 -21 -31q-22 -35 -63.5 -90.5t-62.5 -89.5t-21 -54q0 -27 54 -27q12 0 12 -17q0 -11 -31 -11q-10 0 -47.5 1.5t-40.5 1.5q-9 0 -39 -2t-41 -2t-16 1 t-9 5t-4 13q0 7 6 9.5t14.5 3t23 5.5t27.5 15q10 8 21.5 19t24.5 26l22 28q10 12 25 32l23 32l24 34l22 31l36 49q21 27 29.5 39t8.5 15t-4 9.5t-15 22.5l-25 34l-39 54l-53 75q-80 118 -136 130q-2 0 -11 1.5t-14 3t-10 5.5t-5 10z" />
<glyph unicode="Y" horiz-adv-x="712" d="M20 688q0 11 11.5 14t50.5 3q6 0 27.5 -1t30.5 -1q11 0 40.5 0.5t44.5 0.5q50 0 50 -12q0 -11 -21 -18.5t-21 -16.5q0 -10 6.5 -26t12.5 -26l20 -29q13 -19 15 -23q34 -54 70.5 -103t41.5 -49q6 0 15 11.5t25 38.5t27 43q3 5 14 22l16 24l14 22q9 14 13 22l9 18 q6 10 8 17t2 13q0 32 -34 40q-4 1 -11.5 2t-11 2t-8.5 3t-7 5.5t-2 8.5q0 12 28 12q5 0 18.5 -0.5t22.5 -0.5q23 0 55.5 -0.5t50.5 -0.5q49 0 49 -15q0 -4 -6 -7t-17 -8t-20 -12q-41 -32 -120.5 -152t-90.5 -134q-16 -20 -20 -44t-4 -82q0 -13 0.5 -55.5t0.5 -60.5v-24 q0 -33 11.5 -52t21.5 -22.5t20 -3.5q2 0 10 -0.5t10 -0.5q7 0 11 -4.5t4 -9.5q0 -10 -5 -13t-19 -3q-5 0 -43.5 0.5t-56.5 0.5q-35 0 -64 -2t-46 -2q-28 0 -28 11q0 9 5.5 12.5t18.5 4.5t19 3q42 13 42 61q0 6 0.5 19.5t1 57.5t0.5 126q0 16 -2.5 27.5t-6 22.5t-17.5 32 l-26 40l-44 66l-61 90q-31 47 -56 71.5t-38.5 29t-31.5 4.5q-25 0 -25 13z" />
<glyph unicode="Z" horiz-adv-x="563" d="M20 14q0 5 8 18l29 43q20 30 39 64q28 50 106 179l135 222q56 95 56 106t-43 11q-35 0 -183 -4q-32 -1 -55.5 -16t-33.5 -33l-17 -32q-8 -14 -13 -14q-13 0 -13 16q0 20 4 40t4 26q0 5 5 47q1 13 7 17t21 4q6 0 33.5 -1t76.5 -1.5t106 -0.5q63 0 101.5 0.5t78.5 0.5 q43 0 43 -15q0 -13 -183.5 -315t-183.5 -312q0 -7 8 -11.5t27.5 -6t34.5 -2t46 -0.5q101 0 146 5.5t81 25.5q12 7 21 16l13 14q5 5 10 5q8 0 8 -11q0 -18 -31 -68q-2 -3 -5 -8.5t-5 -7.5l-4 -6q-3 -4 -6.5 -5.5t-9 -2.5t-12.5 -1q-56 0 -99.5 -0.5t-83.5 -0.5 q-151 0 -189.5 -0.5t-57.5 -0.5q-20 0 -20 16z" />
<glyph unicode="[" horiz-adv-x="287" d="M78 -82q0 75 3 311.5t3 340.5v82q0 38 -0.5 59.5t-0.5 26.5q0 16 10 20.5t39 4.5h43q23 0 38 0.5t21 0.5h7q7 0 11.5 -6.5t4.5 -14.5q0 -20 -12 -20q-11 0 -50 -0.5t-42 -0.5h-16q-8 0 -8 -8q0 -5 0.5 -24.5t1 -54.5t0.5 -76q0 -79 -2.5 -274.5t-2.5 -269.5q0 -97 1 -147 q0 -27 12 -27q10 0 48.5 0.5t41.5 0.5q14 0 19 -4.5t5 -17.5q0 -16 -10.5 -20t-41.5 -4h-90q-22 0 -27.5 10t-5.5 51v61z" />
<glyph unicode="\" horiz-adv-x="416" d="M20 723q0 12 21 12q14 0 19.5 -3.5t9.5 -14.5l307 -830l8 -21l8 -21q3 -8 3 -12q0 -16 -33 -16q-8 0 -12.5 5.5t-12.5 25.5l-304 831q-14 36 -14 44z" />
<glyph unicode="]" horiz-adv-x="287" d="M29 -184q0 21 13 21h92h16q7 0 7 9q0 5 -0.5 24.5t-0.5 54.5v76q0 79 2 274.5t2 269.5q0 96 -1 146q0 27 -12 27h-90q-14 0 -19 4t-5 17q0 23 17 23q100 2 125 2q22 0 27.5 -10t5.5 -51v-61q0 -75 -2.5 -311.5t-2.5 -340.5q0 -44 0.5 -82t0.5 -60v-26q0 -16 -10 -21 t-39 -5h-43h-66q-7 0 -12 6t-5 14z" />
<glyph unicode="^" horiz-adv-x="333" d="M29 331q0 5 13 25l36 61q42 71 55 87.5t29 16.5q17 0 29.5 -16.5t53.5 -85.5l37 -63q11 -17 11 -27q0 -8 -18 -8h-15q-5 0 -9 1.5t-7 5.5l-5 8q-2 3 -5 9t-4 9q-7 12 -14 26l-12 22q-4 9 -9.5 18.5t-8.5 15.5t-6.5 12t-6 9t-4.5 6t-3.5 4t-3.5 1t-4.5 -2t-5.5 -6l-6 -10 q-4 -6 -10 -16l-10 -21l-15 -27l-17 -32q-1 -2 -4 -7.5t-4 -7.5t-4 -6.5t-5.5 -6t-6 -3t-7.5 -1.5h-14q-20 0 -20 9z" />
<glyph unicode="_" horiz-adv-x="213" d="M0 -38q0 8 1 11.5t5 6.5t13 3h178q8 0 11.5 -2.5t4 -6t0.5 -12.5q0 -14 -3 -19t-18 -5h-174q-12 0 -15 5t-3 19z" />
<glyph unicode="`" horiz-adv-x="439" d="M109 636q0 13 21 19.5t32 6.5q12 0 20 -19q14 -34 27.5 -62t21.5 -42l15 -24l9 -15q3 -5 3 -9q0 -11 -12 -11q-10 0 -39 31q-98 103 -98 125z" />
<glyph unicode="a" horiz-adv-x="461" d="M48 85q0 36 15 60.5t45.5 38t63.5 21.5t80 16l9 1q3 1 8 1.5t9 1.5q7 1 9.5 2t5 4.5t2.5 9.5q0 10 1 27.5t1 24.5q0 57 -33 82.5t-64 25.5q-72 0 -72 -60q0 -8 2 -20t2 -16q0 -20 -18 -20q-6 0 -15 1.5t-20.5 5t-19 12t-7.5 20.5q0 39 52.5 74.5t115.5 35.5q43 0 73 -10 t44.5 -22.5t22.5 -33t9 -32t1 -28.5q0 -72 -2.5 -113.5t-2.5 -72.5q0 -37 8 -58.5t19 -27.5t22 -7t19 -4t8 -12q0 -21 -63 -21q-26 0 -44.5 14t-26.5 27.5t-9 13.5t-8 -6.5t-19.5 -15.5t-28 -18t-36 -15.5t-40.5 -6.5q-64 0 -93 30q-25 25 -25 70zM126 100q0 -34 20 -54.5 t57 -20.5q26 0 44.5 8t27.5 18t14 26.5t5.5 25.5t0.5 24v72q0 9 -7 9q-2 0 -5 -1t-5 -1l-29 -5q-6 -1 -28 -6t-30.5 -9t-24 -12.5t-22 -18t-12.5 -24t-6 -31.5z" />
<glyph unicode="b" horiz-adv-x="547" d="M12 691q0 9 10 16t32 14.5t23 7.5q7 3 22.5 10.5t26.5 12t15 4.5q5 0 10 -5t5 -13v-20q0 -12 -0.5 -31.5t-0.5 -90.5v-185q0 -36 7 -36q4 0 12 10.5t19.5 23t44.5 23t82 10.5q89 0 138.5 -62t49.5 -145q0 -47 -24.5 -108.5t-66.5 -93.5q-58 -44 -139 -44q-41 0 -76 14.5 t-52.5 29t-18.5 14.5q-4 0 -19.5 -32t-29.5 -32q-12 0 -12 13q0 14 2 47.5t2 34.5q0 33 4.5 118t4.5 146v247q0 91 -45 91h-10q-16 0 -16 11zM155 132q0 -27 39.5 -67t106.5 -40q69 0 105.5 46.5t36.5 113.5q0 79 -47.5 141t-128.5 62q-47 0 -80 -28q-32 -26 -32 -47v-181z " />
<glyph unicode="c" horiz-adv-x="452" d="M39 192q0 96 64.5 166.5t167.5 70.5q35 0 75.5 -10t41.5 -23q2 -24 2 -47q0 -44 -11 -44q-6 0 -10.5 4.5t-10 13.5t-12.5 14q-22 19 -59.5 36t-73.5 17q-7 0 -18 -3.5t-25.5 -15t-26.5 -29t-20.5 -48.5t-8.5 -70q0 -78 49.5 -135.5t121.5 -57.5q35 0 65 13t46.5 26 t20.5 13q11 0 11 -10q0 -3 -6.5 -13t-21 -24t-34.5 -26.5t-52 -21.5t-68 -9q-94 0 -150.5 57t-56.5 156z" />
<glyph unicode="d" horiz-adv-x="565" d="M39 195q0 97 64.5 170t178.5 73q26 0 68.5 -14.5t45.5 -14.5q5 0 5 36q0 76 1 99.5t1 29.5q0 32 -1 47t-5.5 33t-16 25t-30.5 7h-11q-15 0 -18 1t-3 7v1q0 7 10 10.5t40.5 13t62.5 24.5q3 1 12 5.5t15.5 7t11.5 2.5q12 0 12 -20q0 -3 -6.5 -85t-6.5 -132q0 -103 -1 -223 t-1 -142q0 -68 6.5 -91t28.5 -30q3 -1 17 -3.5t20 -6t6 -11.5q0 -12 -77 -18q-16 -1 -37 -5.5t-26 -4.5q-11 0 -11 11q0 3 -1.5 15t-1.5 22q0 17 -9 17q-3 0 -14 -10l-27 -23q-15 -12 -43.5 -22t-61.5 -10q-93 0 -145 61.5t-52 147.5zM111 242q0 -76 46.5 -140t119.5 -64 q45 0 82 23t37 56l1 171q0 61 -28 77q-74 44 -119 44q-65 0 -102 -47.5t-37 -119.5z" />
<glyph unicode="e" horiz-adv-x="466" d="M39 194q0 100 56.5 169t146.5 69q42 0 76.5 -15t53.5 -36.5t32 -45.5t17.5 -39.5t4.5 -22.5q0 -18 -41 -18h-227h-30q-8 0 -9.5 -1.5t-1.5 -9.5q0 -94 50.5 -148t118.5 -54q42 0 85.5 22.5t45.5 22.5q10 0 10 -9q0 -4 -7 -14.5t-22 -24.5t-35 -27t-50 -22t-63 -9 q-88 0 -149.5 54t-61.5 159zM123 293q0 -14 13 -14q27 0 99 3t77 3q14 0 17.5 2.5t3.5 9.5q0 30 -28 70t-80 40q-48 0 -75 -39.5t-27 -74.5z" />
<glyph unicode="f" horiz-adv-x="345" d="M29 385q0 18 8.5 24t33.5 6h21q12 0 15 5.5t3 17.5q0 73 24 134.5t59.5 98t71.5 56.5t65 20q23 0 37.5 -7.5t14.5 -20.5q0 -4 -6 -28q-1 -3 -2 -7t-2 -6.5t-2 -5.5t-2 -4.5t-2.5 -3.5t-3 -3t-4 -1.5t-5.5 -0.5q-4 0 -9 6.5t-19.5 13t-42.5 6.5q-30 0 -51.5 -21 t-32.5 -56.5t-16 -72t-5 -77.5v-25q0 -19 12 -19q54 0 96 8q5 1 11.5 5.5t9.5 4.5q5 0 5 -8q0 -13 -14 -38q-6 -9 -25 -9q-22 0 -33.5 -0.5t-44.5 -0.5q-16 0 -16 -10v-58q0 -8 1 -47t2.5 -87t1.5 -64q0 -17 0.5 -24.5t4 -23t9.5 -23t18.5 -14t30.5 -6.5q17 0 17 -15 q0 -10 -11 -10q-1 0 -21 1t-44.5 2.5t-34.5 1.5q-18 0 -36 -2.5t-38 -2.5q-15 0 -15 14q0 5 12.5 10t24.5 18.5t12 40.5q0 7 -1 39.5t-2 96t-1 146.5q0 11 -3.5 13.5t-13.5 2.5q-5 0 -18 -1.5t-22 -1.5q-22 0 -22 13z" />
<glyph unicode="g" horiz-adv-x="488" d="M39 -97q0 27 18 45.5t36 27.5t18 12q0 2 -5 6l-12 9q-6 5 -11 17t-5 27q0 30 13 52t26 33t13 14q0 4 -10 13l-24 21q-13 11 -23.5 37.5t-10.5 62.5q0 23 7.5 46.5t25 49t54 41.5t86.5 16q39 0 67 -10t41.5 -20t17.5 -10q8 0 51 18q14 6 21 27t15 21q13 0 13 -8 q0 -24 -7 -51.5t-15 -39.5q-12 -19 -41 -31q11 -30 11 -50q0 -64 -48 -108t-117 -44q-26 0 -49.5 4.5t-27.5 4.5q-5 0 -13 -2t-20 -14t-12 -33q0 -34 31 -43t103 -9h46q145 0 145 -88q0 -31 -7 -47q-19 -49 -78 -78t-137 -29q-45 0 -84 8.5t-70.5 34.5t-31.5 67zM97 -91 q0 -44 37 -66.5t91 -22.5q62 0 111.5 25.5t49.5 65.5q0 18 -8 29t-27 15.5t-33.5 5.5t-42.5 1h-9q-32 0 -78 7l-45 7q-10 0 -28 -20t-18 -47zM138 290q0 -60 28.5 -100t71.5 -40q45 0 69 34.5t24 84.5q0 56 -28 99t-76 43q-37 0 -63 -31.5t-26 -89.5z" />
<glyph unicode="h" horiz-adv-x="587" d="M20 697q0 8 10.5 13.5t30 10.5t28.5 9q63 28 72 28q13 0 13 -23q0 -5 -3.5 -24t-3.5 -38q-1 -90 -2.5 -152.5t-2.5 -84t-1.5 -35.5t-0.5 -22q0 -19 8 -19q2 0 20.5 18.5t51 37t69.5 18.5q81 0 126 -48t45 -149v-145q0 -10 2 -21.5t10 -23.5t21 -13q54 -5 54 -21t-31 -16 q-5 0 -38.5 2.5t-45.5 2.5q-9 0 -41.5 -1.5t-35.5 -1.5q-23 0 -23 10q0 11 8.5 14.5t18.5 3.5t18.5 11t8.5 34q0 4 0.5 10t0.5 16.5t0.5 46.5t0.5 93q0 61 -37 105.5t-87 44.5q-47 0 -97 -39q-18 -14 -23 -45.5t-5 -139.5v-23q0 -45 7.5 -72.5t32.5 -38.5q8 -3 22 -4 t21.5 -3.5t7.5 -10.5q0 -12 -11 -12l-26 1q-26 1 -52.5 2.5t-28.5 1.5q-7 0 -35 -2.5t-36 -2.5q-13 0 -19.5 1.5t-7 3t-0.5 5.5q0 10 12 13q29 8 37.5 25.5t8.5 51.5l4 341v49q0 151 -8 175q-7 21 -34 21h-13l-4 1q-17 0 -17 10z" />
<glyph unicode="i" horiz-adv-x="284" d="M36 381q0 5 2.5 8t10 6.5t15.5 6t23.5 8t29.5 11.5l21 9q9 4 12 5.5t7 2.5t10 1q15 0 15 -19q0 -5 -3 -22t-3 -26v-274q0 -30 9.5 -47t20 -21t26.5 -5q12 -1 16 -1.5t9 -3.5t5 -10q0 -17 -17 -17q-2 0 -7 0.5t-8 0.5q-22 0 -37 1t-34 1q-24 0 -45 -1t-26 -1q-40 0 -40 13 q0 14 15 19q1 0 4 1q23 8 28 20q9 20 9 159v88q0 29 -7 46t-13 21t-20.5 6.5t-17.5 3.5q-10 4 -10 10zM93 590q0 12 17.5 33.5t32.5 21.5q16 0 31 -20.5t15 -36.5t-19 -35.5t-28 -19.5q-20 0 -34.5 21t-14.5 36z" />
<glyph unicode="j" horiz-adv-x="281" d="M116 591q0 14 15.5 32.5t31.5 18.5q17 0 32.5 -17.5t15.5 -33.5t-17.5 -34.5t-26.5 -18.5q-20 0 -35.5 19.5t-15.5 33.5zM23 -137q0 29 22 29q11 0 31 -21.5t27 -21.5q13 0 18 33.5t5 127.5v304q0 12 -1.5 19.5t-6 18t-18 16t-33.5 5.5q-16 0 -16 10q0 6 9 9l32 9 q23 7 47 18q44 21 47 21q12 0 12 -23v-11q0 -8 -1 -25t-1 -22v-324q0 -55 -10 -104t-41.5 -90t-80.5 -41q-39 0 -39 27q0 5 -1 18t-1 18z" />
<glyph unicode="k" horiz-adv-x="545" d="M0 689q0 11 49 26q7 2 16.5 5t11.5 3.5t7.5 2.5t6 2.5t5 2.5t6.5 3.5t8 5t12 7.5q21 13 33 13q14 0 14 -19q0 -2 -1 -11.5t-2.5 -28t-2.5 -45t-2 -71t-1 -97.5q0 -34 -1.5 -102.5t-1.5 -102.5v-21q0 -42 4 -42q6 0 10.5 3t11 10t10.5 10q140 112 140 127q0 13 -22.5 22 t-22.5 17q0 10 12 10q2 0 8 -0.5t10 -0.5q44 1 90.5 3t56.5 2q26 0 26 -9q0 -7 -6 -10t-16 -4.5t-29 -8.5t-39 -20l-6 -4q-3 -2 -6.5 -5t-12.5 -10l-22 -16l-37 -28q-47 -36 -55 -43t-8 -15t11 -23q91 -111 156 -168q27 -24 54.5 -31t39.5 -7t12 -9q0 -12 -8.5 -14.5 t-32.5 -2.5q-7 0 -53 0.5t-51 0.5q-8 0 -26 15.5t-44 44.5l-43 50l-44 53q-26 32 -27 34q-4 6 -11 6q-10 0 -20.5 -14t-10.5 -32q0 -2 0.5 -7.5t0.5 -9.5q0 -11 1 -28q2 -48 7 -54q1 -1 3 -4l7 -9q8 -11 41.5 -17t33.5 -15q0 -16 -31 -16q-2 0 -40 3t-57 3q-13 0 -31.5 -2 t-41.5 -2q-24 0 -24 12q0 10 25 17q23 9 29 26t6 66q0 11 0.5 26t0.5 18l1 444q0 75 -47 75q-3 0 -9.5 -0.5t-10.5 -0.5q-20 0 -20 11z" />
<glyph unicode="l" horiz-adv-x="279" d="M20 693q0 6 1.5 9t6.5 5.5t11.5 4t20.5 6t28 10.5q8 3 25 11t29.5 12.5t21.5 4.5q12 0 12 -19q0 -4 -2 -23.5t-4 -54t-2 -74.5v-56q0 -47 -1 -79.5t-1 -53.5v-298q0 -21 3.5 -34.5t23 -26t54.5 -12.5q5 0 9 -5t4 -10q0 -14 -31 -14q-9 0 -46.5 3.5t-54.5 3.5 q-26 0 -49.5 -4t-31.5 -4q-7 0 -11.5 3.5t-4.5 6.5q0 8 4.5 11.5t15 6t14.5 4.5q17 8 22 22t5 43q0 4 -0.5 12.5t-0.5 13.5v74q0 37 2 196.5t2 228.5q0 23 -7.5 41.5t-16.5 22.5t-40 4q-11 0 -11 8z" />
<glyph unicode="m" horiz-adv-x="827" d="M31 388q0 9 12 13.5t36 9.5t40 12q6 2 13 6t10.5 5.5t9 2.5t11.5 1q12 0 12 -29q0 -7 -2.5 -23t-2.5 -19q0 -12 6 -12q1 0 6.5 7.5t15 18t23.5 21t37.5 18t52.5 7.5q37 0 64 -12.5t37.5 -27t17.5 -27t9 -12.5q1 0 18.5 20.5t50 41t68.5 20.5q73 0 112.5 -43t46.5 -107 q6 -59 6 -127v-32q0 -45 5 -65t23 -26q1 0 9 -2l14 -2q5 -1 10 -5t5 -10q0 -15 -33 -15q-6 0 -30.5 2t-35.5 2q-15 0 -38.5 -2t-33.5 -2q-24 0 -24 10q0 11 21 19t25 17q4 11 4 46v16q0 34 -0.5 59.5t-0.5 47t-1.5 37.5t-1.5 27.5t-3 21t-3.5 14.5t-5.5 12t-6 9t-7.5 10 t-8.5 10q-26 31 -75 31q-23 0 -48 -12t-40 -24.5t-15 -17.5q0 -3 1.5 -14t3 -39.5t1.5 -73.5v-85q0 -46 13 -67.5t56 -27.5q10 -1 14 -6.5t4 -9.5q0 -11 -19 -11q-7 0 -32 2.5t-41 2.5q-10 0 -49 -2.5t-42 -2.5q-22 0 -22 13q0 7 4 10.5t19 9.5q6 2 9.5 4t8.5 17t5 41v8 q0 4 0.5 10.5t0.5 29.5v61q0 22 -0.5 35.5t-0.5 17.5t-0.5 6.5t-0.5 3.5q0 53 -27 85t-75 32q-42 0 -75 -22t-33 -51v-14v-188q0 -36 13 -55t29 -21.5t29 -5.5t13 -10q0 -9 -3 -12t-18 -3q-4 0 -31.5 1.5t-52.5 1.5q-23 0 -49 -1.5t-30 -1.5q-24 0 -24 15q0 7 5.5 10t12.5 4 t15 8.5t13 21.5q8 28 8 152q0 19 -0.5 60t-0.5 62q0 24 -10.5 34t-23 9.5t-23 2t-10.5 12.5z" />
<glyph unicode="n" horiz-adv-x="591" d="M31 390q0 6 6.5 9t21.5 5t21 4q19 5 39.5 13.5t33 14.5t16.5 6h2q9 0 9 -12q0 -2 -1 -18t-1 -25q0 -26 5 -26q3 0 7 5.5t14.5 16t25.5 19.5q45 28 87 28q40 0 72 -12.5t50 -31t30 -42.5t16 -44t4 -38v-10q0 -5 0.5 -13.5t0.5 -39.5v-80v-22q0 -38 10.5 -52.5t50.5 -20.5 q20 -3 20 -15q0 -10 -20 -10q-23 0 -48 2.5t-34 2.5q-14 0 -43.5 -2t-33.5 -2q-20 0 -20 13q0 5 3.5 8t8 4t8.5 2l5 1q22 7 22 67v135q0 77 -38 116.5t-91 39.5q-43 0 -75 -23t-37 -38q-9 -25 -9 -158v-38q0 -50 10.5 -74t46.5 -27q10 0 25.5 -3.5t15.5 -11.5q0 -13 -19 -13 q-17 0 -33 2t-40 2q-26 0 -69 -2l-43 -2q-15 0 -15 10q0 8 5 10t12.5 3t15 6t13.5 24.5t7 52.5q2 56 2 75v144q0 32 -11.5 43t-31.5 11h-10q-19 0 -19 11z" />
<glyph unicode="o" horiz-adv-x="547" d="M39 203q0 92 62.5 160t173.5 68q94 0 163.5 -59t69.5 -163q0 -106 -71.5 -166.5t-168.5 -60.5q-108 0 -168.5 65.5t-60.5 155.5zM118 237q0 -103 55 -164t125 -61q57 0 96 43.5t39 123.5q0 88 -48 156.5t-134 68.5q-52 0 -92.5 -41t-40.5 -126z" />
<glyph unicode="p" horiz-adv-x="555" d="M31 385q0 5 8.5 8t34.5 11t55 22q39 19 42 19q13 0 13 -13q0 -21 -2 -38.5t-2 -20.5q0 -8 3 -8q1 0 9 7l19 18q12 10 28.5 20t41.5 17t52 7q89 0 136 -58.5t47 -142.5q0 -93 -58.5 -167.5t-156.5 -74.5q-46 0 -74.5 9.5t-39.5 19t-15 9.5q-3 0 -3 -8v-110v-13 q0 -19 17 -47q11 -18 33.5 -21t38 -4t15.5 -14q0 -12 -34 -12q-6 0 -32 2t-72 2q-18 0 -38.5 -1.5t-24.5 -1.5q-22 0 -28 2t-6 8q0 9 9.5 13t21.5 7t21.5 24.5t9.5 62.5v20q0 118 1.5 196t1.5 80v22q0 83 -7.5 110.5t-39.5 27.5q-17 0 -21 2.5t-4 8.5zM169 192 q0 -10 0.5 -25t0.5 -25q0 -35 15 -60t38.5 -37.5t47 -18t46.5 -5.5q65 0 99.5 47.5t34.5 116.5q0 79 -42.5 139t-114.5 60q-51 0 -91 -32q-21 -16 -27.5 -43.5t-6.5 -116.5z" />
<glyph unicode="q" horiz-adv-x="559" d="M39 176q0 65 23 116t60 80.5t79 44.5t86 15q17 0 33 -3t29 -7.5t24.5 -10t20 -10.5t14.5 -9l10 -8l3 -3q4 0 20 32t29 32q9 0 9 -16q0 -9 -2.5 -27.5t-4.5 -60.5t-2 -109q0 -81 1.5 -124t1.5 -188q0 -32 7.5 -52.5t18.5 -28t21.5 -10.5t18 -6t7.5 -10q0 -12 -18 -12 q-2 0 -11 0.5t-25 0.5h-34q-30 0 -50.5 -1t-27.5 -1.5t-12 -1.5t-8 -1q-24 0 -24 15q0 7 9 10.5t22.5 5.5t19.5 6q7 5 9.5 20t2.5 65q0 24 1 54.5t1 37.5q0 46 -6 46q-5 0 -17 -13l-28 -28q-15 -15 -46.5 -27.5t-70.5 -12.5q-73 0 -121 40q-73 61 -73 160zM109 217 q0 -64 29.5 -109t64.5 -62t67 -17q44 0 72 11t39.5 30.5t14.5 34t3 34.5v163q0 40 -44.5 70.5t-90.5 30.5q-22 0 -45.5 -8.5t-49.5 -27.5t-43 -58t-17 -92z" />
<glyph unicode="r" horiz-adv-x="375" d="M22 380q0 11 13.5 16.5t50 17t68.5 26.5q10 4 14 4q13 0 13 -20q0 -4 -0.5 -13t-0.5 -14q0 -21 1 -30t2.5 -11t4.5 -2q2 0 15 20t37 40.5t53 20.5q18 0 47 -19q21 -14 21 -29q0 -18 -8 -32t-15.5 -19t-10.5 -5q-8 0 -28.5 12t-47.5 12t-50.5 -22t-23.5 -40v-104 q0 -36 0.5 -58.5t0.5 -28t0.5 -9.5t0.5 -9q0 -21 14 -36t33 -18q6 -1 15 -2t14 -1.5t11 -2t8.5 -4.5t2.5 -7q0 -16 -12 -16q-17 0 -46 2.5t-39 2.5q-32 0 -66 -2.5t-38 -2.5q-10 0 -15 2t-6 4t-1 6q0 13 13 17q26 6 31.5 25.5t5.5 83.5q0 65 -0.5 107t-0.5 53.5t-0.5 18.5 t-0.5 12q0 11 -3 18t-14.5 13t-32.5 6q-1 0 -5 0.5t-6 0.5q-19 0 -19 16z" />
<glyph unicode="s" horiz-adv-x="393" d="M55 43v87q0 11 4.5 18.5t10.5 7.5q10 0 13.5 -4.5t6.5 -18.5t6 -20q37 -92 104 -92q31 0 59 16.5t28 54.5q0 33 -23 55t-56 35l-66 26q-33 13 -56 39.5t-23 66.5q0 56 45 90t106 34q47 0 75 -8.5t33.5 -15.5t5.5 -13q0 -1 2 -27t2 -33q0 -17 -4 -23t-14 -6q-5 0 -14 14 l-18 32q-11 17 -34.5 31.5t-54.5 14.5q-29 0 -48 -14.5t-19 -36.5q0 -12 3 -22.5t11 -18.5l12 -14q6 -5 19 -11t19.5 -8.5t22 -8t20.5 -7.5q72 -27 97 -56.5t25 -87.5q0 -56 -53 -104q-36 -31 -99 -31q-18 0 -38 4t-31.5 7.5t-26.5 9.5t-16 6q-4 1 -9.5 3t-8 2.5t-6.5 2.5 t-5.5 3.5t-3.5 4.5t-2.5 7t-0.5 9z" />
<glyph unicode="t" horiz-adv-x="342" d="M27 384q0 6 3.5 10.5t9.5 8.5t17.5 13.5t22.5 21.5q15 16 31.5 38.5t26 33t18.5 10.5q11 0 11 -23q0 -9 -2 -28t-2 -29q0 -14 5.5 -17t35.5 -3h35q22 0 37.5 2t21.5 5t10.5 5t7.5 2q10 0 10 -11q0 -8 -13 -31.5t-19 -23.5q-15 0 -29 0.5t-24 1t-19 1.5t-15 1.5t-10.5 1 t-6.5 0.5l-2 1q-19 0 -24.5 -6t-5.5 -27q0 -11 -2 -83.5t-2 -102.5q0 -65 16.5 -90.5t69.5 -25.5q21 0 46.5 9.5t27.5 9.5q10 0 10 -12q0 -14 -34.5 -35.5t-74.5 -21.5q-135 0 -135 117v15q0 39 1 95t2 96.5t1 41.5q0 10 -4 13t-17 3q-4 0 -10.5 -0.5t-8.5 -0.5 q-17 0 -17 14z" />
<glyph unicode="u" horiz-adv-x="576" d="M29 394q0 7 4.5 11.5t19.5 7.5t43 3q7 0 31 2.5t26 2.5q17 0 20 -7t3 -43q0 -20 -2.5 -68.5t-2.5 -107.5q0 -88 34 -124.5t77 -36.5q64 0 93 27t29 95l-2 138q0 50 -8 67.5t-38 20.5q-22 2 -22 13q0 23 88 23q8 0 20 2.5t16 2.5q15 0 19.5 -5t4.5 -23q0 -1 -0.5 -15.5 t-1 -38.5t-1.5 -54t-1.5 -69.5t-0.5 -77.5q0 -61 6 -83t22 -22q5 0 13.5 0.5t12.5 0.5q24 0 24 -13q0 -11 -7 -14t-30 -3q-17 0 -57.5 -5.5t-43.5 -5.5q-7 0 -11.5 25.5t-6.5 25.5q-1 0 -19 -16t-51.5 -32t-73.5 -16q-161 0 -161 174q0 97 0.5 137.5t0.5 42.5q0 20 -10.5 32 t-19.5 12h-18q-18 0 -18 14z" />
<glyph unicode="v" horiz-adv-x="523" d="M20 416q0 11 19 11q2 0 11.5 -1t25.5 -2t34 -1q14 0 29 -0.5t29 -0.5q7 0 20.5 1.5t18.5 1.5q18 0 18 -11q0 -17 -24 -17q-42 0 -42 -28q0 -6 2.5 -15t9 -24.5t13.5 -30.5l20 -43l24 -52q6 -12 20 -45t22 -48.5t12 -15.5q10 0 61 121t51 144q0 20 -9.5 28.5t-21.5 7 t-21.5 2t-9.5 14.5q0 13 31 13q7 0 29.5 -0.5t37.5 -0.5q11 0 26.5 0.5t19.5 0.5q17 0 22.5 -3t5.5 -12q0 -5 -5 -8t-15 -9.5t-19 -18.5q-25 -34 -72 -134l-86 -177q-39 -77 -54 -77q-10 0 -16 10.5t-28 61.5l-90 206q-25 55 -46 88.5t-31.5 40.5t-16 11.5t-5.5 11.5z" />
<glyph unicode="w" horiz-adv-x="748" d="M20 416q0 11 19 11q2 0 11.5 -1t25.5 -2t34 -1q14 0 24 0.5t25 0.5q30 0 38.5 -1.5t8.5 -9.5t-11 -10.5t-22 -10t-11 -26.5q0 -36 56 -162q7 -14 19 -43.5t19 -43t11 -13.5t40 69l15 27l11 22l9 18q5 9 7 14l5 10l3 8q1 3 2 7.5t1 7.5v7q0 7 -9.5 30t-19.5 38 q-11 16 -23 26t-18.5 12.5t-11 5.5t-4.5 9q0 9 15 9q27 0 40 -1t81 -1q14 0 20 0.5t11 0.5q22 0 22 -14q0 -3 -0.5 -5t-3 -3t-4.5 -1.5t-7 -0.5q-30 -2 -30 -28q0 -37 59 -167q8 -16 19 -44t17.5 -42.5t10.5 -14.5q10 0 52.5 109.5t42.5 143.5q0 18 -8.5 27.5t-19 11t-19 6 t-8.5 13.5q0 8 21 8h115q19 0 24 -2t5 -11t-16.5 -15.5t-27.5 -21.5q-9 -13 -17 -29.5t-18 -41t-40 -90.5l-69 -151l-15 -32l-12 -21q-6 -12 -10.5 -16t-8.5 -4q-17 0 -64 129.5t-55 129.5q-3 0 -64 -128t-80 -128q-8 0 -15 14t-32 79l-72 182l-15 41q-8 24 -12.5 33.5 t-16 25t-30.5 31.5q-3 3 -6.5 5t-5.5 3t-4 2.5t-2.5 4t-0.5 5.5z" />
<glyph unicode="x" horiz-adv-x="548" d="M29 14q0 5 3 7t16 6.5t27 13.5q17 11 35.5 26t37.5 34l31 31l30.5 34t22.5 25q4 6 4 11q0 4 -12 18l-34 42l-39 49q-23 30 -46 50.5t-31 21.5q-19 4 -31 12.5t-12 17.5q0 12 14 12q21 0 40 -2.5t38 -2.5q16 0 41.5 2t39.5 2q16 0 21 -3t5 -10q0 -6 -16.5 -12t-16.5 -17 q0 -5 4 -12t14 -20l13 -18l21 -30q21 -30 28.5 -39.5t11.5 -9.5q3 0 10 8q70 89 73 97q3 6 3 15q0 15 -23 24t-23 15q0 12 26 12q9 0 29.5 -0.5t33.5 -0.5q8 0 30.5 1t38.5 1q7 0 13 -4t6 -9q0 -6 -5.5 -9.5t-15 -6t-27.5 -14t-37 -30.5q-115 -115 -115 -126q0 -3 10 -14 l81 -95q1 -2 10.5 -13.5t13.5 -15.5l13 -16q10 -10 17 -16l17 -12q9 -8 19 -13t20 -8q5 -1 7 -2t3.5 -3.5t1.5 -6.5q0 -7 -6 -9.5t-28 -2.5q-5 0 -25 1t-34 1q-12 0 -31 -1t-28 -1h-11q-34 0 -34 10q0 5 17.5 11t17.5 18q0 13 -14 33t-38 49t-36 46q-6 9 -9 9q-1 0 -11 -10 l-29 -35l-26 -30q-8 -10 -15 -22.5t-7 -23.5q0 -15 7.5 -22t16 -7.5t16 -4t7.5 -12.5q0 -4 -1.5 -5.5t-10.5 -2.5t-29 -1q-8 0 -24 1.5t-28 1.5q-10 0 -28 -2t-25 -2q-44 0 -44 16z" />
<glyph unicode="y" horiz-adv-x="498" d="M20 412q0 12 20 12q28 0 57.5 -1t49.5 -1q17 0 30.5 1t26.5 1q7 0 12.5 -3.5t5.5 -7.5q0 -18 -24 -18h-15q-16 0 -16 -28q0 -22 43 -117q3 -8 5 -12l5 -12l7 -15l20 -45q14 -32 21.5 -47t11.5 -15q6 0 46.5 115t40.5 139q0 20 -9.5 29t-21.5 8.5t-21.5 3t-9.5 14.5 q0 12 19 12q15 0 39.5 -0.5t32.5 -0.5q10 0 34.5 0.5t27.5 0.5q21 0 21 -13q0 -10 -17.5 -14.5t-23.5 -12.5q-16 -23 -54 -126l-89 -237l-22 -60l-18 -49l-14 -38l-11 -29q-4 -11 -8.5 -20t-8 -12.5t-6.5 -3.5h-3q-3 0 -13 -0.5t-30 -0.5q-19 0 -19 13q0 3 22.5 31t45.5 69 t23 75q0 29 -57 153t-99 203q-11 20 -22.5 31t-18.5 12t-11.5 4t-4.5 12z" />
<glyph unicode="z" horiz-adv-x="378" d="M40 15q0 5 0.5 8.5t1.5 6t4 7.5t6 9l10 14l12 17q183 264 183 279q0 5 -23 5q-12 0 -61.5 -3.5t-60.5 -3.5q-18 -1 -30.5 -15t-19.5 -28t-12 -14q-8 0 -8 11q0 18 2.5 37t6.5 39.5t4 23.5q2 18 20 18q3 0 17 -1t38 -1.5t52 -0.5q31 0 79 1.5t68 1.5q12 0 12 -10 q0 -7 -5.5 -15.5t-13.5 -18t-10 -12.5l-94 -140l-76 -110q-24 -35 -24 -47q0 -9 49 -9q11 0 28 0.5t21 0.5q26 0 44 3.5t27.5 11t13.5 13t8.5 17.5t6.5 16q7 14 17 14q16 0 16 -14q0 -6 -24 -61q-3 -7 -6.5 -20t-6 -21.5t-7 -15t-11.5 -6.5h-114q-6 0 -31.5 -0.5t-41.5 -0.5 h-17q-17 0 -24 -1h-7q-19 0 -19 15z" />
<glyph unicode="{" horiz-adv-x="273" d="M42 267q0 16 18.5 26.5t18.5 27.5q0 63 -2 201t-2 212q0 18 18 18q9 0 29 -4t33 -4q20 0 40 3t27 3q18 0 18 -10q0 -24 -36.5 -39.5t-63.5 -15.5q-7 0 -7 -9q0 -50 -1 -140.5t-1.5 -160.5t-0.5 -120q0 -43 1.5 -170t1.5 -190q0 -4 11 -7t30.5 -7.5t32.5 -11.5 q34 -19 34 -41q0 -9 -8 -9q-1 0 -11 2.5t-26.5 4.5t-34.5 2q-31 0 -50 -7t-25 -7q-12 0 -12 12q0 67 1.5 194t1.5 182q0 22 -17.5 36.5t-17.5 28.5z" />
<glyph unicode="|" horiz-adv-x="209" d="M78 -87q0 75 3 314t3 343v82q0 38 -0.5 59.5t-0.5 26.5q0 13 5.5 18.5t19.5 5.5q13 0 17.5 -5.5t4.5 -19.5q0 -3 -0.5 -10.5t-0.5 -12.5t0.5 -24.5t1 -54.5t0.5 -76q0 -79 -2.5 -277t-2.5 -272q0 -97 1 -147q0 -2 0.5 -11t0.5 -15v-8q0 -38 -17 -38q-22 0 -27.5 10 t-5.5 51v61z" />
<glyph unicode="}" horiz-adv-x="273" d="M32 -172q0 22 34 41q13 7 32.5 11.5t30.5 7.5t11 7q0 63 1.5 190t1.5 170q0 50 -0.5 120t-1.5 160.5t-1 140.5q0 9 -7 9q-27 0 -63.5 15.5t-36.5 39.5q0 10 18 10q7 0 27 -3t40 -3q13 0 33 4t29 4q18 0 18 -18q0 -74 -2 -212t-2 -201q0 -17 18.5 -27.5t18.5 -26.5 q0 -14 -17.5 -28.5t-17.5 -36.5q0 -55 1.5 -182t1.5 -194q0 -12 -12 -12q-7 0 -26 7t-49 7q-18 0 -34.5 -2t-26.5 -4.5t-11 -2.5q-8 0 -8 9z" />
<glyph unicode="~" horiz-adv-x="380" d="M29 172q0 4 14 25.5t40 44.5t51 23q23 0 58.5 -22.5t58.5 -22.5q21 0 38.5 12t27.5 24.5t14 12.5q20 0 20 -15q0 -5 -15 -25.5t-44 -42.5t-58 -22q-28 0 -60.5 23t-52.5 23t-36 -13.5t-24.5 -27t-11.5 -13.5q-20 0 -20 16z" />
<glyph unicode="&#xa1;" horiz-adv-x="276" d="M59 615q0 8 6.5 14.5t17.5 14t14 10.5q4 4 11 14t13.5 15.5t12.5 5.5t19.5 -11t21.5 -22q3 -4 12 -12t15 -15.5t6 -15.5q0 -3 -1.5 -5.5t-4.5 -5.5l-6 -6l-8 -6q-5 -5 -9 -8q-4 -4 -12 -14.5t-16 -17t-16 -6.5q-6 0 -24 18q-11 12 -22 21t-17 13t-9.5 8.5t-3.5 10.5z M83 20q0 3 0.5 7t2 13.5t2.5 18.5q4 34 12.5 161.5t23.5 246.5q2 11 13 11q12 0 12 -10q9 -103 13 -163.5t4 -75.5l2 -29q0 -14 1 -30q10 -140 10 -145q0 -18 -13.5 -28t-36.5 -10q-46 0 -46 33z" />
<glyph unicode="&#xa2;" horiz-adv-x="452" d="M39 192q0 75 41.5 137.5t111.5 86.5q9 3 18 5.5t12 2.5t6 2.5t3 5.5v13v36q0 10 16 10q24 0 24 -9v-46q0 -3 0.5 -4.5t2.5 -2t4.5 -1t8 -0.5t11.5 -0.5t16 -2t21 -3.5q22 -3 40 -13q10 -6 13 -15q2 -11 2 -45q0 -44 -11 -44q-6 0 -10.5 5t-9 12.5t-21.5 20.5t-43 26 q-14 7 -19 7q-6 0 -6 -20q0 -110 -0.5 -181.5t-1 -95.5t-0.5 -34q0 -7 3 -10.5t14 -3.5q35 0 65 13t46.5 26t20.5 13q11 0 11 -10q0 -7 -14.5 -25t-51 -39.5t-82.5 -27.5q-7 -1 -9 -1.5t-3 -3t-1 -9.5v-58q0 -11 -21 -11q-17 0 -17 9v64q0 5 -0.5 6.5t-2.5 2.5t-6.5 1 t-10.5 0.5t-16.5 3t-23.5 6.5q-61 21 -95.5 72.5t-34.5 128.5zM114 224q0 -34 10.5 -65t25 -51t30.5 -35t28 -21.5t16 -6.5q5 0 5 15q0 127 1 316q0 10 -2.5 12t-14.5 2q-7 0 -18 -3.5t-25.5 -15t-26.5 -29t-20.5 -48.5t-8.5 -70z" />
<glyph unicode="&#xa3;" horiz-adv-x="557" d="M20 43q0 22 16.5 39.5t51.5 17.5q17 0 35.5 -5t30.5 -10.5t14 -5.5q5 4 12.5 26.5t7.5 43.5q0 48 -48 162q-1 2 -3 6.5t-3 5.5l-2 4q-1 3 -2 3.5t-3.5 1.5t-4.5 1h-7q-2 0 -27.5 -0.5t-52.5 -0.5q-14 0 -14 22q0 21 13 21h58q17 0 17 2q0 1 -7.5 22.5t-15.5 56t-8 66.5 q0 98 60 147.5t142 49.5q66 0 116.5 -30t50.5 -74q0 -16 -14.5 -33t-25.5 -17q-9 0 -14.5 9.5t-12.5 29t-15 31.5q-14 22 -42.5 35t-60.5 13q-48 0 -81.5 -28.5t-33.5 -85.5q0 -64 48 -173q5 -13 8.5 -16.5t10.5 -3.5h155q15 0 18 -3.5t3 -18.5q0 -9 -1 -12.5t-6 -6 t-16 -2.5h-122q-22 0 -22 -4q0 -1 6.5 -20.5t13.5 -49.5t7 -56q0 -15 -2 -30.5t-5.5 -28t-7.5 -24t-9 -20.5l-7 -16l-6 -12l-3 -5q62 -17 139 -17q47 0 82.5 16t50.5 34.5t26.5 34.5t15.5 16q13 0 13 -15q0 -12 -4.5 -29t-16.5 -39t-28.5 -41t-44.5 -31.5t-62 -12.5 q-82 0 -199 44q-1 0 -32 -19t-69 -19q-29 0 -45 16t-16 38zM58 44q0 -10 9.5 -18.5t23.5 -8.5q13 0 26.5 7t20 13.5t8.5 9.5q-3 4 -23 10t-37 6q-28 0 -28 -19z" />
<glyph unicode="&#xa4;" d="M20 44q0 12 18 30l68 69q-39 51 -39 119q0 66 38 117l-67 69q-18 18 -18 30t8 19.5t18 7.5q13 0 31 -18l69 -69q52 39 117 39t118 -39l69 69q17 17 30 17q12 0 19.5 -8t7.5 -18q0 -12 -18 -30l-69 -70q41 -56 41 -118q0 -61 -41 -116l69 -70q18 -18 18 -30t-8.5 -19.5 t-18.5 -7.5q-12 0 -30 18l-69 69q-52 -39 -118 -39t-117 38l-69 -68q-17 -17 -31 -17q-12 0 -19 8t-7 18zM124 260q0 -59 41 -99.5t98 -40.5t98.5 41.5t41.5 99.5t-41.5 100.5t-98.5 42.5q-58 0 -98.5 -42.5t-40.5 -101.5z" />
<glyph unicode="&#xa5;" horiz-adv-x="712" d="M20 688q0 11 11.5 14t50.5 3q6 0 27.5 -1t30.5 -1q11 0 40.5 0.5t44.5 0.5q50 0 50 -12q0 -11 -21 -18.5t-21 -16.5q0 -10 6.5 -26t12.5 -26l20 -29q13 -19 15 -23q32 -50 67.5 -98.5t40.5 -48.5h8q4 0 7.5 3t8.5 11l11 16l15 26q10 16 21 32q3 5 14 22l16 24l14 22 q9 14 13 22l9 18q6 10 8 17t2 13q0 20 -11.5 30t-25.5 10.5t-25.5 5t-11.5 15.5q0 12 28 12q5 0 18.5 -0.5t22.5 -0.5q23 0 55.5 -0.5t50.5 -0.5q49 0 49 -15q0 -4 -6 -7t-17 -8t-20 -12q-46 -37 -135 -176l-31 -47q-5 -7 -10.5 -14t-7.5 -10t-2 -5q0 -4 112 -4q14 0 14 -23 q0 -20 -14 -20q-74 0 -105 -0.5t-32 -0.5q-8 0 -12.5 -5.5t-8 -30t-3.5 -71.5q0 -8 1.5 -10.5t7.5 -2.5q1 0 6 0.5t8 0.5h125q16 0 19.5 -4.5t3.5 -18.5q0 -8 -1 -12t-6.5 -7t-17.5 -3q-29 0 -74 -0.5t-55 -0.5q-11 0 -14 -2t-3 -11v-7q0 -7 0.5 -18.5t0.5 -24.5v-24 q0 -33 11.5 -52.5t21.5 -23.5t20 -4q2 0 10 -2t10 -2q15 0 15 -11q0 -14 -18 -14q-20 0 -52 0.5t-45 0.5q-29 0 -72.5 -2.5t-46.5 -2.5q-25 0 -25 12q0 9 4.5 12t17 4t18.5 3q42 13 42 62l1 37q1 36 1 57q0 10 -3 12t-14 2h-63q-21 0 -47 0.5t-28 0.5q-14 0 -14 22 q0 21 13 21h21h99h15q14 0 18 3t4 14q0 2 -0.5 13t-0.5 21q0 26 -7 46.5t-20 21.5q-2 0 -7 0.5t-8 0.5h-100q-16 0 -20 5t-4 18q0 8 1 11.5t7 6.5t18 3q91 0 91 3q0 1 -14 23l-98 146q-30 44 -54 67t-37 27t-31 4q-25 0 -25 13z" />
<glyph unicode="&#xa6;" horiz-adv-x="208" d="M78 -148q0 13 0.5 29t0.5 37t0.5 88t0.5 170q0 25 26 25q13 0 17 -5.5t4 -19.5v-184q0 -72 0.5 -93.5t0.5 -38.5v-31q0 -38 -17 -38q-22 0 -27.5 10t-5.5 51zM83 414v324q0 13 5.5 18.5t19.5 5.5q13 0 17.5 -5.5t4.5 -19.5v-346q0 -38 -16 -38q-22 0 -26.5 9.5t-4.5 51.5 z" />
<glyph unicode="&#xa7;" horiz-adv-x="542" d="M59 275q0 32 10.5 58.5t25.5 42t29.5 26t25 16t10.5 7.5q0 3 -14 12l-30 20q-16 11 -30 36.5t-14 58.5q0 73 55 120.5t137 47.5q48 0 86.5 -13.5t43.5 -13.5q2 0 10 3.5t13 3.5q17 0 18 -10q20 -131 20 -135q0 -29 -13 -29q-11 0 -18 15t-12.5 35.5t-25.5 46t-53 42.5 q-34 18 -84 18q-57 0 -86.5 -32t-29.5 -66q0 -41 47 -68q23 -13 67.5 -28.5t81.5 -30t74 -36t58.5 -56t21.5 -79.5q0 -32 -6 -55t-12.5 -34t-21.5 -31q-7 -10 -14.5 -17t-11.5 -9.5t-7 -5t-3 -4.5q0 -3 9.5 -8t24.5 -19.5t25 -38.5q13 -33 13 -56q0 -88 -62 -139t-157 -51 q-45 0 -78 7t-78 31q-15 8 -29.5 75t-14.5 84q0 24 15 24q13 0 18 -12l3 -8l6 -16l10 -22q6 -14 14 -26l19 -26q10 -14 23 -25.5t28 -21t33.5 -14.5t38.5 -5q63 0 109 29.5t46 83.5q0 28 -27 50t-67.5 36t-87.5 33t-87.5 39.5t-67.5 56.5t-27 83zM119 307q0 -48 58 -82 q14 -9 60 -27t85 -31.5t42 -13.5q15 0 39 32.5t24 67.5q0 70 -112 114q-97 37 -108 37q-18 0 -53 -28t-35 -69z" />
<glyph unicode="&#xa8;" horiz-adv-x="439" d="M103 591q0 14 15.5 32.5t31.5 18.5q17 0 32.5 -17.5t15.5 -33.5t-17.5 -34.5t-25.5 -18.5q-20 0 -36 19.5t-16 33.5zM263 591q0 14 15.5 32.5t31.5 18.5q17 0 32.5 -17.5t15.5 -33.5t-17.5 -34.5t-26.5 -18.5q-20 0 -35.5 19.5t-15.5 33.5z" />
<glyph unicode="&#xa9;" horiz-adv-x="796" d="M44 335q0 146 103.5 251.5t252.5 105.5q148 0 252 -105.5t104 -251.5q0 -145 -103 -250.5t-254 -105.5q-145 0 -250 103.5t-105 252.5zM86 335q0 -131 93 -222.5t221 -91.5t221 91t93 224q0 127 -91 220t-224 93q-131 0 -222 -92.5t-91 -221.5zM164 322q0 102 62.5 169.5 t174.5 67.5q38 0 76.5 -11t61 -22t23.5 -11q2 0 5 3t7 3q5 0 8 -2t4.5 -9t2 -14.5t2 -24.5t4.5 -33q2 -14 2 -16q0 -15 -13 -15q-8 0 -14 11q-59 107 -169 107q-75 0 -123 -46t-48 -121q0 -35 9.5 -68.5t30 -67.5t62.5 -55t99 -21q80 0 136 79q6 9 10.5 20t7.5 14.5t12 3.5 q7 0 7 -8q0 -25 -12 -83q-2 -10 -13 -14l-27 -14q-20 -9 -31 -13.5t-29 -10.5t-37 -8.5t-40 -2.5q-63 0 -110.5 17t-73.5 40.5t-42 55t-20.5 55t-4.5 45.5z" />
<glyph unicode="&#xaa;" horiz-adv-x="302" d="M29 446q0 49 62 69q22 7 88 18q11 2 11 9q0 6 0.5 15t0.5 14q0 34 -19.5 49.5t-38.5 15.5q-43 0 -43 -35q0 -4 1.5 -11.5t1.5 -9.5q0 -12 -14 -12q-5 0 -11.5 1t-15 3t-14 7.5t-5.5 12.5q0 25 34.5 46.5t77.5 21.5q35 0 58 -8t31 -22.5t10 -23.5t2 -22q0 -44 -2 -70 t-2 -44q0 -35 6 -46t19 -11q3 0 6 0.5t7 0.5q8 0 8 -10q0 -14 -17 -14h-24q-17 0 -29.5 10t-18.5 20l-6 10q-1 0 -5 -4.5t-11.5 -11t-17.5 -13t-23.5 -11t-28.5 -4.5q-78 0 -78 60zM88 460q0 -43 46 -43q26 0 39.5 12t15 22t1.5 25v40q0 5 -4 5q-1 0 -3 -0.5t-3 -0.5l-26 -4 q-6 -1 -22.5 -6t-23.5 -10t-13.5 -15.5t-6.5 -24.5z" />
<glyph unicode="&#xab;" horiz-adv-x="360" d="M152 216q0 6 6 11q144 121 147 122q5 0 10.5 -6.5t5.5 -11.5t-47.5 -57t-47.5 -57q0 -6 46.5 -58.5t46.5 -56.5q0 -5 -5 -11.5t-10 -6.5q-4 0 -46 37l-100 87q-6 4 -6 8zM20 216q0 5 6 11l91 78q51 44 55 44q5 0 10.5 -6.5t5.5 -11.5q0 -6 -46.5 -57.5t-46.5 -56.5 q0 -6 46.5 -57.5t46.5 -57.5q0 -5 -6 -11.5t-11 -6.5q-4 0 -55 45l-91 79q-5 3 -5 8z" />
<glyph unicode="&#xac;" d="M31 215q0 17 19 17h427q13 0 16.5 -3t3.5 -16v-158q0 -15 -16 -15q-12 0 -16.5 0.5t-8.5 5t-4 14.5v111q0 17 -26 17h-376q-13 0 -16 5.5t-3 21.5z" />
<glyph unicode="&#xad;" horiz-adv-x="340" d="M44 145v11q0 29 9.5 37t47.5 19q53 16 94 30.5t55.5 20t23.5 5.5q22 0 22 -34v-6q0 -9 -0.5 -14t-4 -10t-6 -7t-12 -6t-17.5 -6l-24 -7q-18 -5 -33 -10q-28 -9 -55 -19l-40 -15q-13 -4 -24 -7t-20 -3q-16 0 -16 21z" />
<glyph unicode="&#xae;" horiz-adv-x="478" d="M29 546q0 88 61 149.5t147 61.5q88 0 150 -61.5t62 -149.5q0 -86 -62 -147.5t-150 -61.5q-86 0 -147 61.5t-61 147.5zM59 546q0 -72 53 -124.5t125 -52.5q74 0 127.5 52.5t53.5 124.5q0 74 -53.5 127t-127.5 53q-72 0 -125 -53t-53 -127zM123 658q0 9 12 9h23q29 0 51 1 t25 1q37 0 62 -15.5t25 -48.5q0 -19 -11.5 -30.5t-22.5 -15.5t-11 -5t4 -5l9 -11q6 -7 9 -13q14 -25 37 -56q12 -15 21 -15h2q3 1 4 1q5 0 5 -4q0 -5 -6 -11t-19 -6q-14 0 -27 7q-15 9 -43 56.5t-36 49.5h-25q-7 0 -8.5 -3t-1.5 -19q0 -32 3 -50q5 -19 23 -22.5t18 -8.5 q0 -6 -7 -6q-1 0 -25 1t-26 1q-11 0 -28 -1l-17 -1q-7 0 -7 7q0 4 12.5 7t14.5 20q1 10 1 33v24q0 35 0.5 63t0.5 33q0 26 -30 26q-11 0 -11 7zM201 596q0 -20 2.5 -27t11.5 -7q5 0 8 -0.5t6 -0.5q30 0 41.5 9t11.5 34q0 15 -15.5 31.5t-48.5 16.5q-11 0 -14 -4t-3 -19v-33z " />
<glyph unicode="&#xaf;" horiz-adv-x="439" d="M113 589q0 19 16 19q77 0 110.5 -1t70.5 -1q9 0 12 -5t3 -24q0 -8 -5 -11t-9 -3q-7 0 -87.5 0.5t-100.5 0.5q-10 0 -10 25z" />
<glyph unicode="&#xb0;" horiz-adv-x="259" d="M30 611q0 35 29.5 68.5t72.5 33.5q48 0 73 -35.5t25 -71.5q0 -47 -37.5 -74.5t-61.5 -27.5q-31 0 -53 12t-31.5 31t-13 34t-3.5 30zM72 610q0 -28 16.5 -45t42.5 -17q8 0 19.5 4t24.5 18.5t13 37.5q0 61 -57 61q-21 0 -40 -17.5t-19 -41.5z" />
<glyph unicode="&#xb1;" d="M31 90q0 11 0.5 15.5t4.5 8t13 3.5h429q11 0 14.5 -4t3.5 -16q0 -13 -3.5 -18.5t-17.5 -5.5h-427q-9 0 -13 3t-4 14zM31 324q0 22 18 22h181q11 0 11 10v9v130q0 15 16 15q18 0 23 -3t5 -14v-128v-8q0 -11 12 -11h183q16 0 16 -15q0 -12 -1 -17t-5.5 -9t-14.5 -4h-178 q-12 0 -12 -17v-132q0 -14 -16 -14q-17 0 -22.5 2.5t-5.5 11.5v132q0 10 -2.5 13.5t-13.5 3.5h-177q-12 0 -14.5 5t-2.5 18z" />
<glyph unicode="&#xb2;" horiz-adv-x="337" d="M42 404v2q0 6 17.5 25.5t51 68t64.5 113.5q27 57 27 110q0 25 -16.5 40.5t-45.5 15.5q-26 0 -45 -9t-29 -18t-14 -9q-5 0 -5 9q0 3 4 11t14 19.5t23 22t34 18t44 7.5q39 0 69 -21.5t30 -60.5q0 -46 -38 -115t-76 -120t-38 -53q0 -5 26 -5h14h47q16 0 27.5 1t13 1t7 2.5 t6.5 3.5q10 4 24 17.5t18 13.5q7 0 7 -6l-43 -79q-9 -13 -21 -13q-43 0 -70 1t-37 1q-7 0 -34 -0.5t-36 -0.5q-20 0 -20 7z" />
<glyph unicode="&#xb3;" horiz-adv-x="337" d="M40 429q0 10 13 10q3 0 10.5 -6.5t24 -13.5t39.5 -7q52 0 79.5 39t27.5 78q0 37 -20 61t-67 24q-5 0 -9.5 -0.5t-6.5 -1t-3 -0.5q-8 0 -8 9q0 2 1 3t4.5 3.5t8 5t13.5 9.5l20 14q37 29 37 68q0 23 -15 39t-38 16q-22 0 -48.5 -17t-28.5 -17q-5 0 -5 5q0 18 36.5 46 t66.5 28q37 0 63.5 -18t26.5 -53q0 -20 -9.5 -37.5t-18.5 -26t-30 -25.5q-11 -8 -11 -11q0 -1 7.5 -2.5t22 -6t27.5 -12.5q47 -30 47 -80q0 -72 -47.5 -120.5t-111.5 -48.5q-35 0 -66.5 15t-31.5 31z" />
<glyph unicode="&#xb4;" horiz-adv-x="439" d="M181 491q0 5 7 15.5t26.5 46.5t41.5 90q8 19 21 19q11 0 31.5 -6.5t20.5 -19.5q0 -23 -97 -125q-29 -31 -39 -31q-12 0 -12 11z" />
<glyph unicode="&#xb5;" horiz-adv-x="536" d="M10 -146q0 45 9.5 92t29 114t28.5 107q20 85 39 180q10 50 14 62t12 12q9 0 27.5 -6t18.5 -19q0 -10 -25 -153t-25 -163q0 -36 20 -36q34 0 81.5 56t83.5 122.5t64 131.5l9 22q4 11 6 17t3.5 11.5t2.5 8t2 4.5t2.5 3t3.5 1h5q13 0 28 -6.5t15 -14.5q0 -3 -31 -150 t-31 -175q0 -11 7.5 -18t17.5 -7q22 0 41 36t27 36q11 0 11 -17q0 -36 -42 -81t-95 -45q-40 0 -40 72q0 26 9.5 86t9.5 61q0 6 -2 6q-3 0 -12.5 -17.5t-34.5 -54.5t-58 -73q-30 -33 -65 -55t-64 -22q-15 0 -24.5 10.5t-13 21.5t-4.5 11q-2 0 -7 -19.5t-9 -46.5t-4 -44 q0 -19 13 -49.5t13 -33.5q0 -8 -8.5 -19.5t-27.5 -11.5q-30 0 -30 53z" />
<glyph unicode="&#xb6;" horiz-adv-x="505" d="M44 505q0 92 63 151t136 59q28 0 71 0.5t63 0.5q9 0 29 1t31 1h12q3 0 6 -4t3 -6q0 -7 -7.5 -10.5t-19.5 -8.5t-19 -12q-14 -16 -14 -66q0 -101 -1.5 -258.5t-1.5 -258.5q0 -119 -52.5 -199t-138.5 -80q-40 0 -67 15q-8 4 -8 26q0 16 10.5 41t19.5 25q6 0 11 -12 t9.5 -26.5t19 -26.5t38.5 -12q66 0 66 210q0 7 0.5 17t0.5 14q0 30 -1.5 101t-1.5 120q0 14 -25 14q-35 0 -62 3t-61 14t-56 29.5t-37.5 54t-15.5 83.5zM227 503q0 -153 48 -153q9 0 18 5.5t9 13.5v35q0 22 -1 59t-1 54q0 46 0.5 75.5t1 38t1 13.5t0.5 8q0 41 -28 41 q-30 0 -37 -21q-8 -26 -9.5 -49.5t-1.5 -119.5zM326 506q0 -26 0.5 -76t0.5 -74q0 -99 1 -214l2 -116q0 -40 -1.5 -56.5t-1.5 -17.5q0 -11 7 -11q4 0 12.5 21t16.5 65t8 93q0 111 -1 287.5t-1 270.5q0 8 -7 13t-16 5q-18 0 -18 -13q-2 -128 -2 -177z" />
<glyph unicode="&#xb7;" horiz-adv-x="252" d="M77 333q0 12 17 33t32 21q16 0 31.5 -20.5t15.5 -36.5t-19 -35.5t-28 -19.5q-20 0 -34.5 21.5t-14.5 36.5z" />
<glyph unicode="&#xb8;" horiz-adv-x="439" d="M170 -79q0 3 20 18q2 1 8 6.5t11 8t11 2.5q5 0 16 -5.5t23.5 -20.5t12.5 -35q0 -43 -32 -69.5t-51 -26.5q-9 0 -9 7q0 3 10.5 8.5t21 17t10.5 29.5q0 19 -13 29.5t-26 16.5t-13 14z" />
<glyph unicode="&#xb9;" horiz-adv-x="337" d="M82 762q0 10 7.5 14.5t30.5 12t41 16.5q9 4 18.5 11t15.5 11t10 4q10 0 10 -14q0 -2 -3 -14t-3 -16q-4 -100 -4 -200q0 -35 -1 -74t-1 -45q0 -12 2.5 -20t4.5 -12.5t9.5 -7t11 -3.5t15.5 -2t17 -1q12 -2 12 -13q0 -12 -35 -12q-9 0 -29 0.5t-33 0.5q-15 0 -40.5 -1 t-33.5 -1q-19 0 -19 12q0 14 22 14q18 0 25.5 4t9.5 20q6 44 6 160v67q0 26 0.5 33.5t0.5 11.5v8q0 36 -21 36q-8 0 -19 -6t-19 -6q-1 0 -2.5 1t-3.5 4t-2 7z" />
<glyph unicode="&#xba;" horiz-adv-x="363" d="M29 519q0 56 41 97.5t113 41.5q61 0 106 -36.5t45 -99.5q0 -65 -46.5 -101.5t-109.5 -36.5q-70 0 -109.5 40t-39.5 95zM88 540q0 -61 33 -97t75 -36q34 0 57.5 25t23.5 73q0 52 -28.5 92.5t-80.5 40.5q-31 0 -55.5 -24t-24.5 -74z" />
<glyph unicode="&#xbb;" horiz-adv-x="360" d="M39 102q0 6 47.5 58.5t47.5 54.5q0 6 -46.5 59t-46.5 57q0 5 5 11.5t10 6.5q4 0 46 -37l100 -87q6 -4 6 -9t-7 -10l-100 -86q-42 -36 -46 -36q-5 0 -10.5 6.5t-5.5 11.5zM171 102q0 6 47 57t47 56q0 7 -46.5 60.5t-46.5 55.5q0 5 5.5 11.5t10.5 6.5q4 0 55 -45l25 -22 l28 -24l38 -33q6 -4 6 -9q0 -3 -7 -10l-107 -92q-35 -30 -38 -30q-5 0 -11 6.5t-6 11.5z" />
<glyph unicode="&#xbc;" horiz-adv-x="913" d="M595 144q0 11 24.5 43.5t154.5 194.5q6 7 15 19l15 19q5 7 11.5 12.5t11.5 5.5q11 0 11 -12q0 -1 -2 -51t-3.5 -105t-1.5 -67q0 -9 1 -11.5t7 -2.5q25 0 37 8.5t15 8.5q7 0 7 -9q0 -3 -7 -31q-5 -31 -15 -31q-5 0 -18 0.5t-17 0.5q-12 0 -12 -11q0 -8 1 -33.5t1 -46.5 v-53q0 -22 -3 -24.5t-24 -7.5q-17 -3 -25 -3t-12 5t-4 10q0 1 1.5 5.5t3.5 15t3.5 26.5t3 46t1.5 67q0 4 -8 4h-5q-3 0 -8 -0.5t-23 -0.5h-47q-14 0 -38.5 -0.5t-33.5 -0.5q-18 0 -18 10zM660 192q0 -6 18 -6h81q17 0 17 7v6l1 26q1 26 1.5 58.5t0.5 47.5q0 16 -3 16 q-4 0 -60 -73t-56 -82zM196 -72q0 5 39 67l104 158l123 184l119 179l72 106q0 1 4.5 7.5t11 13.5t10.5 7q5 0 11.5 -4.5t6.5 -8.5q0 -8 -8 -21l-435 -663q-26 -40 -31 -42q-6 -2 -10 -2q-17 0 -17 19zM82 585q0 10 7.5 14.5t30.5 12t41 16.5q9 4 18.5 11t15.5 11t10 4 q10 0 10 -14q0 -2 -3 -14t-3 -16q-4 -100 -4 -200q0 -35 -1 -74t-1 -45q0 -12 2.5 -20t4.5 -12.5t9.5 -7t11 -3.5t15.5 -2t17 -1q12 -2 12 -13q0 -12 -35 -12q-9 0 -29 0.5t-33 0.5q-15 0 -40.5 -1t-33.5 -1q-19 0 -19 12q0 14 22 14q18 0 25.5 4t9.5 20q6 44 6 160v67 q0 26 0.5 33.5t0.5 11.5v8q0 36 -21 36q-8 0 -19 -6t-19 -6q-1 0 -2.5 1t-3.5 4t-2 7z" />
<glyph unicode="&#xbd;" horiz-adv-x="913" d="M618 18v2q0 6 17.5 25.5t51 68t64.5 113.5q27 57 27 110q0 25 -16.5 40.5t-45.5 15.5q-26 0 -45 -9t-29 -18t-14 -9q-5 0 -5 9q0 3 4 11t14 19.5t23 22t34 18t44 7.5q39 0 69 -21.5t30 -60.5q0 -46 -38 -115t-76 -120t-38 -53q0 -5 26 -5h14h47q16 0 27.5 1t13 1t7 2.5 t6.5 3.5q10 4 24 17.5t18 13.5q7 0 7 -6l-43 -79q-9 -13 -21 -13q-43 0 -70 1t-37 1q-7 0 -34 -0.5t-36 -0.5q-20 0 -20 7zM196 -72q0 5 39 67l104 158l123 184l119 179l72 106q0 1 4.5 7.5t11 13.5t10.5 7q5 0 11.5 -4.5t6.5 -8.5q0 -8 -8 -21l-435 -663q-26 -40 -31 -42 q-6 -2 -10 -2q-17 0 -17 19zM82 585q0 10 7.5 14.5t30.5 12t41 16.5q9 4 18.5 11t15.5 11t10 4q10 0 10 -14q0 -2 -3 -14t-3 -16q-4 -100 -4 -200q0 -35 -1 -74t-1 -45q0 -12 2.5 -20t4.5 -12.5t9.5 -7t11 -3.5t15.5 -2t17 -1q12 -2 12 -13q0 -12 -35 -12q-9 0 -29 0.5 t-33 0.5q-15 0 -40.5 -1t-33.5 -1q-19 0 -19 12q0 14 22 14q18 0 25.5 4t9.5 20q6 44 6 160v67q0 26 0.5 33.5t0.5 11.5v8q0 36 -21 36q-8 0 -19 -6t-19 -6q-1 0 -2.5 1t-3.5 4t-2 7z" />
<glyph unicode="&#xbe;" horiz-adv-x="913" d="M595 144q0 11 24.5 43.5t154.5 194.5q6 7 15 19l15 19q5 7 11.5 12.5t11.5 5.5q11 0 11 -12q0 -1 -2 -51t-3.5 -105t-1.5 -67q0 -9 1 -11.5t7 -2.5q25 0 37 8.5t15 8.5q7 0 7 -9q0 -3 -7 -31q-5 -31 -15 -31q-5 0 -18 0.5t-17 0.5q-12 0 -12 -11q0 -8 1 -33.5t1 -46.5 v-53q0 -22 -3 -24.5t-24 -7.5q-17 -3 -25 -3t-12 5t-4 10q0 1 1.5 5.5t3.5 15t3.5 26.5t3 46t1.5 67q0 4 -8 4h-5q-3 0 -8 -0.5t-23 -0.5h-47q-14 0 -38.5 -0.5t-33.5 -0.5q-18 0 -18 10zM660 192q0 -6 18 -6h81q17 0 17 7v6l1 26q1 26 1.5 58.5t0.5 47.5q0 16 -3 16 q-4 0 -60 -73t-56 -82zM196 -72q0 5 39 67l104 158l123 184l119 179l72 106q0 1 4.5 7.5t11 13.5t10.5 7q5 0 11.5 -4.5t6.5 -8.5q0 -8 -8 -21l-435 -663q-26 -40 -31 -42q-6 -2 -10 -2q-17 0 -17 19zM40 252q0 10 13 10q3 0 10.5 -6.5t24 -13.5t39.5 -7q52 0 79.5 39 t27.5 78q0 37 -20 61t-67 24q-5 0 -9.5 -0.5t-6.5 -1t-3 -0.5q-8 0 -8 9q0 2 1 3t4.5 3.5t8 5t13.5 9.5l20 14q37 29 37 68q0 23 -15 39t-38 16q-22 0 -48.5 -17t-28.5 -17q-5 0 -5 5q0 18 36.5 46t66.5 28q37 0 63.5 -18t26.5 -53q0 -20 -9.5 -37.5t-18.5 -26t-30 -25.5 q-11 -8 -11 -11q0 -1 7.5 -2.5t22 -6t27.5 -12.5q47 -30 47 -80q0 -72 -47.5 -120.5t-111.5 -48.5q-35 0 -66.5 15t-31.5 31z" />
<glyph unicode="&#xbf;" horiz-adv-x="350" d="M36 105q0 33 22 75t48.5 76t48.5 78t22 79q0 11 -3 26.5t-3 19.5q0 10 8 10q15 0 23.5 -28t8.5 -51q0 -36 -45.5 -140t-45.5 -134q0 -39 32 -59.5t59 -20.5q18 0 36 13t19 13q8 0 8 -10q0 -17 -31.5 -39t-71.5 -22q-54 0 -94.5 30t-40.5 84zM108 603q0 8 6 14t15.5 11.5 t13.5 9.5t11 14t13 15.5t12 5.5t19.5 -11t21.5 -22q2 -3 17 -15t15 -20q0 -11 -35 -41q-3 -3 -12 -13t-15.5 -14.5t-12.5 -4.5q-4 0 -11.5 7.5t-14.5 17t-8 10.5l-10 8q-10 8 -17.5 16t-7.5 12z" />
<glyph unicode="&#xc0;" horiz-adv-x="812" d="M295 900q0 13 21 19.5t32 6.5q12 0 20 -19q14 -34 27.5 -62t21.5 -42l15 -24l9 -15q3 -5 3 -9q0 -11 -12 -11q-10 0 -39 31q-98 103 -98 125zM20 8q0 14 15 19q32 12 56 53.5t119 248.5l173 372q7 15 12.5 19t17.5 4q9 0 12 -4t13 -33l10 -29l15 -39q10 -27 22 -56 l111 -261q78 -183 85 -198q17 -34 38 -51.5t36.5 -19t26 -5t10.5 -15.5q0 -15 -27 -15q-11 0 -43 3t-47 3q-19 0 -49 -2t-44 -2q-31 0 -39.5 2.5t-8.5 11.5q0 7 8 11.5t17 6t17 9t8 20.5q0 22 -25 90t-42 100q-9 17 -41 17q-5 0 -44 -1t-77 -1h-53q-45 0 -56.5 -5t-20.5 -24 l-20 -41l-19 -40l-12 -28q-8 -18 -10.5 -28.5t-2.5 -18.5q0 -23 11.5 -35t25.5 -13.5t25.5 -5.5t11.5 -14q0 -7 -3 -10.5t-14 -3.5q-6 0 -34.5 0.5t-48.5 0.5q-22 0 -49.5 -2t-36.5 -2q-29 0 -29 12zM271 338q0 -13 9 -16t42 -3h31l95 1q39 0 39 16q0 13 -49 123.5 t-62 110.5q-9 0 -57 -110.5t-48 -121.5z" />
<glyph unicode="&#xc1;" horiz-adv-x="812" d="M367 755q0 5 7 15.5t26.5 46.5t41.5 90q8 19 21 19q11 0 31.5 -6.5t20.5 -19.5q0 -23 -97 -125q-29 -31 -39 -31q-12 0 -12 11zM20 8q0 14 15 19q32 12 56 53.5t119 248.5l173 372q7 15 12.5 19t17.5 4q9 0 12 -4t13 -33l10 -29l15 -39q10 -27 22 -56l111 -261 q78 -183 85 -198q17 -34 38 -51.5t36.5 -19t26 -5t10.5 -15.5q0 -15 -27 -15q-11 0 -43 3t-47 3q-19 0 -49 -2t-44 -2q-31 0 -39.5 2.5t-8.5 11.5q0 7 8 11.5t17 6t17 9t8 20.5q0 22 -25 90t-42 100q-9 17 -41 17q-5 0 -44 -1t-77 -1h-53q-45 0 -56.5 -5t-20.5 -24l-20 -41 l-19 -40l-12 -28q-8 -18 -10.5 -28.5t-2.5 -18.5q0 -23 11.5 -35t25.5 -13.5t25.5 -5.5t11.5 -14q0 -7 -3 -10.5t-14 -3.5q-6 0 -34.5 0.5t-48.5 0.5q-22 0 -49.5 -2t-36.5 -2q-29 0 -29 12zM271 338q0 -13 9 -16t42 -3h31l95 1q39 0 39 16q0 13 -49 123.5t-62 110.5 q-9 0 -57 -110.5t-48 -121.5z" />
<glyph unicode="&#xc2;" horiz-adv-x="812" d="M293 763q0 1 4 9l32 48q14 22 22 36l14 24q7 12 9.5 17.5t5.5 9t5 4.5t6 1h25q11 0 17 -11q16 -28 38 -61l35 -53q13 -19 13 -23q0 -8 -11 -8q-7 0 -53.5 42.5t-49.5 42.5q-6 0 -50.5 -42t-51.5 -42q-10 0 -10 6zM20 8q0 14 15 19q32 12 56 53.5t119 248.5l173 372 q7 15 12.5 19t17.5 4q9 0 12 -4t13 -33l10 -29l15 -39q10 -27 22 -56l111 -261q78 -183 85 -198q17 -34 38 -51.5t36.5 -19t26 -5t10.5 -15.5q0 -15 -27 -15q-11 0 -43 3t-47 3q-19 0 -49 -2t-44 -2q-31 0 -39.5 2.5t-8.5 11.5q0 7 8 11.5t17 6t17 9t8 20.5q0 22 -25 90 t-42 100q-9 17 -41 17q-5 0 -44 -1t-77 -1h-53q-45 0 -56.5 -5t-20.5 -24l-20 -41l-19 -40l-12 -28q-8 -18 -10.5 -28.5t-2.5 -18.5q0 -23 11.5 -35t25.5 -13.5t25.5 -5.5t11.5 -14q0 -7 -3 -10.5t-14 -3.5q-6 0 -34.5 0.5t-48.5 0.5q-22 0 -49.5 -2t-36.5 -2q-29 0 -29 12z M271 338q0 -13 9 -16t42 -3h31l95 1q39 0 39 16q0 13 -49 123.5t-62 110.5q-9 0 -57 -110.5t-48 -121.5z" />
<glyph unicode="&#xc3;" horiz-adv-x="812" d="M258 794q0 17 33.5 61.5t63.5 44.5q24 0 62 -24t63 -24q19 0 39.5 28t22.5 28q10 0 10 -12q0 -18 -33 -60t-63 -42q-26 0 -65.5 24t-60.5 24q-15 0 -28.5 -14t-22 -28t-11.5 -14q-10 0 -10 8zM20 8q0 14 15 19q32 12 56 53.5t119 248.5l173 372q7 15 12.5 19t17.5 4 q9 0 12 -4t13 -33l10 -29l15 -39q10 -27 22 -56l111 -261q78 -183 85 -198q17 -34 38 -51.5t36.5 -19t26 -5t10.5 -15.5q0 -15 -27 -15q-11 0 -43 3t-47 3q-19 0 -49 -2t-44 -2q-31 0 -39.5 2.5t-8.5 11.5q0 7 8 11.5t17 6t17 9t8 20.5q0 22 -25 90t-42 100q-9 17 -41 17 q-5 0 -44 -1t-77 -1h-53q-45 0 -56.5 -5t-20.5 -24l-20 -41l-19 -40l-12 -28q-8 -18 -10.5 -28.5t-2.5 -18.5q0 -23 11.5 -35t25.5 -13.5t25.5 -5.5t11.5 -14q0 -7 -3 -10.5t-14 -3.5q-6 0 -34.5 0.5t-48.5 0.5q-22 0 -49.5 -2t-36.5 -2q-29 0 -29 12zM271 338q0 -13 9 -16 t42 -3h31l95 1q39 0 39 16q0 13 -49 123.5t-62 110.5q-9 0 -57 -110.5t-48 -121.5z" />
<glyph unicode="&#xc4;" horiz-adv-x="812" d="M289 855q0 14 15.5 32.5t31.5 18.5q17 0 32.5 -17.5t15.5 -33.5t-17.5 -34.5t-25.5 -18.5q-20 0 -36 19.5t-16 33.5zM449 855q0 14 15.5 32.5t31.5 18.5q17 0 32.5 -17.5t15.5 -33.5t-17.5 -34.5t-26.5 -18.5q-20 0 -35.5 19.5t-15.5 33.5zM20 8q0 14 15 19 q32 12 56 53.5t119 248.5l173 372q7 15 12.5 19t17.5 4q9 0 12 -4t13 -33l10 -29l15 -39q10 -27 22 -56l111 -261q78 -183 85 -198q17 -34 38 -51.5t36.5 -19t26 -5t10.5 -15.5q0 -15 -27 -15q-11 0 -43 3t-47 3q-19 0 -49 -2t-44 -2q-31 0 -39.5 2.5t-8.5 11.5q0 7 8 11.5 t17 6t17 9t8 20.5q0 22 -25 90t-42 100q-9 17 -41 17q-5 0 -44 -1t-77 -1h-53q-45 0 -56.5 -5t-20.5 -24l-20 -41l-19 -40l-12 -28q-8 -18 -10.5 -28.5t-2.5 -18.5q0 -23 11.5 -35t25.5 -13.5t25.5 -5.5t11.5 -14q0 -7 -3 -10.5t-14 -3.5q-6 0 -34.5 0.5t-48.5 0.5 q-22 0 -49.5 -2t-36.5 -2q-29 0 -29 12zM271 338q0 -13 9 -16t42 -3h31l95 1q39 0 39 16q0 13 -49 123.5t-62 110.5q-9 0 -57 -110.5t-48 -121.5z" />
<glyph unicode="&#xc5;" horiz-adv-x="812" d="M329 855q0 26 23 51.5t55 25.5q37 0 55.5 -27t18.5 -54q0 -36 -28.5 -56.5t-46.5 -20.5q-31 0 -49.5 16.5t-23 32.5t-4.5 32zM367 854q0 -18 11 -29.5t28 -11.5q5 0 12.5 2.5t16 12t8.5 24.5q0 41 -37 41q-14 0 -26.5 -11.5t-12.5 -27.5zM20 8q0 14 15 19q32 12 56 53.5 t119 248.5l173 372q7 15 12.5 19t17.5 4q9 0 12 -4t13 -33l10 -29l15 -39q10 -27 22 -56l111 -261q78 -183 85 -198q17 -34 38 -51.5t36.5 -19t26 -5t10.5 -15.5q0 -15 -27 -15q-11 0 -43 3t-47 3q-19 0 -49 -2t-44 -2q-31 0 -39.5 2.5t-8.5 11.5q0 7 8 11.5t17 6t17 9 t8 20.5q0 22 -25 90t-42 100q-9 17 -41 17q-5 0 -44 -1t-77 -1h-53q-45 0 -56.5 -5t-20.5 -24l-20 -41l-19 -40l-12 -28q-8 -18 -10.5 -28.5t-2.5 -18.5q0 -23 11.5 -35t25.5 -13.5t25.5 -5.5t11.5 -14q0 -7 -3 -10.5t-14 -3.5q-6 0 -34.5 0.5t-48.5 0.5q-22 0 -49.5 -2 t-36.5 -2q-29 0 -29 12zM271 338q0 -13 9 -16t42 -3h31l95 1q39 0 39 16q0 13 -49 123.5t-62 110.5q-9 0 -57 -110.5t-48 -121.5z" />
<glyph unicode="&#xc6;" horiz-adv-x="993" d="M20 8q0 14 16 19q28 10 48 39q23 32 147 272l158 304q5 10 5 19q0 14 -52 19q-23 1 -23 19q0 15 30 15q7 0 134 -3.5t225 -3.5q21 0 103.5 1.5t96.5 1.5q18 0 18 -23q0 -6 -5.5 -39.5t-5.5 -62.5q0 -9 -5 -15.5t-11 -6.5q-15 0 -15 21q0 27 -17.5 49t-42.5 23 q-90 7 -137 7h-26q-52 0 -61 -8t-11 -53q-3 -54 -3 -167q0 -50 18 -51h25h43h31q59 0 79 4t36 15q11 7 16.5 17.5t6.5 18t4.5 13t10.5 5.5q9 0 11 -3t2 -13q0 -7 -4.5 -46t-4.5 -59q0 -19 2 -36t2 -25q0 -25 -7 -25q-14 0 -24 32.5t-23 40.5q-21 14 -97 14h-49 q-18 0 -23 0.5t-9 0.5h-6q-41 0 -41 -19q0 -29 -1 -72.5t-1 -71.5v-40q0 -72 23 -79q25 -8 43 -8q89 0 151 10t89 24t40.5 27.5t19 23.5t12.5 10q12 0 12 -17q0 -43 -43.5 -87t-75.5 -44q-72 0 -162 5t-112 5q-28 0 -70.5 -4.5t-66.5 -4.5q-20 0 -20 10v12q0 3 3 5t6.5 2.5 t13 3.5t20.5 8q24 12 31.5 46.5t7.5 146.5v28q0 5 -6 5t-35.5 1t-48.5 1h-31q-18 0 -43 0.5t-33 0.5q-39 0 -50.5 -5.5t-20.5 -23.5l-17 -31l-16 -31l-12 -25l-12 -24q-3 -7 -7 -18t-5.5 -18t-1.5 -14q0 -27 17.5 -36.5t35 -12t17.5 -13.5q0 -15 -17 -15q-6 0 -35 0.5 t-49 0.5q-22 0 -49.5 -2t-36.5 -2q-29 0 -29 12zM290 335q0 -13 15 -15q7 -1 35 -1h91q52 0 62.5 4t10.5 25v254q0 16 -0.5 25t-3.5 20t-10 16.5t-18 5.5q-14 0 -27 -21q-32 -55 -93.5 -179t-61.5 -134z" />
<glyph unicode="&#xc7;" horiz-adv-x="807" d="M398 -79q0 3 20 18q2 1 8 6.5t11 8t11 2.5q5 0 16 -5.5t23.5 -20.5t12.5 -35q0 -43 -32 -69.5t-51 -26.5q-9 0 -9 7q0 3 10.5 8.5t21 17t10.5 29.5q0 19 -13 29.5t-26 16.5t-13 14zM44 324q0 109 42 196t129.5 140.5t207.5 53.5q61 0 123 -18t99 -36l37 -19q3 0 10 5 t11 5q5 0 10 -4t5 -12q1 -29 4.5 -61.5t6.5 -53.5t3 -25q0 -18 -12 -18q-9 0 -17 14q-97 182 -280 182q-125 0 -205 -80t-80 -209q0 -71 18.5 -133t56 -113.5t103.5 -81.5t154 -30q144 0 242 150q4 7 15 7q9 0 9 -14q0 -11 -3.5 -29.5t-8.5 -41t-6 -27.5q-2 -11 -16 -18 q-54 -26 -84.5 -39t-77.5 -23.5t-96 -10.5q-87 0 -157 21t-114.5 55t-74.5 79.5t-42 92t-12 96.5z" />
<glyph unicode="&#xc8;" horiz-adv-x="604" d="M198 900q0 13 21 19.5t32 6.5q12 0 20 -19q14 -34 27.5 -62t21.5 -42l15 -24l9 -15q3 -5 3 -9q0 -11 -12 -11q-10 0 -39 31q-98 103 -98 125zM20 699q0 14 28 14q4 0 13 -1t14 -1q3 0 94 -2.5t150 -2.5q21 0 103.5 2t96.5 2q19 0 19 -23q0 -6 -6 -39.5t-6 -62.5 q0 -9 -5 -15.5t-11 -6.5q-15 0 -15 21q0 27 -17 49t-42 23q-90 7 -138 7h-26q-52 0 -60.5 -7.5t-10.5 -53.5q-4 -72 -4 -167q0 -50 19 -51h25h42h31q60 0 80 4t36 15q19 13 23 37q3 17 14 17q9 0 11 -3t2 -13q0 -7 -4 -46t-4 -59q0 -19 1.5 -36t1.5 -25q0 -25 -7 -25 q-15 0 -22 24q-14 42 -25 49q-21 14 -96 14h-49q-18 0 -23.5 0.5t-8.5 0.5h-7q-41 0 -41 -19q0 -29 -1 -72.5t-1 -71.5v-40q0 -72 24 -79q25 -8 43 -8q75 0 131.5 7t85 17.5t47.5 23t24.5 23t11 17.5t11.5 7q12 0 12 -17q0 -43 -43 -87t-75 -44q-72 0 -162.5 5t-112.5 5 q-28 0 -70 -4.5t-66 -4.5q-21 0 -21 10v12q0 3 3 5t6.5 2.5t13 3.5t20.5 8q24 12 31.5 47t7.5 147v124q0 27 1.5 84t1.5 89q0 27 -2 91q-1 29 -25 45t-56 17q-16 0 -16 18z" />
<glyph unicode="&#xc9;" horiz-adv-x="604" d="M270 755q0 5 7 15.5t26.5 46.5t41.5 90q8 19 21 19q11 0 31.5 -6.5t20.5 -19.5q0 -23 -97 -125q-29 -31 -39 -31q-12 0 -12 11zM20 699q0 14 28 14q4 0 13 -1t14 -1q3 0 94 -2.5t150 -2.5q21 0 103.5 2t96.5 2q19 0 19 -23q0 -6 -6 -39.5t-6 -62.5q0 -9 -5 -15.5 t-11 -6.5q-15 0 -15 21q0 27 -17 49t-42 23q-90 7 -138 7h-26q-52 0 -60.5 -7.5t-10.5 -53.5q-4 -72 -4 -167q0 -50 19 -51h25h42h31q60 0 80 4t36 15q19 13 23 37q3 17 14 17q9 0 11 -3t2 -13q0 -7 -4 -46t-4 -59q0 -19 1.5 -36t1.5 -25q0 -25 -7 -25q-15 0 -22 24 q-14 42 -25 49q-21 14 -96 14h-49q-18 0 -23.5 0.5t-8.5 0.5h-7q-41 0 -41 -19q0 -29 -1 -72.5t-1 -71.5v-40q0 -72 24 -79q25 -8 43 -8q75 0 131.5 7t85 17.5t47.5 23t24.5 23t11 17.5t11.5 7q12 0 12 -17q0 -43 -43 -87t-75 -44q-72 0 -162.5 5t-112.5 5q-28 0 -70 -4.5 t-66 -4.5q-21 0 -21 10v12q0 3 3 5t6.5 2.5t13 3.5t20.5 8q24 12 31.5 47t7.5 147v124q0 27 1.5 84t1.5 89q0 27 -2 91q-1 29 -25 45t-56 17q-16 0 -16 18z" />
<glyph unicode="&#xca;" horiz-adv-x="604" d="M196 763q0 1 4 9l32 48q14 22 22 36l14 24q7 12 9.5 17.5t5.5 9t5 4.5t6 1h25q11 0 17 -11q16 -28 38 -61l35 -53q13 -19 13 -23q0 -8 -11 -8q-7 0 -53.5 42.5t-49.5 42.5q-6 0 -50.5 -42t-51.5 -42q-10 0 -10 6zM20 699q0 14 28 14q4 0 13 -1t14 -1q3 0 94 -2.5 t150 -2.5q21 0 103.5 2t96.5 2q19 0 19 -23q0 -6 -6 -39.5t-6 -62.5q0 -9 -5 -15.5t-11 -6.5q-15 0 -15 21q0 27 -17 49t-42 23q-90 7 -138 7h-26q-52 0 -60.5 -7.5t-10.5 -53.5q-4 -72 -4 -167q0 -50 19 -51h25h42h31q60 0 80 4t36 15q19 13 23 37q3 17 14 17q9 0 11 -3 t2 -13q0 -7 -4 -46t-4 -59q0 -19 1.5 -36t1.5 -25q0 -25 -7 -25q-15 0 -22 24q-14 42 -25 49q-21 14 -96 14h-49q-18 0 -23.5 0.5t-8.5 0.5h-7q-41 0 -41 -19q0 -29 -1 -72.5t-1 -71.5v-40q0 -72 24 -79q25 -8 43 -8q75 0 131.5 7t85 17.5t47.5 23t24.5 23t11 17.5t11.5 7 q12 0 12 -17q0 -43 -43 -87t-75 -44q-72 0 -162.5 5t-112.5 5q-28 0 -70 -4.5t-66 -4.5q-21 0 -21 10v12q0 3 3 5t6.5 2.5t13 3.5t20.5 8q24 12 31.5 47t7.5 147v124q0 27 1.5 84t1.5 89q0 27 -2 91q-1 29 -25 45t-56 17q-16 0 -16 18z" />
<glyph unicode="&#xcb;" horiz-adv-x="604" d="M192 855q0 14 15.5 32.5t31.5 18.5q17 0 32.5 -17.5t15.5 -33.5t-17.5 -34.5t-25.5 -18.5q-20 0 -36 19.5t-16 33.5zM352 855q0 14 15.5 32.5t31.5 18.5q17 0 32.5 -17.5t15.5 -33.5t-17.5 -34.5t-26.5 -18.5q-20 0 -35.5 19.5t-15.5 33.5zM20 699q0 14 28 14q4 0 13 -1 t14 -1q3 0 94 -2.5t150 -2.5q21 0 103.5 2t96.5 2q19 0 19 -23q0 -6 -6 -39.5t-6 -62.5q0 -9 -5 -15.5t-11 -6.5q-15 0 -15 21q0 27 -17 49t-42 23q-90 7 -138 7h-26q-52 0 -60.5 -7.5t-10.5 -53.5q-4 -72 -4 -167q0 -50 19 -51h25h42h31q60 0 80 4t36 15q19 13 23 37 q3 17 14 17q9 0 11 -3t2 -13q0 -7 -4 -46t-4 -59q0 -19 1.5 -36t1.5 -25q0 -25 -7 -25q-15 0 -22 24q-14 42 -25 49q-21 14 -96 14h-49q-18 0 -23.5 0.5t-8.5 0.5h-7q-41 0 -41 -19q0 -29 -1 -72.5t-1 -71.5v-40q0 -72 24 -79q25 -8 43 -8q75 0 131.5 7t85 17.5t47.5 23 t24.5 23t11 17.5t11.5 7q12 0 12 -17q0 -43 -43 -87t-75 -44q-72 0 -162.5 5t-112.5 5q-28 0 -70 -4.5t-66 -4.5q-21 0 -21 10v12q0 3 3 5t6.5 2.5t13 3.5t20.5 8q24 12 31.5 47t7.5 147v124q0 27 1.5 84t1.5 89q0 27 -2 91q-1 29 -25 45t-56 17q-16 0 -16 18z" />
<glyph unicode="&#xcc;" horiz-adv-x="328" d="M39 900q0 13 21 19.5t32 6.5q12 0 20 -19q14 -34 27.5 -62t21.5 -42l15 -24l9 -15q3 -5 3 -9q0 -11 -12 -11q-10 0 -39 31q-98 103 -98 125zM20 695q0 15 28 15q10 0 46 -2t67 -2q19 0 36.5 1t51.5 1q27 0 27 -14q0 -8 -46 -27q-32 -13 -32 -115q0 -135 -1.5 -238.5 t-1.5 -131.5q0 -84 25 -121q22 -31 48 -31q2 0 10 -0.5t10 -0.5q7 0 14 -3.5t7 -7.5q0 -11 -5.5 -14.5t-19.5 -3.5q-30 0 -55.5 2t-39.5 2q-28 0 -61 -2.5t-49 -2.5q-45 0 -45 15q0 9 9.5 12.5t21.5 5t25 13t18 33.5q2 7 6.5 113.5t4.5 153.5v57q0 13 0.5 49.5t0.5 58.5v46 q0 44 -4 73q-3 24 -26.5 37t-48.5 14q-21 1 -21 15z" />
<glyph unicode="&#xcd;" horiz-adv-x="328" d="M111 755q0 5 7 15.5t26.5 46.5t41.5 90q8 19 21 19q11 0 31.5 -6.5t20.5 -19.5q0 -23 -97 -125q-29 -31 -39 -31q-12 0 -12 11zM20 695q0 15 28 15q10 0 46 -2t67 -2q19 0 36.5 1t51.5 1q27 0 27 -14q0 -8 -46 -27q-32 -13 -32 -115q0 -135 -1.5 -238.5t-1.5 -131.5 q0 -84 25 -121q22 -31 48 -31q2 0 10 -0.5t10 -0.5q7 0 14 -3.5t7 -7.5q0 -11 -5.5 -14.5t-19.5 -3.5q-30 0 -55.5 2t-39.5 2q-28 0 -61 -2.5t-49 -2.5q-45 0 -45 15q0 9 9.5 12.5t21.5 5t25 13t18 33.5q2 7 6.5 113.5t4.5 153.5v57q0 13 0.5 49.5t0.5 58.5v46q0 44 -4 73 q-3 24 -26.5 37t-48.5 14q-21 1 -21 15z" />
<glyph unicode="&#xce;" horiz-adv-x="328" d="M37 763q0 1 4 9l32 48q14 22 22 36l14 24q7 12 9.5 17.5t5.5 9t5 4.5t6 1h25q11 0 17 -11q16 -28 38 -61l35 -53q13 -19 13 -23q0 -8 -11 -8q-7 0 -53.5 42.5t-49.5 42.5q-6 0 -50.5 -42t-51.5 -42q-10 0 -10 6zM20 695q0 15 28 15q10 0 46 -2t67 -2q19 0 36.5 1t51.5 1 q27 0 27 -14q0 -8 -46 -27q-32 -13 -32 -115q0 -135 -1.5 -238.5t-1.5 -131.5q0 -84 25 -121q22 -31 48 -31q2 0 10 -0.5t10 -0.5q7 0 14 -3.5t7 -7.5q0 -11 -5.5 -14.5t-19.5 -3.5q-30 0 -55.5 2t-39.5 2q-28 0 -61 -2.5t-49 -2.5q-45 0 -45 15q0 9 9.5 12.5t21.5 5t25 13 t18 33.5q2 7 6.5 113.5t4.5 153.5v57q0 13 0.5 49.5t0.5 58.5v46q0 44 -4 73q-3 24 -26.5 37t-48.5 14q-21 1 -21 15z" />
<glyph unicode="&#xcf;" horiz-adv-x="328" d="M33 855q0 14 15.5 32.5t31.5 18.5q17 0 32.5 -17.5t15.5 -33.5t-17.5 -34.5t-25.5 -18.5q-20 0 -36 19.5t-16 33.5zM193 855q0 14 15.5 32.5t31.5 18.5q17 0 32.5 -17.5t15.5 -33.5t-17.5 -34.5t-26.5 -18.5q-20 0 -35.5 19.5t-15.5 33.5zM20 695q0 15 28 15q10 0 46 -2 t67 -2q19 0 36.5 1t51.5 1q27 0 27 -14q0 -8 -46 -27q-32 -13 -32 -115q0 -135 -1.5 -238.5t-1.5 -131.5q0 -84 25 -121q22 -31 48 -31q2 0 10 -0.5t10 -0.5q7 0 14 -3.5t7 -7.5q0 -11 -5.5 -14.5t-19.5 -3.5q-30 0 -55.5 2t-39.5 2q-28 0 -61 -2.5t-49 -2.5q-45 0 -45 15 q0 9 9.5 12.5t21.5 5t25 13t18 33.5q2 7 6.5 113.5t4.5 153.5v57q0 13 0.5 49.5t0.5 58.5v46q0 44 -4 73q-3 24 -26.5 37t-48.5 14q-21 1 -21 15z" />
<glyph unicode="&#xd0;" horiz-adv-x="792" d="M20 700q0 9 8.5 10.5t42.5 1.5h87q25 0 92 2t103 2q69 0 138 -21t127 -60.5t94 -103t36 -141.5q0 -70 -9.5 -121.5t-31.5 -89t-44 -61t-60 -55.5q-30 -24 -87 -45t-117 -21q-6 0 -102 2.5t-138 2.5q-35 0 -65 -2.5t-35 -2.5q-24 0 -24 13q0 8 3.5 11.5t15 6.5t16.5 5 q16 7 29.5 26.5t13.5 38.5q0 46 0.5 119.5t0.5 106.5q0 9 -2.5 12.5t-11.5 3.5h-65q-12 0 -12 23q0 20 12 20q6 0 21 0.5t44 0.5q10 0 12 3t2 14q0 27 -0.5 96t-0.5 126q0 17 -16.5 34.5t-36.5 18.5q-14 1 -20.5 2t-13 6.5t-6.5 15.5zM197 141q0 -19 0.5 -31t4 -21.5 t5.5 -14t12 -9.5t16 -7l23 -6q18 -4 30 -8q35 -10 73 -10h20q68 0 116 19.5t92 61.5q74 71 74 230q0 80 -31.5 145t-82.5 103.5t-110 59t-119 20.5h-40q-12 0 -28.5 -2.5t-22 -4t-13.5 -10t-9.5 -14.5t-4 -23.5t-2.5 -30.5v-42q0 -10 -0.5 -61.5t-0.5 -78.5q0 -14 3 -18 t18 -4h151q14 0 17.5 -5t3.5 -18q0 -8 -1 -11.5t-6 -6.5t-16 -3q-21 0 -74 -0.5t-76 -0.5h-10q-8 0 -9.5 -2t-1.5 -10v-5q0 -40 -0.5 -104t-0.5 -77z" />
<glyph unicode="&#xd1;" horiz-adv-x="798" d="M250 794q0 17 33.5 61.5t63.5 44.5q24 0 62 -24t63 -24q19 0 39.5 28t22.5 28q10 0 10 -12q0 -18 -33 -60t-63 -42q-26 0 -65.5 24t-60.5 24q-15 0 -28.5 -14t-22 -28t-11.5 -14q-10 0 -10 8zM20 691q0 6 7 11.5t18 5.5q6 0 20 -0.5t18 -0.5q15 0 28 1t21 1q9 0 21 -5.5 t14 -11.5q2 -3 11 -14l24 -27q15 -17 27 -33q136 -177 364 -427q6 -7 14.5 -16t12 -13.5t7.5 -8.5t6.5 -5.5t4.5 -1.5q10 0 10 62v117q0 67 -0.5 113t-1 66.5t-0.5 25.5v7q0 34 -4.5 58t-10.5 37t-17.5 22t-19.5 11.5t-23 5.5t-21 5q-20 6 -20 17q0 15 19 15q6 0 48 -0.5 t47 -0.5q24 0 53.5 1t36.5 1q17 0 23.5 -3.5t6.5 -13.5q0 -4 -5.5 -7.5t-11.5 -6t-12 -4.5l-6 -2q-33 -18 -33 -113v-38q0 -76 -5.5 -263.5t-5.5 -231.5v-20q0 -23 -14 -23q-9 0 -16 7l-397 458q-64 72 -71 72q-10 0 -10 -68q0 -95 -4 -204.5t-4 -119.5q0 -45 15.5 -68.5 t33.5 -26.5t33.5 -6.5t15.5 -13.5q0 -11 -3.5 -14t-12.5 -3q-7 0 -31.5 1t-75.5 1q-9 0 -37 -1t-48 -1q-22 0 -22 16q0 9 13 11.5t32 15.5t29 49q6 23 15 186t9 225q0 86 -24 128.5t-78 48.5q-13 1 -13 15z" />
<glyph unicode="&#xd2;" horiz-adv-x="853" d="M308 900q0 13 21 19.5t32 6.5q12 0 20 -19q14 -34 27.5 -62t21.5 -42l15 -24l9 -15q3 -5 3 -9q0 -11 -12 -11q-10 0 -39 31q-98 103 -98 125zM44 339q0 168 101 275.5t286 107.5q86 0 155 -25t109 -61.5t67 -83.5t37 -86.5t10 -73.5q0 -136 -53 -229.5t-139.5 -136 t-199.5 -42.5q-119 0 -205.5 52t-127 131t-40.5 172zM132 390q0 -40 11 -86.5t36 -96t60.5 -89t90 -65t119.5 -25.5q34 0 71.5 10.5t74.5 32.5t66 53.5t47.5 77t18.5 98.5q0 181 -95 281.5t-235 100.5q-110 0 -187.5 -74t-77.5 -218z" />
<glyph unicode="&#xd3;" horiz-adv-x="853" d="M380 755q0 5 7 15.5t26.5 46.5t41.5 90q8 19 21 19q11 0 31.5 -6.5t20.5 -19.5q0 -23 -97 -125q-29 -31 -39 -31q-12 0 -12 11zM44 339q0 168 101 275.5t286 107.5q86 0 155 -25t109 -61.5t67 -83.5t37 -86.5t10 -73.5q0 -136 -53 -229.5t-139.5 -136t-199.5 -42.5 q-119 0 -205.5 52t-127 131t-40.5 172zM132 390q0 -40 11 -86.5t36 -96t60.5 -89t90 -65t119.5 -25.5q34 0 71.5 10.5t74.5 32.5t66 53.5t47.5 77t18.5 98.5q0 181 -95 281.5t-235 100.5q-110 0 -187.5 -74t-77.5 -218z" />
<glyph unicode="&#xd4;" horiz-adv-x="853" d="M306 763q0 1 4 9l32 48q14 22 22 36l14 24q7 12 9.5 17.5t5.5 9t5 4.5t6 1h25q11 0 17 -11q16 -28 38 -61l35 -53q13 -19 13 -23q0 -8 -11 -8q-7 0 -53.5 42.5t-49.5 42.5q-6 0 -50.5 -42t-51.5 -42q-10 0 -10 6zM44 339q0 168 101 275.5t286 107.5q86 0 155 -25 t109 -61.5t67 -83.5t37 -86.5t10 -73.5q0 -136 -53 -229.5t-139.5 -136t-199.5 -42.5q-119 0 -205.5 52t-127 131t-40.5 172zM132 390q0 -40 11 -86.5t36 -96t60.5 -89t90 -65t119.5 -25.5q34 0 71.5 10.5t74.5 32.5t66 53.5t47.5 77t18.5 98.5q0 181 -95 281.5t-235 100.5 q-110 0 -187.5 -74t-77.5 -218z" />
<glyph unicode="&#xd5;" horiz-adv-x="853" d="M271 794q0 17 33.5 61.5t63.5 44.5q24 0 62 -24t63 -24q19 0 39.5 28t22.5 28q10 0 10 -12q0 -18 -33 -60t-63 -42q-26 0 -65.5 24t-60.5 24q-15 0 -28.5 -14t-22 -28t-11.5 -14q-10 0 -10 8zM44 339q0 168 101 275.5t286 107.5q86 0 155 -25t109 -61.5t67 -83.5 t37 -86.5t10 -73.5q0 -136 -53 -229.5t-139.5 -136t-199.5 -42.5q-119 0 -205.5 52t-127 131t-40.5 172zM132 390q0 -40 11 -86.5t36 -96t60.5 -89t90 -65t119.5 -25.5q34 0 71.5 10.5t74.5 32.5t66 53.5t47.5 77t18.5 98.5q0 181 -95 281.5t-235 100.5q-110 0 -187.5 -74 t-77.5 -218z" />
<glyph unicode="&#xd6;" horiz-adv-x="853" d="M302 855q0 14 15.5 32.5t31.5 18.5q17 0 32.5 -17.5t15.5 -33.5t-17.5 -34.5t-25.5 -18.5q-20 0 -36 19.5t-16 33.5zM462 855q0 14 15.5 32.5t31.5 18.5q17 0 32.5 -17.5t15.5 -33.5t-17.5 -34.5t-26.5 -18.5q-20 0 -35.5 19.5t-15.5 33.5zM44 339q0 168 101 275.5 t286 107.5q86 0 155 -25t109 -61.5t67 -83.5t37 -86.5t10 -73.5q0 -136 -53 -229.5t-139.5 -136t-199.5 -42.5q-119 0 -205.5 52t-127 131t-40.5 172zM132 390q0 -40 11 -86.5t36 -96t60.5 -89t90 -65t119.5 -25.5q34 0 71.5 10.5t74.5 32.5t66 53.5t47.5 77t18.5 98.5 q0 181 -95 281.5t-235 100.5q-110 0 -187.5 -74t-77.5 -218z" />
<glyph unicode="&#xd7;" d="M88 358q0 5 10.5 15.5t17.5 10.5q6 0 14 -8l116 -115q12 -12 19 -12q6 0 11 5l125 125q6 6 12 6q5 0 15 -10t10 -16t-9 -15l-121 -121q-8 -8 -8 -13q0 -4 8 -12l124 -124q6 -6 6 -12t-10.5 -16.5t-15.5 -10.5q-6 0 -13 7l-123 124q-7 7 -13 7q-5 0 -16 -11l-120 -120 q-7 -7 -12 -7t-15.5 10t-10.5 16q0 5 8 13l120 121q9 9 9 15t-7 13l-124 124q-7 7 -7 11z" />
<glyph unicode="&#xd8;" horiz-adv-x="853" d="M44 339q0 168 101 275.5t286 107.5q33 0 60 -3.5t42 -7t19 -3.5q10 0 19 17l29 62q10 21 21 21q2 0 6.5 -2t5.5 -2q13 -4 13 -14q0 -5 -1 -9l-31 -66q-7 -16 -7 -18q0 -7 11 -13q69 -32 114.5 -89.5t61 -108t15.5 -94.5q0 -136 -53 -229.5t-139.5 -136t-199.5 -42.5 q-33 0 -61 4t-44 8t-20 4q-11 0 -18 -15l-44 -93q-7 -12 -15 -12q-28 0 -28 17q0 7 3 12l46 98q2 6 2 7q0 5 -3.5 8t-18 11t-30.5 19q-69 49 -105.5 125.5t-36.5 161.5zM132 390q0 -46 12.5 -93t31 -82t38.5 -63.5t35.5 -43t21.5 -14.5t10 10l241 515q10 20 10 25 q0 15 -47.5 26.5t-87.5 11.5q-110 0 -187.5 -74t-77.5 -218zM314 68q0 -12 45 -26t90 -14q34 0 71.5 10.5t74.5 32.5t66 53.5t47.5 77t18.5 98.5q0 67 -15 125.5t-36 93.5t-43.5 60.5t-37 36t-16.5 10.5q-4 0 -14.5 -21t-61.5 -130l-182 -390q-7 -12 -7 -17z" />
<glyph unicode="&#xd9;" horiz-adv-x="815" d="M326 900q0 13 21 19.5t32 6.5q12 0 20 -19q14 -34 27.5 -62t21.5 -42l15 -24l9 -15q3 -5 3 -9q0 -11 -12 -11q-10 0 -39 31q-98 103 -98 125zM20 697q0 5 1 7t6 4t16 2t46 -2t67 -2q20 0 36.5 1t57.5 1q21 0 21 -14q0 -9 -7 -11t-17.5 -3t-21 -7t-17.5 -29.5t-7 -63.5 v-28q0 -47 -0.5 -118.5t-0.5 -97.5q0 -31 0.5 -47t2.5 -46.5t5.5 -48t11.5 -43t19.5 -40.5t29 -33t40.5 -27.5t54 -16t69 -6.5q32 0 50 1t49.5 6.5t50 16t42 32t36.5 52.5t22 79t9 109q0 101 -0.5 154t-0.5 58q0 35 -1.5 55t-10 44t-24.5 35q-10 7 -26 10l-26 4q-10 1 -10 8 q0 16 20 16q6 0 39 -1t38 -1q24 0 51 1.5t34 1.5q21 0 21 -13q0 -8 -21.5 -20.5t-26.5 -22.5q-11 -21 -11 -66q0 -7 0.5 -28.5t0.5 -38.5q0 -192 -16 -294t-48.5 -148.5t-97.5 -74.5q-53 -22 -143 -22q-167 0 -237 64q-55 51 -68 122.5t-13 246.5v17q0 39 1 86t1 58 q0 55 -13 75.5t-61 27.5q-22 3 -22 19z" />
<glyph unicode="&#xda;" horiz-adv-x="815" d="M398 755q0 5 7 15.5t26.5 46.5t41.5 90q8 19 21 19q11 0 31.5 -6.5t20.5 -19.5q0 -23 -97 -125q-29 -31 -39 -31q-12 0 -12 11zM20 697q0 5 1 7t6 4t16 2t46 -2t67 -2q20 0 36.5 1t57.5 1q21 0 21 -14q0 -9 -7 -11t-17.5 -3t-21 -7t-17.5 -29.5t-7 -63.5v-28 q0 -47 -0.5 -118.5t-0.5 -97.5q0 -31 0.5 -47t2.5 -46.5t5.5 -48t11.5 -43t19.5 -40.5t29 -33t40.5 -27.5t54 -16t69 -6.5q32 0 50 1t49.5 6.5t50 16t42 32t36.5 52.5t22 79t9 109q0 101 -0.5 154t-0.5 58q0 35 -1.5 55t-10 44t-24.5 35q-10 7 -26 10l-26 4q-10 1 -10 8 q0 16 20 16q6 0 39 -1t38 -1q24 0 51 1.5t34 1.5q21 0 21 -13q0 -8 -21.5 -20.5t-26.5 -22.5q-11 -21 -11 -66q0 -7 0.5 -28.5t0.5 -38.5q0 -192 -16 -294t-48.5 -148.5t-97.5 -74.5q-53 -22 -143 -22q-167 0 -237 64q-55 51 -68 122.5t-13 246.5v17q0 39 1 86t1 58 q0 55 -13 75.5t-61 27.5q-22 3 -22 19z" />
<glyph unicode="&#xdb;" horiz-adv-x="815" d="M324 763q0 1 4 9l32 48q14 22 22 36l14 24q7 12 9.5 17.5t5.5 9t5 4.5t6 1h25q11 0 17 -11q16 -28 38 -61l35 -53q13 -19 13 -23q0 -8 -11 -8q-7 0 -53.5 42.5t-49.5 42.5q-6 0 -50.5 -42t-51.5 -42q-10 0 -10 6zM20 697q0 5 1 7t6 4t16 2t46 -2t67 -2q20 0 36.5 1 t57.5 1q21 0 21 -14q0 -9 -7 -11t-17.5 -3t-21 -7t-17.5 -29.5t-7 -63.5v-28q0 -47 -0.5 -118.5t-0.5 -97.5q0 -31 0.5 -47t2.5 -46.5t5.5 -48t11.5 -43t19.5 -40.5t29 -33t40.5 -27.5t54 -16t69 -6.5q32 0 50 1t49.5 6.5t50 16t42 32t36.5 52.5t22 79t9 109q0 101 -0.5 154 t-0.5 58q0 35 -1.5 55t-10 44t-24.5 35q-10 7 -26 10l-26 4q-10 1 -10 8q0 16 20 16q6 0 39 -1t38 -1q24 0 51 1.5t34 1.5q21 0 21 -13q0 -8 -21.5 -20.5t-26.5 -22.5q-11 -21 -11 -66q0 -7 0.5 -28.5t0.5 -38.5q0 -192 -16 -294t-48.5 -148.5t-97.5 -74.5q-53 -22 -143 -22 q-167 0 -237 64q-55 51 -68 122.5t-13 246.5v17q0 39 1 86t1 58q0 55 -13 75.5t-61 27.5q-22 3 -22 19z" />
<glyph unicode="&#xdc;" horiz-adv-x="815" d="M320 855q0 14 15.5 32.5t31.5 18.5q17 0 32.5 -17.5t15.5 -33.5t-17.5 -34.5t-25.5 -18.5q-20 0 -36 19.5t-16 33.5zM480 855q0 14 15.5 32.5t31.5 18.5q17 0 32.5 -17.5t15.5 -33.5t-17.5 -34.5t-26.5 -18.5q-20 0 -35.5 19.5t-15.5 33.5zM20 697q0 5 1 7t6 4t16 2 t46 -2t67 -2q20 0 36.5 1t57.5 1q21 0 21 -14q0 -9 -7 -11t-17.5 -3t-21 -7t-17.5 -29.5t-7 -63.5v-28q0 -47 -0.5 -118.5t-0.5 -97.5q0 -31 0.5 -47t2.5 -46.5t5.5 -48t11.5 -43t19.5 -40.5t29 -33t40.5 -27.5t54 -16t69 -6.5q32 0 50 1t49.5 6.5t50 16t42 32t36.5 52.5 t22 79t9 109q0 101 -0.5 154t-0.5 58q0 35 -1.5 55t-10 44t-24.5 35q-10 7 -26 10l-26 4q-10 1 -10 8q0 16 20 16q6 0 39 -1t38 -1q24 0 51 1.5t34 1.5q21 0 21 -13q0 -8 -21.5 -20.5t-26.5 -22.5q-11 -21 -11 -66q0 -7 0.5 -28.5t0.5 -38.5q0 -192 -16 -294t-48.5 -148.5 t-97.5 -74.5q-53 -22 -143 -22q-167 0 -237 64q-55 51 -68 122.5t-13 246.5v17q0 39 1 86t1 58q0 55 -13 75.5t-61 27.5q-22 3 -22 19z" />
<glyph unicode="&#xdd;" horiz-adv-x="712" d="M336 755q0 5 7 15.5t26.5 46.5t41.5 90q8 19 21 19q11 0 31.5 -6.5t20.5 -19.5q0 -23 -97 -125q-29 -31 -39 -31q-12 0 -12 11zM20 688q0 11 11.5 14t50.5 3q6 0 27.5 -1t30.5 -1q11 0 40.5 0.5t44.5 0.5q50 0 50 -12q0 -11 -21 -18.5t-21 -16.5q0 -10 6.5 -26t12.5 -26 l20 -29q13 -19 15 -23q34 -54 70.5 -103t41.5 -49q6 0 15 11.5t25 38.5t27 43q3 5 14 22l16 24l14 22q9 14 13 22l9 18q6 10 8 17t2 13q0 32 -34 40q-4 1 -11.5 2t-11 2t-8.5 3t-7 5.5t-2 8.5q0 12 28 12q5 0 18.5 -0.5t22.5 -0.5q23 0 55.5 -0.5t50.5 -0.5q49 0 49 -15 q0 -4 -6 -7t-17 -8t-20 -12q-41 -32 -120.5 -152t-90.5 -134q-16 -20 -20 -44t-4 -82q0 -13 0.5 -55.5t0.5 -60.5v-24q0 -33 11.5 -52t21.5 -22.5t20 -3.5q2 0 10 -0.5t10 -0.5q7 0 11 -4.5t4 -9.5q0 -10 -5 -13t-19 -3q-5 0 -43.5 0.5t-56.5 0.5q-35 0 -64 -2t-46 -2 q-28 0 -28 11q0 9 5.5 12.5t18.5 4.5t19 3q42 13 42 61q0 6 0.5 19.5t1 57.5t0.5 126q0 16 -2.5 27.5t-6 22.5t-17.5 32l-26 40l-44 66l-61 90q-31 47 -56 71.5t-38.5 29t-31.5 4.5q-25 0 -25 13z" />
<glyph unicode="&#xde;" horiz-adv-x="568" d="M20 695q0 15 28 15q10 0 46 -2t67 -2q19 0 36.5 1t51.5 1q27 0 27 -14q0 -8 -46 -27q-16 -7 -24 -36.5t-8 -58.5q0 -7 1.5 -9t9.5 -2q7 0 42 2t58 2q94 0 162 -48t68 -137q0 -49 -18 -87.5t-43.5 -60.5t-57.5 -36.5t-56.5 -19t-43.5 -4.5q-32 0 -65 8t-33 16q0 15 13 15 q5 0 21 -4t30 -4q23 0 49.5 6.5t54.5 21t46 44t18 68.5q0 67 -54.5 124.5t-149.5 57.5q-32 0 -42.5 -20t-10.5 -87v-171q-2 0 -2 -70v-21q0 -44 9 -72t23 -37t30 -13t30 -2.5t23 -3t9 -16.5q0 -16 -22 -16q-23 0 -81 2t-62 2q-10 0 -40 -2t-54 -2q-31 0 -31 12q0 7 1.5 11 t6 6.5t8 3.5t11.5 3l12 2q15 3 20 10q29 38 29 240q0 77 0.5 123.5t1 58t1 21.5t0.5 23v46q0 44 -4 73q-3 24 -26.5 37t-48.5 14q-21 1 -21 15z" />
<glyph unicode="&#xdf;" d="M20 8q0 7 8.5 10.5t19 5.5t19 14.5t8.5 36.5v292q0 1 -16.5 13.5t-16.5 18.5q0 11 16.5 14t16.5 10q0 127 55.5 213t144.5 86q22 0 42.5 -5t42 -17t34.5 -37.5t13 -62.5q0 -41 -19 -78t-41.5 -59t-41.5 -48.5t-19 -47.5q0 -30 32 -58.5t70 -50t70 -58.5t32 -81 q0 -13 -2.5 -28t-11 -34.5t-21.5 -34.5t-36.5 -25.5t-54.5 -10.5q-18 0 -36 3.5t-28.5 7t-23 8.5t-14.5 6q-4 1 -9.5 3t-8 2.5t-6.5 2.5t-5.5 3.5t-3.5 4.5t-2.5 7t-0.5 9v87q0 11 4.5 18.5t10.5 7.5q10 0 13.5 -4.5t6.5 -18.5t6 -20q0 -1 4 -11t7 -16l7 -16q5 -11 10 -18 l13 -15q7 -9 14.5 -14t18 -8.5t21.5 -3.5q28 0 51 19.5t23 58.5q0 25 -21 48.5t-51 42.5l-60 40q-30 20 -51 49.5t-21 63.5q0 25 11.5 49t28.5 46l33 45q17 23 28.5 55t11.5 68q0 49 -22.5 75.5t-55.5 26.5q-16 0 -31 -5.5t-32 -22.5t-29.5 -45t-20.5 -77.5t-8 -114.5 q0 -5 1 -30t1 -32l-2 -71q-3 -71 -3 -132v-70q0 -40 8.5 -56t29.5 -21q22 -5 22 -17q0 -9 -19 -9q-1 0 -12 1t-26.5 2t-25.5 1q-18 0 -50 -1.5t-34 -1.5q-16 0 -16 12z" />
<glyph unicode="&#xe0;" horiz-adv-x="461" d="M112 636q0 13 21 19.5t32 6.5q12 0 20 -19q14 -34 27.5 -62t21.5 -42l15 -24l9 -15q3 -5 3 -9q0 -11 -12 -11q-10 0 -39 31q-98 103 -98 125zM48 85q0 36 15 60.5t45.5 38t63.5 21.5t80 16l9 1q3 1 8 1.5t9 1.5q7 1 9.5 2t5 4.5t2.5 9.5q0 10 1 27.5t1 24.5 q0 57 -33 82.5t-64 25.5q-72 0 -72 -60q0 -8 2 -20t2 -16q0 -20 -18 -20q-6 0 -15 1.5t-20.5 5t-19 12t-7.5 20.5q0 39 52.5 74.5t115.5 35.5q43 0 73 -10t44.5 -22.5t22.5 -33t9 -32t1 -28.5q0 -72 -2.5 -113.5t-2.5 -72.5q0 -37 8 -58.5t19 -27.5t22 -7t19 -4t8 -12 q0 -21 -63 -21q-26 0 -44.5 14t-26.5 27.5t-9 13.5t-8 -6.5t-19.5 -15.5t-28 -18t-36 -15.5t-40.5 -6.5q-64 0 -93 30q-25 25 -25 70zM126 100q0 -34 20 -54.5t57 -20.5q26 0 44.5 8t27.5 18t14 26.5t5.5 25.5t0.5 24v72q0 9 -7 9q-2 0 -5 -1t-5 -1l-29 -5q-6 -1 -28 -6 t-30.5 -9t-24 -12.5t-22 -18t-12.5 -24t-6 -31.5z" />
<glyph unicode="&#xe1;" horiz-adv-x="461" d="M184 491q0 5 7 15.5t26.5 46.5t41.5 90q8 19 21 19q11 0 31.5 -6.5t20.5 -19.5q0 -23 -97 -125q-29 -31 -39 -31q-12 0 -12 11zM48 85q0 36 15 60.5t45.5 38t63.5 21.5t80 16l9 1q3 1 8 1.5t9 1.5q7 1 9.5 2t5 4.5t2.5 9.5q0 10 1 27.5t1 24.5q0 57 -33 82.5t-64 25.5 q-72 0 -72 -60q0 -8 2 -20t2 -16q0 -20 -18 -20q-6 0 -15 1.5t-20.5 5t-19 12t-7.5 20.5q0 39 52.5 74.5t115.5 35.5q43 0 73 -10t44.5 -22.5t22.5 -33t9 -32t1 -28.5q0 -72 -2.5 -113.5t-2.5 -72.5q0 -37 8 -58.5t19 -27.5t22 -7t19 -4t8 -12q0 -21 -63 -21q-26 0 -44.5 14 t-26.5 27.5t-9 13.5t-8 -6.5t-19.5 -15.5t-28 -18t-36 -15.5t-40.5 -6.5q-64 0 -93 30q-25 25 -25 70zM126 100q0 -34 20 -54.5t57 -20.5q26 0 44.5 8t27.5 18t14 26.5t5.5 25.5t0.5 24v72q0 9 -7 9q-2 0 -5 -1t-5 -1l-29 -5q-6 -1 -28 -6t-30.5 -9t-24 -12.5t-22 -18 t-12.5 -24t-6 -31.5z" />
<glyph unicode="&#xe2;" horiz-adv-x="461" d="M110 499q0 1 4 9l32 48q14 22 22 36l14 24q7 12 9.5 17.5t5.5 9t5 4.5t6 1h25q11 0 17 -11q16 -28 38 -61l35 -53q13 -19 13 -23q0 -8 -11 -8q-7 0 -53.5 42.5t-49.5 42.5q-6 0 -50.5 -42t-51.5 -42q-10 0 -10 6zM48 85q0 36 15 60.5t45.5 38t63.5 21.5t80 16l9 1 q3 1 8 1.5t9 1.5q7 1 9.5 2t5 4.5t2.5 9.5q0 10 1 27.5t1 24.5q0 57 -33 82.5t-64 25.5q-72 0 -72 -60q0 -8 2 -20t2 -16q0 -20 -18 -20q-6 0 -15 1.5t-20.5 5t-19 12t-7.5 20.5q0 39 52.5 74.5t115.5 35.5q43 0 73 -10t44.5 -22.5t22.5 -33t9 -32t1 -28.5 q0 -72 -2.5 -113.5t-2.5 -72.5q0 -37 8 -58.5t19 -27.5t22 -7t19 -4t8 -12q0 -21 -63 -21q-26 0 -44.5 14t-26.5 27.5t-9 13.5t-8 -6.5t-19.5 -15.5t-28 -18t-36 -15.5t-40.5 -6.5q-64 0 -93 30q-25 25 -25 70zM126 100q0 -34 20 -54.5t57 -20.5q26 0 44.5 8t27.5 18 t14 26.5t5.5 25.5t0.5 24v72q0 9 -7 9q-2 0 -5 -1t-5 -1l-29 -5q-6 -1 -28 -6t-30.5 -9t-24 -12.5t-22 -18t-12.5 -24t-6 -31.5z" />
<glyph unicode="&#xe3;" horiz-adv-x="461" d="M75 530q0 17 33.5 61.5t63.5 44.5q24 0 62 -24t63 -24q19 0 39.5 28t22.5 28q10 0 10 -12q0 -18 -33 -60t-63 -42q-26 0 -65.5 24t-60.5 24q-15 0 -28.5 -14t-22 -28t-11.5 -14q-10 0 -10 8zM48 85q0 36 15 60.5t45.5 38t63.5 21.5t80 16l9 1q3 1 8 1.5t9 1.5q7 1 9.5 2 t5 4.5t2.5 9.5q0 10 1 27.5t1 24.5q0 57 -33 82.5t-64 25.5q-72 0 -72 -60q0 -8 2 -20t2 -16q0 -20 -18 -20q-6 0 -15 1.5t-20.5 5t-19 12t-7.5 20.5q0 39 52.5 74.5t115.5 35.5q43 0 73 -10t44.5 -22.5t22.5 -33t9 -32t1 -28.5q0 -72 -2.5 -113.5t-2.5 -72.5q0 -37 8 -58.5 t19 -27.5t22 -7t19 -4t8 -12q0 -21 -63 -21q-26 0 -44.5 14t-26.5 27.5t-9 13.5t-8 -6.5t-19.5 -15.5t-28 -18t-36 -15.5t-40.5 -6.5q-64 0 -93 30q-25 25 -25 70zM126 100q0 -34 20 -54.5t57 -20.5q26 0 44.5 8t27.5 18t14 26.5t5.5 25.5t0.5 24v72q0 9 -7 9q-2 0 -5 -1 t-5 -1l-29 -5q-6 -1 -28 -6t-30.5 -9t-24 -12.5t-22 -18t-12.5 -24t-6 -31.5z" />
<glyph unicode="&#xe4;" horiz-adv-x="461" d="M106 591q0 14 15.5 32.5t31.5 18.5q17 0 32.5 -17.5t15.5 -33.5t-17.5 -34.5t-25.5 -18.5q-20 0 -36 19.5t-16 33.5zM266 591q0 14 15.5 32.5t31.5 18.5q17 0 32.5 -17.5t15.5 -33.5t-17.5 -34.5t-26.5 -18.5q-20 0 -35.5 19.5t-15.5 33.5zM48 85q0 36 15 60.5t45.5 38 t63.5 21.5t80 16l9 1q3 1 8 1.5t9 1.5q7 1 9.5 2t5 4.5t2.5 9.5q0 10 1 27.5t1 24.5q0 57 -33 82.5t-64 25.5q-72 0 -72 -60q0 -8 2 -20t2 -16q0 -20 -18 -20q-6 0 -15 1.5t-20.5 5t-19 12t-7.5 20.5q0 39 52.5 74.5t115.5 35.5q43 0 73 -10t44.5 -22.5t22.5 -33t9 -32 t1 -28.5q0 -72 -2.5 -113.5t-2.5 -72.5q0 -37 8 -58.5t19 -27.5t22 -7t19 -4t8 -12q0 -21 -63 -21q-26 0 -44.5 14t-26.5 27.5t-9 13.5t-8 -6.5t-19.5 -15.5t-28 -18t-36 -15.5t-40.5 -6.5q-64 0 -93 30q-25 25 -25 70zM126 100q0 -34 20 -54.5t57 -20.5q26 0 44.5 8 t27.5 18t14 26.5t5.5 25.5t0.5 24v72q0 9 -7 9q-2 0 -5 -1t-5 -1l-29 -5q-6 -1 -28 -6t-30.5 -9t-24 -12.5t-22 -18t-12.5 -24t-6 -31.5z" />
<glyph unicode="&#xe5;" horiz-adv-x="461" d="M146 591q0 26 23 51.5t55 25.5q37 0 55.5 -27t18.5 -54q0 -36 -28.5 -56.5t-46.5 -20.5q-31 0 -49.5 16.5t-23 32.5t-4.5 32zM184 590q0 -18 11 -29.5t28 -11.5q5 0 12.5 2.5t16 12t8.5 24.5q0 41 -37 41q-14 0 -26.5 -11.5t-12.5 -27.5zM48 85q0 36 15 60.5t45.5 38 t63.5 21.5t80 16l9 1q3 1 8 1.5t9 1.5q7 1 9.5 2t5 4.5t2.5 9.5q0 10 1 27.5t1 24.5q0 57 -33 82.5t-64 25.5q-72 0 -72 -60q0 -8 2 -20t2 -16q0 -20 -18 -20q-6 0 -15 1.5t-20.5 5t-19 12t-7.5 20.5q0 39 52.5 74.5t115.5 35.5q43 0 73 -10t44.5 -22.5t22.5 -33t9 -32 t1 -28.5q0 -72 -2.5 -113.5t-2.5 -72.5q0 -37 8 -58.5t19 -27.5t22 -7t19 -4t8 -12q0 -21 -63 -21q-26 0 -44.5 14t-26.5 27.5t-9 13.5t-8 -6.5t-19.5 -15.5t-28 -18t-36 -15.5t-40.5 -6.5q-64 0 -93 30q-25 25 -25 70zM126 100q0 -34 20 -54.5t57 -20.5q26 0 44.5 8 t27.5 18t14 26.5t5.5 25.5t0.5 24v72q0 9 -7 9q-2 0 -5 -1t-5 -1l-29 -5q-6 -1 -28 -6t-30.5 -9t-24 -12.5t-22 -18t-12.5 -24t-6 -31.5z" />
<glyph unicode="&#xe6;" horiz-adv-x="723" d="M48 85q0 36 15 60.5t45 38t63 21.5t79 16q21 3 31 5q11 2 13.5 10.5t2.5 56.5q0 39 -19 65.5t-39.5 34.5t-38.5 8q-72 0 -72 -60q0 -8 2 -20t2 -16q0 -20 -18 -20q-6 0 -15 1.5t-20.5 5t-19 12t-7.5 20.5q0 39 52.5 74.5t115.5 35.5q35 0 61 -6t39.5 -14.5t21.5 -17.5 t12 -15t6 -6q1 0 7.5 6t18 14.5t27 16.5t38.5 14t48 6q42 0 76.5 -15t53.5 -36.5t32 -45.5t17.5 -39.5t4.5 -22.5q0 -18 -41 -18h-227h-30q-8 0 -9.5 -1.5t-1.5 -9.5q0 -94 50.5 -148t117.5 -54q42 0 86 22.5t46 22.5q10 0 10 -9q0 -4 -7 -14.5t-22 -24.5t-35 -27t-50 -22 t-63 -9q-37 0 -68.5 9t-50.5 22t-32.5 26t-20.5 22t-8 9t-7.5 -8.5t-18.5 -21t-29 -25t-45 -21t-61 -8.5q-64 0 -93 30q-25 25 -25 70zM126 100q0 -34 20 -54.5t57 -20.5q26 0 44.5 8t27.5 18t14 26.5t5.5 25.5t0.5 24v72q0 9 -4 9q-64 -8 -101 -23q-64 -27 -64 -85z M380 293q0 -14 13 -14q27 0 99 3t77 3q14 0 17.5 2.5t3.5 9.5q0 30 -28 70t-80 40q-48 0 -75 -39.5t-27 -74.5z" />
<glyph unicode="&#xe7;" horiz-adv-x="452" d="M203 -79q0 3 20 18q2 1 8 6.5t11 8t11 2.5q5 0 16 -5.5t23.5 -20.5t12.5 -35q0 -43 -32 -69.5t-51 -26.5q-9 0 -9 7q0 3 10.5 8.5t21 17t10.5 29.5q0 19 -13 29.5t-26 16.5t-13 14zM39 192q0 96 64.5 166.5t167.5 70.5q35 0 75.5 -10t41.5 -23q2 -24 2 -47q0 -44 -11 -44 q-6 0 -10.5 4.5t-10 13.5t-12.5 14q-22 19 -59.5 36t-73.5 17q-7 0 -18 -3.5t-25.5 -15t-26.5 -29t-20.5 -48.5t-8.5 -70q0 -78 49.5 -135.5t121.5 -57.5q35 0 65 13t46.5 26t20.5 13q11 0 11 -10q0 -3 -6.5 -13t-21 -24t-34.5 -26.5t-52 -21.5t-68 -9q-94 0 -150.5 57 t-56.5 156z" />
<glyph unicode="&#xe8;" horiz-adv-x="466" d="M122 636q0 13 21 19.5t32 6.5q12 0 20 -19q14 -34 27.5 -62t21.5 -42l15 -24l9 -15q3 -5 3 -9q0 -11 -12 -11q-10 0 -39 31q-98 103 -98 125zM39 194q0 100 56.5 169t146.5 69q42 0 76.5 -15t53.5 -36.5t32 -45.5t17.5 -39.5t4.5 -22.5q0 -18 -41 -18h-227h-30 q-8 0 -9.5 -1.5t-1.5 -9.5q0 -94 50.5 -148t118.5 -54q42 0 85.5 22.5t45.5 22.5q10 0 10 -9q0 -4 -7 -14.5t-22 -24.5t-35 -27t-50 -22t-63 -9q-88 0 -149.5 54t-61.5 159zM123 293q0 -14 13 -14q27 0 99 3t77 3q14 0 17.5 2.5t3.5 9.5q0 30 -28 70t-80 40q-48 0 -75 -39.5 t-27 -74.5z" />
<glyph unicode="&#xe9;" horiz-adv-x="466" d="M194 491q0 5 7 15.5t26.5 46.5t41.5 90q8 19 21 19q11 0 31.5 -6.5t20.5 -19.5q0 -23 -97 -125q-29 -31 -39 -31q-12 0 -12 11zM39 194q0 100 56.5 169t146.5 69q42 0 76.5 -15t53.5 -36.5t32 -45.5t17.5 -39.5t4.5 -22.5q0 -18 -41 -18h-227h-30q-8 0 -9.5 -1.5 t-1.5 -9.5q0 -94 50.5 -148t118.5 -54q42 0 85.5 22.5t45.5 22.5q10 0 10 -9q0 -4 -7 -14.5t-22 -24.5t-35 -27t-50 -22t-63 -9q-88 0 -149.5 54t-61.5 159zM123 293q0 -14 13 -14q27 0 99 3t77 3q14 0 17.5 2.5t3.5 9.5q0 30 -28 70t-80 40q-48 0 -75 -39.5t-27 -74.5z" />
<glyph unicode="&#xea;" horiz-adv-x="466" d="M120 499q0 1 4 9l32 48q14 22 22 36l14 24q7 12 9.5 17.5t5.5 9t5 4.5t6 1h25q11 0 17 -11q16 -28 38 -61l35 -53q13 -19 13 -23q0 -8 -11 -8q-7 0 -53.5 42.5t-49.5 42.5q-6 0 -50.5 -42t-51.5 -42q-10 0 -10 6zM39 194q0 100 56.5 169t146.5 69q42 0 76.5 -15 t53.5 -36.5t32 -45.5t17.5 -39.5t4.5 -22.5q0 -18 -41 -18h-227h-30q-8 0 -9.5 -1.5t-1.5 -9.5q0 -94 50.5 -148t118.5 -54q42 0 85.5 22.5t45.5 22.5q10 0 10 -9q0 -4 -7 -14.5t-22 -24.5t-35 -27t-50 -22t-63 -9q-88 0 -149.5 54t-61.5 159zM123 293q0 -14 13 -14 q27 0 99 3t77 3q14 0 17.5 2.5t3.5 9.5q0 30 -28 70t-80 40q-48 0 -75 -39.5t-27 -74.5z" />
<glyph unicode="&#xeb;" horiz-adv-x="466" d="M116 591q0 14 15.5 32.5t31.5 18.5q17 0 32.5 -17.5t15.5 -33.5t-17.5 -34.5t-25.5 -18.5q-20 0 -36 19.5t-16 33.5zM276 591q0 14 15.5 32.5t31.5 18.5q17 0 32.5 -17.5t15.5 -33.5t-17.5 -34.5t-26.5 -18.5q-20 0 -35.5 19.5t-15.5 33.5zM39 194q0 100 56.5 169 t146.5 69q42 0 76.5 -15t53.5 -36.5t32 -45.5t17.5 -39.5t4.5 -22.5q0 -18 -41 -18h-227h-30q-8 0 -9.5 -1.5t-1.5 -9.5q0 -94 50.5 -148t118.5 -54q42 0 85.5 22.5t45.5 22.5q10 0 10 -9q0 -4 -7 -14.5t-22 -24.5t-35 -27t-50 -22t-63 -9q-88 0 -149.5 54t-61.5 159z M123 293q0 -14 13 -14q27 0 99 3t77 3q14 0 17.5 2.5t3.5 9.5q0 30 -28 70t-80 40q-48 0 -75 -39.5t-27 -74.5z" />
<glyph unicode="&#xec;" horiz-adv-x="284" d="M14 636q0 13 21 19.5t32 6.5q12 0 20 -19q14 -34 27.5 -62t21.5 -42l15 -24l9 -15q3 -5 3 -9q0 -11 -12 -11q-10 0 -39 31q-98 103 -98 125zM36 381q0 5 2.5 8t10 6.5t15.5 6t23.5 8t29.5 11.5l21 9q9 4 12 5.5t7 2.5t10 1q15 0 15 -19q0 -5 -3 -22t-3 -26v-274 q0 -30 9 -47t21.5 -21t25 -4.5t21.5 -3.5t9 -12q0 -17 -17 -17q-2 0 -7 0.5t-8 0.5q-22 0 -37 1t-34 1q-24 0 -45 -1t-26 -1q-40 0 -40 13q0 14 15 19q1 0 4 1q23 8 28 20q9 20 9 159v88q0 29 -7 46t-13 21t-20.5 6.5t-17.5 3.5q-10 4 -10 10z" />
<glyph unicode="&#xed;" horiz-adv-x="284" d="M86 491q0 5 7 15.5t26.5 46.5t41.5 90q8 19 21 19q11 0 31.5 -6.5t20.5 -19.5q0 -23 -97 -125q-29 -31 -39 -31q-12 0 -12 11zM36 381q0 5 2.5 8t10 6.5t15.5 6t23.5 8t29.5 11.5l21 9q9 4 12 5.5t7 2.5t10 1q15 0 15 -19q0 -5 -3 -22t-3 -26v-274q0 -30 9 -47t21.5 -21 t25 -4.5t21.5 -3.5t9 -12q0 -17 -17 -17q-2 0 -7 0.5t-8 0.5q-22 0 -37 1t-34 1q-24 0 -45 -1t-26 -1q-40 0 -40 13q0 14 15 19q1 0 4 1q23 8 28 20q9 20 9 159v88q0 29 -7 46t-13 21t-20.5 6.5t-17.5 3.5q-10 4 -10 10z" />
<glyph unicode="&#xee;" horiz-adv-x="284" d="M12 499q0 1 4 9l32 48q14 22 22 36l14 24q7 12 9.5 17.5t5.5 9t5 4.5t6 1h25q11 0 17 -11q16 -28 38 -61l35 -53q13 -19 13 -23q0 -8 -11 -8q-7 0 -53.5 42.5t-49.5 42.5q-6 0 -50.5 -42t-51.5 -42q-10 0 -10 6zM36 381q0 5 2.5 8t10 6.5t15.5 6t23.5 8t29.5 11.5l21 9 q9 4 12 5.5t7 2.5t10 1q15 0 15 -19q0 -5 -3 -22t-3 -26v-274q0 -30 9 -47t21.5 -21t25 -4.5t21.5 -3.5t9 -12q0 -17 -17 -17q-2 0 -7 0.5t-8 0.5q-22 0 -37 1t-34 1q-24 0 -45 -1t-26 -1q-40 0 -40 13q0 14 15 19q1 0 4 1q23 8 28 20q9 20 9 159v88q0 29 -7 46t-13 21 t-20.5 6.5t-17.5 3.5q-10 4 -10 10z" />
<glyph unicode="&#xef;" horiz-adv-x="284" d="M8 591q0 14 15.5 32.5t31.5 18.5q17 0 32.5 -17.5t15.5 -33.5t-17.5 -34.5t-25.5 -18.5q-20 0 -36 19.5t-16 33.5zM168 591q0 14 15.5 32.5t31.5 18.5q17 0 32.5 -17.5t15.5 -33.5t-17.5 -34.5t-26.5 -18.5q-20 0 -35.5 19.5t-15.5 33.5zM36 381q0 5 2.5 8t10 6.5t15.5 6 t23.5 8t29.5 11.5l21 9q9 4 12 5.5t7 2.5t10 1q15 0 15 -19q0 -5 -3 -22t-3 -26v-274q0 -30 9 -47t21.5 -21t25 -4.5t21.5 -3.5t9 -12q0 -17 -17 -17q-2 0 -7 0.5t-8 0.5q-22 0 -37 1t-34 1q-24 0 -45 -1t-26 -1q-40 0 -40 13q0 14 15 19q1 0 4 1q23 8 28 20q9 20 9 159v88 q0 29 -7 46t-13 21t-20.5 6.5t-17.5 3.5q-10 4 -10 10z" />
<glyph unicode="&#xf0;" horiz-adv-x="547" d="M39 203q0 92 62.5 160t173.5 68q37 0 81 -24q10 -5 22 -15l20 -18q8 -8 11 -8q4 0 4 4q0 12 -15 46t-36 69q-21 36 -42 64.5t-27 28.5q-1 0 -13 -4l-142 -57l-2 -1h-3q-9 0 -15 10t-6 19q0 7 9 11l133 54q9 3 9 7q0 2 -9 11q-40 45 -80 70.5t-58 32.5t-18 12q0 12 24 12 h24q29 0 74.5 -25.5t93.5 -71.5q15 -15 20 -15q2 0 14 4l122 49q12 5 17 5q9 0 13.5 -11.5t4.5 -17.5q0 -10 -20 -18l-105 -42q-14 -5 -14 -8q0 -1 14.5 -18.5t35.5 -50t42 -75t35.5 -104.5t14.5 -127q0 -111 -68.5 -179t-171.5 -68q-108 0 -168.5 65.5t-60.5 155.5z M118 237q0 -103 55 -164t125 -61q57 0 97 43.5t40 123.5q0 82 -23 129q-7 15 -30 36.5t-39 31.5q-41 28 -92 28q-52 0 -92.5 -41t-40.5 -126z" />
<glyph unicode="&#xf1;" horiz-adv-x="591" d="M156 530q0 17 33.5 61.5t63.5 44.5q24 0 62 -24t63 -24q19 0 39.5 28t22.5 28q10 0 10 -12q0 -18 -33 -60t-63 -42q-26 0 -65.5 24t-60.5 24q-15 0 -28.5 -14t-22 -28t-11.5 -14q-10 0 -10 8zM31 390q0 6 6.5 9t21.5 5t21 4q19 5 39.5 13.5t33 14.5t16.5 6h2q9 0 9 -12 q0 -2 -1 -18t-1 -25q0 -26 5 -26q3 0 7 5.5t14.5 16t25.5 19.5q45 28 87 28q40 0 72 -12.5t50 -31t30 -42.5t16 -44t4 -38v-10q0 -5 0.5 -13.5t0.5 -39.5v-80v-22q0 -38 10.5 -52.5t50.5 -20.5q20 -3 20 -15q0 -10 -20 -10q-23 0 -48 2.5t-34 2.5q-14 0 -43.5 -2t-33.5 -2 q-20 0 -20 13q0 5 3.5 8t8 4t8.5 2l5 1q22 7 22 67v135q0 77 -38 116.5t-91 39.5q-43 0 -75 -23t-37 -38q-9 -25 -9 -158v-38q0 -50 10.5 -74t46.5 -27q10 0 25.5 -3.5t15.5 -11.5q0 -13 -19 -13q-17 0 -33 2t-40 2q-26 0 -69 -2l-43 -2q-15 0 -15 10q0 8 5 10t12.5 3t15 6 t13.5 24.5t7 52.5q2 56 2 75v144q0 32 -11.5 43t-31.5 11h-10q-19 0 -19 11z" />
<glyph unicode="&#xf2;" horiz-adv-x="547" d="M156 636q0 13 21 19.5t32 6.5q12 0 20 -19q14 -34 27.5 -62t21.5 -42l15 -24l9 -15q3 -5 3 -9q0 -11 -12 -11q-10 0 -39 31q-98 103 -98 125zM39 203q0 92 62.5 160t173.5 68q94 0 163.5 -59t69.5 -163q0 -106 -71.5 -166.5t-168.5 -60.5q-108 0 -168.5 65.5t-60.5 155.5 zM118 237q0 -103 55 -164t125 -61q57 0 96 43.5t39 123.5q0 88 -48 156.5t-134 68.5q-52 0 -92.5 -41t-40.5 -126z" />
<glyph unicode="&#xf3;" horiz-adv-x="547" d="M228 491q0 5 7 15.5t26.5 46.5t41.5 90q8 19 21 19q11 0 31.5 -6.5t20.5 -19.5q0 -23 -97 -125q-29 -31 -39 -31q-12 0 -12 11zM39 203q0 92 62.5 160t173.5 68q94 0 163.5 -59t69.5 -163q0 -106 -71.5 -166.5t-168.5 -60.5q-108 0 -168.5 65.5t-60.5 155.5zM118 237 q0 -103 55 -164t125 -61q57 0 96 43.5t39 123.5q0 88 -48 156.5t-134 68.5q-52 0 -92.5 -41t-40.5 -126z" />
<glyph unicode="&#xf4;" horiz-adv-x="547" d="M154 499q0 1 4 9l32 48q14 22 22 36l14 24q7 12 9.5 17.5t5.5 9t5 4.5t6 1h25q11 0 17 -11q16 -28 38 -61l35 -53q13 -19 13 -23q0 -8 -11 -8q-7 0 -53.5 42.5t-49.5 42.5q-6 0 -50.5 -42t-51.5 -42q-10 0 -10 6zM39 203q0 92 62.5 160t173.5 68q94 0 163.5 -59 t69.5 -163q0 -106 -71.5 -166.5t-168.5 -60.5q-108 0 -168.5 65.5t-60.5 155.5zM118 237q0 -103 55 -164t125 -61q57 0 96 43.5t39 123.5q0 88 -48 156.5t-134 68.5q-52 0 -92.5 -41t-40.5 -126z" />
<glyph unicode="&#xf5;" horiz-adv-x="547" d="M119 530q0 17 33.5 61.5t63.5 44.5q24 0 62 -24t63 -24q19 0 39.5 28t22.5 28q10 0 10 -12q0 -18 -33 -60t-63 -42q-26 0 -65.5 24t-60.5 24q-15 0 -28.5 -14t-22 -28t-11.5 -14q-10 0 -10 8zM39 203q0 92 62.5 160t173.5 68q94 0 163.5 -59t69.5 -163 q0 -106 -71.5 -166.5t-168.5 -60.5q-108 0 -168.5 65.5t-60.5 155.5zM118 237q0 -103 55 -164t125 -61q57 0 96 43.5t39 123.5q0 88 -48 156.5t-134 68.5q-52 0 -92.5 -41t-40.5 -126z" />
<glyph unicode="&#xf6;" horiz-adv-x="547" d="M150 591q0 14 15.5 32.5t31.5 18.5q17 0 32.5 -17.5t15.5 -33.5t-17.5 -34.5t-25.5 -18.5q-20 0 -36 19.5t-16 33.5zM310 591q0 14 15.5 32.5t31.5 18.5q17 0 32.5 -17.5t15.5 -33.5t-17.5 -34.5t-26.5 -18.5q-20 0 -35.5 19.5t-15.5 33.5zM39 203q0 92 62.5 160 t173.5 68q94 0 163.5 -59t69.5 -163q0 -106 -71.5 -166.5t-168.5 -60.5q-108 0 -168.5 65.5t-60.5 155.5zM118 237q0 -103 55 -164t125 -61q57 0 96 43.5t39 123.5q0 88 -48 156.5t-134 68.5q-52 0 -92.5 -41t-40.5 -126z" />
<glyph unicode="&#xf7;" d="M212 320q0 16 12.5 28.5t29.5 12.5q16 0 28 -11.5t12 -28.5t-12 -29t-29 -12t-29 12t-12 28zM217 101q0 16 12 28t29 12q16 0 28.5 -12.5t12.5 -28.5t-11.5 -28t-28.5 -12t-29.5 12t-12.5 29zM31 212q0 8 0.5 11.5t4.5 6t13 2.5h431q8 0 11.5 -2.5t4 -6t0.5 -12.5 q0 -14 -3 -18.5t-18 -4.5h-427q-9 0 -12.5 3t-4 6.5t-0.5 14.5z" />
<glyph unicode="&#xf8;" horiz-adv-x="547" d="M39 203q0 92 62.5 160t173.5 68q25 0 47 -4.5t23 -4.5q6 0 12 13q23 49 27.5 57t10.5 8q7 0 18.5 -5t11.5 -13q0 -3 -24 -56l-3 -5q-1 -3 -2 -4.5t-2 -3.5t-1 -4q0 -7 10 -12q105 -60 105 -188q0 -106 -71.5 -166.5t-168.5 -60.5q-18 0 -33 2t-23 3.5t-10 1.5q-5 0 -8 -7 q-44 -86 -47 -87q-8 0 -20 5.5t-12 13.5q0 3 19.5 44.5t19.5 43.5q0 6 -9 10q-52 29 -79 80.5t-27 110.5zM118 237q0 -52 16.5 -95t30.5 -60t17 -17t6 8l137 293q1 3 3.5 7t2.5 6q0 8 -26 16.5t-54 8.5q-52 0 -92.5 -41t-40.5 -126zM221 37q0 -7 26 -16t51 -9q57 0 96 43.5 t39 123.5q0 49 -15.5 92.5t-30 62.5t-17.5 19q-2 0 -5 -6q-103 -227 -141 -303z" />
<glyph unicode="&#xf9;" horiz-adv-x="576" d="M170 636q0 13 21 19.5t32 6.5q12 0 20 -19q14 -34 27.5 -62t21.5 -42l15 -24l9 -15q3 -5 3 -9q0 -11 -12 -11q-10 0 -39 31q-98 103 -98 125zM29 394q0 7 4.5 11.5t19.5 7.5t43 3q7 0 31 2.5t26 2.5q17 0 20 -7t3 -43q0 -20 -2.5 -68.5t-2.5 -107.5q0 -88 34 -124.5 t77 -36.5q64 0 93 27t29 95l-2 138q0 50 -8 67.5t-38 20.5q-22 2 -22 13q0 23 88 23q8 0 20 2.5t16 2.5q15 0 19.5 -5t4.5 -23q0 -1 -0.5 -15.5t-1 -38.5t-1.5 -54t-1.5 -69.5t-0.5 -77.5q0 -61 6 -83t22 -22q5 0 13.5 0.5t12.5 0.5q24 0 24 -13q0 -11 -7 -14t-30 -3 q-17 0 -57.5 -5.5t-43.5 -5.5q-7 0 -11.5 25.5t-6.5 25.5q-1 0 -19 -16t-51.5 -32t-73.5 -16q-161 0 -161 174q0 97 0.5 137.5t0.5 42.5q0 20 -10.5 32t-19.5 12h-18q-18 0 -18 14z" />
<glyph unicode="&#xfa;" horiz-adv-x="576" d="M242 491q0 5 7 15.5t26.5 46.5t41.5 90q8 19 21 19q11 0 31.5 -6.5t20.5 -19.5q0 -23 -97 -125q-29 -31 -39 -31q-12 0 -12 11zM29 394q0 7 4.5 11.5t19.5 7.5t43 3q7 0 31 2.5t26 2.5q17 0 20 -7t3 -43q0 -20 -2.5 -68.5t-2.5 -107.5q0 -88 34 -124.5t77 -36.5 q64 0 93 27t29 95l-2 138q0 50 -8 67.5t-38 20.5q-22 2 -22 13q0 23 88 23q8 0 20 2.5t16 2.5q15 0 19.5 -5t4.5 -23q0 -1 -0.5 -15.5t-1 -38.5t-1.5 -54t-1.5 -69.5t-0.5 -77.5q0 -61 6 -83t22 -22q5 0 13.5 0.5t12.5 0.5q24 0 24 -13q0 -11 -7 -14t-30 -3 q-17 0 -57.5 -5.5t-43.5 -5.5q-7 0 -11.5 25.5t-6.5 25.5q-1 0 -19 -16t-51.5 -32t-73.5 -16q-161 0 -161 174q0 97 0.5 137.5t0.5 42.5q0 20 -10.5 32t-19.5 12h-18q-18 0 -18 14z" />
<glyph unicode="&#xfb;" horiz-adv-x="576" d="M168 499q0 1 4 9l32 48q14 22 22 36l14 24q7 12 9.5 17.5t5.5 9t5 4.5t6 1h25q11 0 17 -11q16 -28 38 -61l35 -53q13 -19 13 -23q0 -8 -11 -8q-7 0 -53.5 42.5t-49.5 42.5q-6 0 -50.5 -42t-51.5 -42q-10 0 -10 6zM29 394q0 7 4.5 11.5t19.5 7.5t43 3q7 0 31 2.5t26 2.5 q17 0 20 -7t3 -43q0 -20 -2.5 -68.5t-2.5 -107.5q0 -88 34 -124.5t77 -36.5q64 0 93 27t29 95l-2 138q0 50 -8 67.5t-38 20.5q-22 2 -22 13q0 23 88 23q8 0 20 2.5t16 2.5q15 0 19.5 -5t4.5 -23q0 -1 -0.5 -15.5t-1 -38.5t-1.5 -54t-1.5 -69.5t-0.5 -77.5q0 -61 6 -83 t22 -22q5 0 13.5 0.5t12.5 0.5q24 0 24 -13q0 -11 -7 -14t-30 -3q-17 0 -57.5 -5.5t-43.5 -5.5q-7 0 -11.5 25.5t-6.5 25.5q-1 0 -19 -16t-51.5 -32t-73.5 -16q-161 0 -161 174q0 97 0.5 137.5t0.5 42.5q0 20 -10.5 32t-19.5 12h-18q-18 0 -18 14z" />
<glyph unicode="&#xfc;" horiz-adv-x="576" d="M164 591q0 14 15.5 32.5t31.5 18.5q17 0 32.5 -17.5t15.5 -33.5t-17.5 -34.5t-25.5 -18.5q-20 0 -36 19.5t-16 33.5zM324 591q0 14 15.5 32.5t31.5 18.5q17 0 32.5 -17.5t15.5 -33.5t-17.5 -34.5t-26.5 -18.5q-20 0 -35.5 19.5t-15.5 33.5zM29 394q0 7 4.5 11.5t19.5 7.5 t43 3q7 0 31 2.5t26 2.5q17 0 20 -7t3 -43q0 -20 -2.5 -68.5t-2.5 -107.5q0 -88 34 -124.5t77 -36.5q64 0 93 27t29 95l-2 138q0 50 -8 67.5t-38 20.5q-22 2 -22 13q0 23 88 23q8 0 20 2.5t16 2.5q15 0 19.5 -5t4.5 -23q0 -1 -0.5 -15.5t-1 -38.5t-1.5 -54t-1.5 -69.5 t-0.5 -77.5q0 -61 6 -83t22 -22q5 0 13.5 0.5t12.5 0.5q24 0 24 -13q0 -11 -7 -14t-30 -3q-17 0 -57.5 -5.5t-43.5 -5.5q-7 0 -11.5 25.5t-6.5 25.5q-1 0 -19 -16t-51.5 -32t-73.5 -16q-161 0 -161 174q0 97 0.5 137.5t0.5 42.5q0 20 -10.5 32t-19.5 12h-18q-18 0 -18 14z " />
<glyph unicode="&#xfd;" horiz-adv-x="498" d="M221 491q0 5 7 15.5t26.5 46.5t41.5 90q8 19 21 19q11 0 31.5 -6.5t20.5 -19.5q0 -23 -97 -125q-29 -31 -39 -31q-12 0 -12 11zM20 412q0 12 20 12q28 0 57.5 -1t49.5 -1q17 0 30.5 1t26.5 1q7 0 12.5 -3.5t5.5 -7.5q0 -18 -24 -18h-15q-16 0 -16 -28q0 -22 43 -117 q3 -8 5 -12l5 -12l7 -15l20 -45q14 -32 21.5 -47t11.5 -15q6 0 46.5 115t40.5 139q0 20 -9.5 29t-21.5 8.5t-21.5 3t-9.5 14.5q0 12 19 12q15 0 39.5 -0.5t32.5 -0.5q10 0 34.5 0.5t27.5 0.5q21 0 21 -13q0 -10 -17.5 -14.5t-23.5 -12.5q-16 -23 -54 -126l-89 -237l-22 -60 l-18 -49l-14 -38l-11 -29q-4 -11 -8.5 -20t-8 -12.5t-6.5 -3.5h-3q-3 0 -13 -0.5t-30 -0.5q-19 0 -19 13q0 3 22.5 31t45.5 69t23 75q0 29 -57 153t-99 203q-11 20 -22.5 31t-18.5 12t-11.5 4t-4.5 12z" />
<glyph unicode="&#xfe;" horiz-adv-x="544" d="M20 693q0 6 1.5 9t6.5 5.5t11.5 4t20.5 6t28 10.5q8 3 25 11t29.5 12.5t21.5 4.5q12 0 12 -19q0 -4 -2 -23.5t-4 -54t-2 -74.5v-56q0 -25 -0.5 -76.5t-0.5 -60.5q0 -28 2 -28q1 0 19 17.5t53.5 35t79.5 17.5q89 0 136.5 -58.5t47.5 -142.5q0 -93 -58.5 -167.5 t-156.5 -74.5q-46 0 -74.5 9.5t-39.5 19t-15 9.5q-3 0 -3 -8v-110v-13q0 -20 16 -47q11 -18 33.5 -21t38.5 -4t16 -14q0 -12 -34 -12q-6 0 -32 2t-72 2q-18 0 -38.5 -1.5t-24.5 -1.5q-35 0 -35 10q0 9 10 13t21.5 7t21.5 24.5t10 62.5v20q0 118 1.5 196t1.5 80v22 q0 14 1.5 176t1.5 205q0 23 -7.5 41.5t-16.5 22.5t-40 4q-11 0 -11 8zM158 192q0 -10 0.5 -25t0.5 -25q0 -35 15 -60t38.5 -37.5t47 -18t46.5 -5.5q65 0 99 47.5t34 116.5q0 79 -42 139t-114 60q-52 0 -92 -32q-20 -16 -26.5 -43t-6.5 -117z" />
<glyph unicode="&#xff;" horiz-adv-x="498" d="M143 591q0 14 15.5 32.5t31.5 18.5q17 0 32.5 -17.5t15.5 -33.5t-17.5 -34.5t-25.5 -18.5q-20 0 -36 19.5t-16 33.5zM303 591q0 14 15.5 32.5t31.5 18.5q17 0 32.5 -17.5t15.5 -33.5t-17.5 -34.5t-26.5 -18.5q-20 0 -35.5 19.5t-15.5 33.5zM20 412q0 12 20 12 q28 0 57.5 -1t49.5 -1q17 0 30.5 1t26.5 1q7 0 12.5 -3.5t5.5 -7.5q0 -18 -24 -18h-15q-16 0 -16 -28q0 -22 43 -117q3 -8 5 -12l5 -12l7 -15l20 -45q14 -32 21.5 -47t11.5 -15q6 0 46.5 115t40.5 139q0 20 -9.5 29t-21.5 8.5t-21.5 3t-9.5 14.5q0 12 19 12q15 0 39.5 -0.5 t32.5 -0.5q10 0 34.5 0.5t27.5 0.5q21 0 21 -13q0 -10 -17.5 -14.5t-23.5 -12.5q-16 -23 -54 -126l-89 -237l-22 -60l-18 -49l-14 -38l-11 -29q-4 -11 -8.5 -20t-8 -12.5t-6.5 -3.5h-3q-3 0 -13 -0.5t-30 -0.5q-19 0 -19 13q0 3 22.5 31t45.5 69t23 75q0 29 -57 153t-99 203 q-11 20 -22.5 31t-18.5 12t-11.5 4t-4.5 12z" />
<glyph unicode="&#x131;" horiz-adv-x="284" d="M36 381q0 5 2.5 8t10 6.5t15.5 6t23.5 8t29.5 11.5l21 9q9 4 12 5.5t7 2.5t10 1q15 0 15 -19q0 -5 -3 -22t-3 -26v-274q0 -30 9 -47t21.5 -21t25 -4.5t21.5 -3.5t9 -12q0 -17 -17 -17q-2 0 -7 0.5t-8 0.5q-22 0 -37 1t-34 1q-24 0 -45 -1t-26 -1q-40 0 -40 13q0 14 15 19 q1 0 4 1q23 8 28 20q9 20 9 159v88q0 29 -7 46t-13 21t-20.5 6.5t-17.5 3.5q-10 4 -10 10z" />
<glyph unicode="&#x152;" horiz-adv-x="1042" d="M44 339q0 168 101 275.5t286 107.5q23 0 99.5 -8t226.5 -8q21 0 104 2t97 2q18 0 18 -23q0 -6 -6 -39.5t-6 -62.5q0 -9 -4.5 -15.5t-10.5 -6.5q-15 0 -15 21q0 27 -17.5 49t-42.5 23q-90 7 -138 7h-25q-52 0 -61 -8t-11 -53q-3 -54 -3 -167q0 -50 18 -51h25h43h30 q60 0 80 4t36 15q11 7 16.5 17.5t6.5 18t4.5 13t10.5 5.5q9 0 11 -3t2 -13q0 -7 -4.5 -46t-4.5 -59q0 -19 2 -36t2 -25q0 -25 -7 -25q-14 0 -24 32.5t-23 40.5q-21 14 -97 14h-49q-18 0 -23 0.5t-9 0.5h-6q-41 0 -41 -19q0 -29 -1 -72.5t-1 -71.5q0 -7 -0.5 -20.5 t-0.5 -19.5q0 -72 24 -79q25 -8 43 -8q89 0 151 10t89 24t40.5 27.5t19 23.5t12.5 10q12 0 12 -17q0 -43 -43.5 -87t-75.5 -44q-72 0 -162 5t-112 5q-47 0 -107.5 -10.5t-105.5 -10.5q-119 0 -205.5 52t-127 131t-40.5 172zM132 390q0 -40 11 -86.5t36 -96t60.5 -89t90 -65 t119.5 -25.5q37 0 59 8t26 13.5t8 16.5q13 36 13 165v124q0 27 1.5 84t1.5 89v71q0 21 -6.5 35t-9.5 15.5t-21 8.5q-59 24 -124 24q-110 0 -187.5 -74t-77.5 -218z" />
<glyph unicode="&#x153;" horiz-adv-x="859" d="M39 203q0 92 62.5 160t173.5 68q114 0 181 -76q4 -5 7.5 -10.5t4.5 -8.5t2 -3l5 9q5 10 19.5 27t36.5 32q45 31 104 31q42 0 76.5 -15t53.5 -36.5t32 -45.5t17.5 -39.5t4.5 -22.5q0 -18 -41 -18h-227h-30q-8 0 -9.5 -1.5t-1.5 -9.5q0 -94 50.5 -148t118.5 -54 q42 0 86 22.5t46 22.5q9 0 9 -9q0 -4 -7 -14.5t-22 -24.5t-35 -27t-50 -22t-63 -9q-104 0 -164 70q-5 5 -8.5 11.5t-5 9.5t-2.5 3l-2 -3q-2 -4 -6.5 -10t-12 -13.5t-20.5 -17t-29 -18.5q-56 -31 -125 -31q-108 0 -168.5 65.5t-60.5 155.5zM118 237q0 -103 55 -164t125 -61 q57 0 96 43.5t39 123.5q0 91 -49 158t-133 67q-52 0 -92.5 -41t-40.5 -126zM516 293q0 -14 13 -14q27 0 99 3t77 3q14 0 17.5 2.5t3.5 9.5q0 30 -28 70t-80 40q-48 0 -75 -39.5t-27 -74.5z" />
<glyph unicode="&#x178;" horiz-adv-x="712" d="M258 855q0 14 15.5 32.5t31.5 18.5q17 0 32.5 -17.5t15.5 -33.5t-17.5 -34.5t-25.5 -18.5q-20 0 -36 19.5t-16 33.5zM418 855q0 14 15.5 32.5t31.5 18.5q17 0 32.5 -17.5t15.5 -33.5t-17.5 -34.5t-26.5 -18.5q-20 0 -35.5 19.5t-15.5 33.5zM20 688q0 11 11.5 14t50.5 3 q6 0 27.5 -1t30.5 -1q11 0 40.5 0.5t44.5 0.5q50 0 50 -12q0 -11 -21 -18.5t-21 -16.5q0 -10 6.5 -26t12.5 -26l20 -29q13 -19 15 -23q34 -54 70.5 -103t41.5 -49q6 0 15 11.5t25 38.5t27 43q3 5 14 22l16 24l14 22q9 14 13 22l9 18q6 10 8 17t2 13q0 32 -34 40 q-4 1 -11.5 2t-11 2t-8.5 3t-7 5.5t-2 8.5q0 12 28 12q5 0 18.5 -0.5t22.5 -0.5q23 0 55.5 -0.5t50.5 -0.5q49 0 49 -15q0 -4 -6 -7t-17 -8t-20 -12q-41 -32 -120.5 -152t-90.5 -134q-16 -20 -20 -44t-4 -82q0 -13 0.5 -55.5t0.5 -60.5v-24q0 -33 11.5 -52t21.5 -22.5 t20 -3.5q2 0 10 -0.5t10 -0.5q7 0 11 -4.5t4 -9.5q0 -10 -5 -13t-19 -3q-5 0 -43.5 0.5t-56.5 0.5q-35 0 -64 -2t-46 -2q-28 0 -28 11q0 9 5.5 12.5t18.5 4.5t19 3q42 13 42 61q0 6 0.5 19.5t1 57.5t0.5 126q0 16 -2.5 27.5t-6 22.5t-17.5 32l-26 40l-44 66l-61 90 q-31 47 -56 71.5t-38.5 29t-31.5 4.5q-25 0 -25 13z" />
<glyph unicode="&#x237;" horiz-adv-x="281" d="M23 -137q0 29 22 29q11 0 31 -21.5t27 -21.5q13 0 18 33.5t5 127.5v304q0 12 -1.5 19.5t-6 18t-18 16t-33.5 5.5q-16 0 -16 10q0 6 9 9l32 9q23 7 47 18q44 21 47 21q12 0 12 -23v-11q0 -8 -1 -25t-1 -22v-324q0 -55 -10 -104t-41.5 -90t-80.5 -41q-39 0 -39 27 q0 5 -1 18t-1 18z" />
<glyph unicode="&#x2c6;" horiz-adv-x="439" d="M107 499q0 1 4 9l32 48q14 22 22 36l14 24q7 12 9.5 17.5t5.5 9t5 4.5t6 1h25q11 0 17 -11q16 -28 38 -61l35 -53q13 -19 13 -23q0 -8 -11 -8q-7 0 -53.5 42.5t-49.5 42.5q-6 0 -50.5 -42t-51.5 -42q-10 0 -10 6z" />
<glyph unicode="&#x2dc;" horiz-adv-x="439" d="M72 530q0 17 33.5 61.5t63.5 44.5q24 0 62 -24t63 -24q19 0 39.5 28t22.5 28q10 0 10 -12q0 -18 -33 -60t-63 -42q-26 0 -65.5 24t-60.5 24q-15 0 -28.5 -14t-22 -28t-11.5 -14q-10 0 -10 8z" />
<glyph unicode="&#x300;" horiz-adv-x="0" d="M-330 636q0 13 21 19.5t32 6.5q12 0 20 -19q14 -34 27.5 -62t21.5 -42l15 -24l9 -15q3 -5 3 -9q0 -11 -12 -11q-10 0 -39 31q-98 103 -98 125z" />
<glyph unicode="&#x301;" horiz-adv-x="0" d="M-258 491q0 5 7 15.5t26.5 46.5t41.5 90q8 19 21 19q11 0 31.5 -6.5t20.5 -19.5q0 -23 -97 -125q-29 -31 -39 -31q-12 0 -12 11z" />
<glyph unicode="&#x302;" horiz-adv-x="0" d="M-332 499q0 1 4 9l32 48q14 22 22 36l14 24q7 12 9.5 17.5t5.5 9t5 4.5t6 1h25q11 0 17 -11q16 -28 38 -61l35 -53q13 -19 13 -23q0 -8 -11 -8q-7 0 -53.5 42.5t-49.5 42.5q-6 0 -50.5 -42t-51.5 -42q-10 0 -10 6z" />
<glyph unicode="&#x303;" horiz-adv-x="0" d="M-367 530q0 17 33.5 61.5t63.5 44.5q24 0 62 -24t63 -24q19 0 39.5 28t22.5 28q10 0 10 -12q0 -18 -33 -60t-63 -42q-26 0 -65.5 24t-60.5 24q-15 0 -28.5 -14t-22 -28t-11.5 -14q-10 0 -10 8z" />
<glyph unicode="&#x304;" horiz-adv-x="0" d="M-326 589q0 19 16 19q77 0 110.5 -1t70.5 -1q9 0 12 -5t3 -24q0 -8 -5 -11t-9 -3q-7 0 -87.5 0.5t-100.5 0.5q-10 0 -10 25z" />
<glyph unicode="&#x308;" horiz-adv-x="0" d="M-336 591q0 14 15.5 32.5t31.5 18.5q17 0 32.5 -17.5t15.5 -33.5t-17.5 -34.5t-25.5 -18.5q-20 0 -36 19.5t-16 33.5zM-176 591q0 14 15.5 32.5t31.5 18.5q17 0 32.5 -17.5t15.5 -33.5t-17.5 -34.5t-26.5 -18.5q-20 0 -35.5 19.5t-15.5 33.5z" />
<glyph unicode="&#x30a;" horiz-adv-x="0" d="M-296 591q0 26 23 51.5t55 25.5q37 0 55.5 -27t18.5 -54q0 -36 -28.5 -56.5t-46.5 -20.5q-31 0 -49.5 16.5t-23 32.5t-4.5 32zM-258 590q0 -18 11 -29.5t28 -11.5q5 0 12.5 2.5t16 12t8.5 24.5q0 41 -37 41q-14 0 -26.5 -11.5t-12.5 -27.5z" />
<glyph unicode="&#x315;" horiz-adv-x="0" d="M-269 708q0 3 20 18q2 1 8 6.5t11 8t11 2.5q5 0 16 -5.5t23.5 -20.5t12.5 -35q0 -43 -32 -69.5t-51 -26.5q-9 0 -9 7q0 3 10.5 8.5t21 17t10.5 29.5q0 19 -13 29.5t-26 16.5t-13 14z" />
<glyph unicode="&#x327;" horiz-adv-x="0" d="M-269 -79q0 3 20 18q2 1 8 6.5t11 8t11 2.5q5 0 16 -5.5t23.5 -20.5t12.5 -35q0 -43 -32 -69.5t-51 -26.5q-9 0 -9 7q0 3 10.5 8.5t21 17t10.5 29.5q0 19 -13 29.5t-26 16.5t-13 14z" />
<glyph unicode="&#x2000;" horiz-adv-x="466" />
<glyph unicode="&#x2001;" horiz-adv-x="932" />
<glyph unicode="&#x2002;" horiz-adv-x="466" />
<glyph unicode="&#x2003;" horiz-adv-x="932" />
<glyph unicode="&#x2004;" horiz-adv-x="310" />
<glyph unicode="&#x2005;" horiz-adv-x="233" />
<glyph unicode="&#x2006;" horiz-adv-x="155" />
<glyph unicode="&#x2007;" horiz-adv-x="155" />
<glyph unicode="&#x2008;" horiz-adv-x="116" />
<glyph unicode="&#x2009;" horiz-adv-x="186" />
<glyph unicode="&#x200a;" horiz-adv-x="51" />
<glyph unicode="&#x2010;" horiz-adv-x="340" d="M44 145v11q0 29 9.5 37t47.5 19q53 16 94 30.5t55.5 20t23.5 5.5q22 0 22 -34v-6q0 -9 -0.5 -14t-4 -10t-6 -7t-12 -6t-17.5 -6l-24 -7q-18 -5 -33 -10q-28 -9 -55 -19l-40 -15q-13 -4 -24 -7t-20 -3q-16 0 -16 21z" />
<glyph unicode="&#x2011;" horiz-adv-x="340" d="M44 145v11q0 29 9.5 37t47.5 19q53 16 94 30.5t55.5 20t23.5 5.5q22 0 22 -34v-6q0 -9 -0.5 -14t-4 -10t-6 -7t-12 -6t-17.5 -6l-24 -7q-18 -5 -33 -10q-28 -9 -55 -19l-40 -15q-13 -4 -24 -7t-20 -3q-16 0 -16 21z" />
<glyph unicode="&#x2013;" horiz-adv-x="500" d="M0 214q0 16 7 20t27 4h445q12 0 16.5 -5t4.5 -25q0 -23 -21 -23h-441q-28 0 -33 4t-5 25z" />
<glyph unicode="&#x2014;" horiz-adv-x="1000" d="M0 214q0 16 7 20t27 4h945q12 0 16.5 -5t4.5 -25q0 -23 -21 -23h-941q-28 0 -33 4t-5 25z" />
<glyph unicode="&#x2018;" horiz-adv-x="264" d="M73 539q0 42 14 78t33.5 55.5t36 30t25.5 10.5q5 0 9 -4.5t4 -7.5q0 -6 -8.5 -13.5t-19.5 -15.5t-19.5 -27t-8.5 -45q0 -27 11 -45.5t23.5 -25.5t23.5 -16.5t11 -21.5q0 -6 -27 -33q-2 -2 -10.5 -12.5t-15 -14.5t-14.5 -4q-7 0 -21.5 10t-30.5 37.5t-16 64.5z" />
<glyph unicode="&#x2019;" horiz-adv-x="264" d="M56 649q0 6 27 33q2 2 10.5 12.5t15 14.5t14.5 4q3 0 10 -3.5t17 -12.5t19 -21t15 -32t6 -43q0 -42 -14 -78t-33 -55.5t-35.5 -30t-25.5 -10.5q-5 0 -9 4.5t-4 7.5q0 6 8.5 13.5t19.5 16t19.5 27.5t8.5 45q0 27 -11 45.5t-23.5 25.5t-23.5 16t-11 21z" />
<glyph unicode="&#x201a;" horiz-adv-x="264" d="M56 161q0 6 27 33q2 2 10.5 12.5t15 14.5t14.5 4q3 0 10 -3.5t17 -12.5t19 -21t15 -32t6 -43q0 -42 -14 -78t-33 -56t-35.5 -30.5t-25.5 -10.5q-5 0 -9 5t-4 8q0 6 8.5 13.5t19.5 15.5t19.5 27t8.5 45q0 27 -11 45.5t-23.5 25.5t-23.5 16.5t-11 21.5z" />
<glyph unicode="&#x201c;" horiz-adv-x="459" d="M269 539q0 42 14 78t33 55.5t35.5 30t25.5 10.5q5 0 9 -4.5t4 -7.5q0 -6 -9 -13l-19 -16q-10 -8 -19 -27t-9 -45q0 -27 11 -45.5t23.5 -25.5t23.5 -16.5t11 -21.5q0 -6 -27 -33q-2 -2 -10.5 -12.5t-15 -14.5t-14.5 -4q-3 0 -10 3.5t-17 12.5t-19 21t-15 32t-6 43zM73 539 q0 42 14 78t33.5 55.5t36 30t25.5 10.5q5 0 9 -4.5t4 -7.5q0 -6 -8.5 -13.5t-19.5 -15.5t-19.5 -27t-8.5 -45q0 -27 11 -45.5t23.5 -25.5t23.5 -16.5t11 -21.5q0 -6 -27 -33q-2 -2 -10.5 -12.5t-15 -14.5t-14.5 -4q-7 0 -21.5 10t-30.5 37.5t-16 64.5z" />
<glyph unicode="&#x201d;" horiz-adv-x="459" d="M251 649q0 6 27 33q2 2 10.5 12.5t15 14.5t14.5 4q7 0 21.5 -10t30.5 -37.5t16 -64.5q0 -42 -14 -78t-33.5 -55.5t-36 -30t-25.5 -10.5q-5 0 -9 4.5t-4 7.5q0 6 9 13l19 16q10 9 19 28t9 45q0 27 -11 45.5t-23.5 25.5t-23.5 16t-11 21zM56 649q0 6 27 33q2 2 10.5 12.5 t15 14.5t14.5 4q3 0 10 -3.5t17 -12.5t19 -21t15 -32t6 -43q0 -42 -14 -78t-33 -55.5t-35.5 -30t-25.5 -10.5q-5 0 -9 4.5t-4 7.5q0 6 8.5 13.5t19.5 16t19.5 27.5t8.5 45q0 27 -11 45.5t-23.5 25.5t-23.5 16t-11 21z" />
<glyph unicode="&#x201e;" horiz-adv-x="459" d="M251 161q0 6 27 33q2 2 10.5 12.5t15 14.5t14.5 4q7 0 21.5 -10t30.5 -37.5t16 -64.5q0 -42 -14 -78t-33.5 -56t-36 -30.5t-25.5 -10.5q-5 0 -9 5t-4 8q0 6 9 13l19 16q10 8 19 27t9 45q0 27 -11 45.5t-23.5 25.5t-23.5 16.5t-11 21.5zM56 161q0 6 27 33q2 2 10.5 12.5 t15 14.5t14.5 4q3 0 10 -3.5t17 -12.5t19 -21t15 -32t6 -43q0 -42 -14 -78t-33 -56t-35.5 -30.5t-25.5 -10.5q-5 0 -9 5t-4 8q0 6 8.5 13.5t19.5 15.5t19.5 27t8.5 45q0 27 -11 45.5t-23.5 25.5t-23.5 16.5t-11 21.5z" />
<glyph unicode="&#x2022;" horiz-adv-x="419" d="M59 331q0 62 44 106t106 44t106.5 -44t44.5 -106t-44 -106.5t-106 -44.5t-106.5 44.5t-44.5 106.5z" />
<glyph unicode="&#x2026;" horiz-adv-x="756" d="M558 55q0 12 31 39q4 4 11.5 14t15 15.5t15.5 5.5t41 -39q3 -3 11.5 -10.5t13.5 -14t5 -10.5q0 -5 -5 -10.5t-15 -13.5l-15 -12q-4 -4 -11.5 -14t-14 -15.5t-12.5 -5.5q-9 0 -23 17.5t-17 19.5q-31 22 -31 34zM306 55q0 12 31 39q4 4 11.5 14t15 15.5t15.5 5.5t41 -39 q3 -3 11.5 -10.5t13.5 -14t5 -10.5q0 -5 -5 -10.5t-15 -13.5l-15 -12q-4 -4 -11.5 -14t-14 -15.5t-12.5 -5.5q-9 0 -23 17.5t-17 19.5q-31 22 -31 34zM54 55q0 12 31 39q4 4 11.5 14t15 15.5t15.5 5.5t41 -39q3 -3 11.5 -10.5t13.5 -14t5 -10.5q0 -5 -5 -10.5t-15 -13.5 l-15 -12q-4 -4 -11.5 -14t-14 -15.5t-12.5 -5.5q-9 0 -23 17.5t-17 19.5q-31 22 -31 34z" />
<glyph unicode="&#x202f;" horiz-adv-x="186" />
<glyph unicode="&#x2039;" horiz-adv-x="228" d="M20 216q0 5 6 11l91 78q51 44 55 44q5 0 10.5 -6.5t5.5 -11.5q0 -6 -46.5 -57.5t-46.5 -56.5q0 -6 46.5 -57.5t46.5 -57.5q0 -5 -6 -11.5t-11 -6.5q-4 0 -55 45l-91 79q-5 3 -5 8z" />
<glyph unicode="&#x203a;" horiz-adv-x="228" d="M39 102q0 6 47 57t47 56q0 6 -46.5 58t-46.5 58q0 5 5.5 11.5t10.5 6.5q4 0 55 -45l25 -22l28 -24l38 -33q6 -4 6 -9q0 -3 -7 -10l-91 -78q-51 -44 -55 -44q-5 0 -10.5 6.5t-5.5 11.5z" />
<glyph unicode="&#x2044;" horiz-adv-x="239" d="M-141 -72q0 5 39 67l104 158l123 184l119 179l72 106q0 1 4.5 7.5t11 13.5t10.5 7q5 0 11.5 -4.5t6.5 -8.5q0 -8 -8 -21l-435 -663q-26 -40 -31 -42q-6 -2 -10 -2q-17 0 -17 19z" />
<glyph unicode="&#x205f;" horiz-adv-x="233" />
<glyph unicode="&#x20ac;" horiz-adv-x="614" d="M20 291l19 47h66q20 70 67.5 116t92.5 62t87 16q58 0 103 -18t90 -60l-22 -50q-8 13 -25 29t-56.5 34t-85.5 18q-59 0 -116 -35t-85 -112h341l-19 -47h-332q0 -1 -0.5 -8t-0.5 -12t0.5 -11.5t0.5 -7.5h315l-20 -48h-285q24 -72 83 -109.5t117 -37.5q36 0 67.5 9.5 t53.5 25.5t30.5 23.5t15.5 15.5l1 1h3v-61q-75 -61 -168 -61q-35 0 -70 10t-71 31t-66 60.5t-46 92.5h-82l19 48h55v39h-77z" />
<glyph unicode="&#x2122;" horiz-adv-x="1622" d="M723 695q0 15 18 15q6 0 27.5 -2t25.5 -2q15 0 41 1t34 1q19 0 24 -14l43 -94l49 -107l48 -102l47 -101l37 -77q20 -39 30.5 -57.5t13.5 -18.5t6.5 3.5t7 9.5t6 12t7 15.5t6.5 14.5l129 266l39 81l27 58l17 38l11 24q3 8 4.5 12.5t2.5 7t2 4.5t3.5 9t5 9.5t10 5.5t19.5 3 q19 0 35.5 -1t50.5 -1q17 0 17 -13q0 -10 -6.5 -14.5t-26.5 -7.5q-25 -3 -35 -25t-10 -84q0 -135 6 -244.5t6 -137.5q0 -100 16 -127.5t67 -27.5q7 0 12.5 -5t5.5 -9q0 -6 -1 -9t-4 -5t-6 -2h-11q-30 0 -59 2t-43 2q-28 0 -58 -2.5t-46 -2.5q-18 0 -18 14q0 9 8 13t18.5 5 t22 12.5t16.5 34.5q4 20 4 64q0 32 -1.5 77t-3.5 87.5t-4 80t-3 61.5l-2 24q0 43 -9 43q-1 0 -3 -1t-3.5 -3t-3.5 -4t-4 -6.5t-4 -7.5t-5 -8.5t-5 -9.5l-5 -11q-4 -7 -6 -12l-139 -281l-51 -105q-18 -38 -22 -44.5t-10 -6.5q-9 0 -15 8.5t-18 37.5t-21 48q-183 372 -188 379 q-3 4 -6 4q-8 0 -8 -40q-1 -78 -5 -154t-4 -110v-45q0 -26 1.5 -40t8 -32.5t23.5 -28.5t44 -13q5 0 9.5 -3.5t4.5 -7.5q0 -11 -3 -14.5t-12 -3.5q-20 0 -60 2t-44 2q-2 0 -29 -1.5t-53 -1.5q-8 0 -11.5 1t-6.5 4.5t-3 10.5q0 8 9 11t20.5 3.5t25.5 16t21 45.5q5 22 12 174 t7 225q0 100 -19.5 138t-84.5 53q-13 3 -13 15zM20 580q0 40 10 103q0 2 0.5 7t1 6.5t1 5t1.5 5t2.5 4t3.5 3.5t5 2t7 1.5t9 0.5q16 0 84.5 -4t197.5 -4q220 0 308 5q1 0 3.5 0.5t3.5 0.5q11 0 15 -6t4 -11q0 -7 3 -42t3 -39q0 -25 -3 -31.5t-13 -6.5q-8 0 -11 12 q-8 29 -14 39.5t-26 18.5t-61 8h-130q-24 0 -29.5 -9.5t-5.5 -54.5v-49q0 -134 -1.5 -236t-1.5 -130q0 -14 -0.5 -35.5t-0.5 -29.5q0 -43 14 -57q13 -12 29 -18.5t27.5 -7.5t19.5 -5t8 -13q0 -11 -5 -14t-19 -3q-12 0 -53 4t-58 4q-12 0 -48.5 -3.5t-53.5 -3.5q-37 0 -37 16 q0 10 6 13.5t23.5 6t22.5 3.5q34 8 38 40q10 88 10 378l-1 179q0 19 -11 23.5t-65 4.5q-70 0 -105.5 -4t-41.5 -7.5t-14 -13.5q-9 -12 -14.5 -26.5t-7 -24t-6 -16t-13.5 -6.5q-11 0 -11 17z" />
<glyph unicode="&#x2212;" d="M31 212q0 8 0.5 11.5t4.5 6t13 2.5h431q8 0 11.5 -2.5t4 -6t0.5 -12.5q0 -14 -3 -18.5t-18 -4.5h-427q-9 0 -12.5 3t-4 6.5t-0.5 14.5z" />
<glyph horiz-adv-x="337" d="M82 762q0 10 7.5 14.5t30.5 12t41 16.5q9 4 18.5 11t15.5 11t10 4q10 0 10 -14q0 -2 -3 -14t-3 -16q-4 -100 -4 -200q0 -35 -1 -74t-1 -45q0 -12 2.5 -20t4.5 -12.5t9.5 -7t11 -3.5t15.5 -2t17 -1q12 -2 12 -13q0 -12 -35 -12q-9 0 -29 0.5t-33 0.5q-15 0 -40.5 -1 t-33.5 -1q-19 0 -19 12q0 14 22 14q18 0 25.5 4t9.5 20q6 44 6 160v67q0 26 0.5 33.5t0.5 11.5v8q0 36 -21 36q-8 0 -19 -6t-19 -6q-1 0 -2.5 1t-3.5 4t-2 7z" />
<glyph horiz-adv-x="337" d="M42 404v2q0 6 17.5 25.5t51 68t64.5 113.5q27 57 27 110q0 25 -16.5 40.5t-45.5 15.5q-26 0 -45 -9t-29 -18t-14 -9q-5 0 -5 9q0 3 4 11t14 19.5t23 22t34 18t44 7.5q39 0 69 -21.5t30 -60.5q0 -46 -38 -115t-76 -120t-38 -53q0 -5 26 -5h14h47q16 0 27.5 1t13 1t7 2.5 t6.5 3.5q10 4 24 17.5t18 13.5q7 0 7 -6l-43 -79q-9 -13 -21 -13q-43 0 -70 1t-37 1q-7 0 -34 -0.5t-36 -0.5q-20 0 -20 7z" />
<glyph horiz-adv-x="337" d="M40 429q0 10 13 10q3 0 10.5 -6.5t24 -13.5t39.5 -7q52 0 79.5 39t27.5 78q0 37 -20 61t-67 24q-5 0 -9.5 -0.5t-6.5 -1t-3 -0.5q-8 0 -8 9q0 2 1 3t4.5 3.5t8 5t13.5 9.5l20 14q37 29 37 68q0 23 -15 39t-38 16q-22 0 -48.5 -17t-28.5 -17q-5 0 -5 5q0 18 36.5 46 t66.5 28q37 0 63.5 -18t26.5 -53q0 -20 -9.5 -37.5t-18.5 -26t-30 -25.5q-11 -8 -11 -11q0 -1 7.5 -2.5t22 -6t27.5 -12.5q47 -30 47 -80q0 -72 -47.5 -120.5t-111.5 -48.5q-35 0 -66.5 15t-31.5 31z" />
<glyph horiz-adv-x="337" d="M19 530q0 11 24.5 43.5t154.5 194.5q6 7 15 19l15 19q5 7 11.5 12.5t11.5 5.5q11 0 11 -12q0 -1 -2 -51t-3.5 -105t-1.5 -67q0 -9 1 -11.5t7 -2.5q25 0 37 8.5t15 8.5q7 0 7 -9q0 -3 -7 -31q-5 -31 -15 -31q-5 0 -18 0.5t-17 0.5q-12 0 -12 -11q0 -8 1 -33.5t1 -46.5v-53 q0 -22 -3 -24.5t-24 -7.5q-17 -3 -25 -3t-12 5t-4 10q0 1 1.5 5.5t3.5 15t3.5 26.5t3 46t1.5 67q0 4 -8 4h-5q-3 0 -8 -0.5t-23 -0.5h-47q-14 0 -38.5 -0.5t-33.5 -0.5q-18 0 -18 10zM84 578q0 -6 18 -6h81q17 0 17 7v6l1 26q1 26 1.5 58.5t0.5 47.5q0 16 -3 16 q-4 0 -60 -73t-56 -82z" />
<glyph horiz-adv-x="337" d="M82 585q0 10 7.5 14.5t30.5 12t41 16.5q9 4 18.5 11t15.5 11t10 4q10 0 10 -14q0 -2 -3 -14t-3 -16q-4 -100 -4 -200q0 -35 -1 -74t-1 -45q0 -12 2.5 -20t4.5 -12.5t9.5 -7t11 -3.5t15.5 -2t17 -1q12 -2 12 -13q0 -12 -35 -12q-9 0 -29 0.5t-33 0.5q-15 0 -40.5 -1 t-33.5 -1q-19 0 -19 12q0 14 22 14q18 0 25.5 4t9.5 20q6 44 6 160v67q0 26 0.5 33.5t0.5 11.5v8q0 36 -21 36q-8 0 -19 -6t-19 -6q-1 0 -2.5 1t-3.5 4t-2 7z" />
<glyph horiz-adv-x="337" d="M40 252q0 10 13 10q3 0 10.5 -6.5t24 -13.5t39.5 -7q52 0 79.5 39t27.5 78q0 37 -20 61t-67 24q-5 0 -9.5 -0.5t-6.5 -1t-3 -0.5q-8 0 -8 9q0 2 1 3t4.5 3.5t8 5t13.5 9.5l20 14q37 29 37 68q0 23 -15 39t-38 16q-22 0 -48.5 -17t-28.5 -17q-5 0 -5 5q0 18 36.5 46 t66.5 28q37 0 63.5 -18t26.5 -53q0 -20 -9.5 -37.5t-18.5 -26t-30 -25.5q-11 -8 -11 -11q0 -1 7.5 -2.5t22 -6t27.5 -12.5q47 -30 47 -80q0 -72 -47.5 -120.5t-111.5 -48.5q-35 0 -66.5 15t-31.5 31z" />
<glyph horiz-adv-x="337" d="M42 18v2q0 6 17.5 25.5t51 68t64.5 113.5q27 57 27 110q0 25 -16.5 40.5t-45.5 15.5q-26 0 -45 -9t-29 -18t-14 -9q-5 0 -5 9q0 3 4 11t14 19.5t23 22t34 18t44 7.5q39 0 69 -21.5t30 -60.5q0 -46 -38 -115t-76 -120t-38 -53q0 -5 26 -5h14h47q16 0 27.5 1t13 1t7 2.5 t6.5 3.5q10 4 24 17.5t18 13.5q7 0 7 -6l-43 -79q-9 -13 -21 -13q-43 0 -70 1t-37 1q-7 0 -34 -0.5t-36 -0.5q-20 0 -20 7z" />
<glyph horiz-adv-x="337" d="M19 144q0 11 24.5 43.5t154.5 194.5q6 7 15 19l15 19q5 7 11.5 12.5t11.5 5.5q11 0 11 -12q0 -1 -2 -51t-3.5 -105t-1.5 -67q0 -9 1 -11.5t7 -2.5q25 0 37 8.5t15 8.5q7 0 7 -9q0 -3 -7 -31q-5 -31 -15 -31q-5 0 -18 0.5t-17 0.5q-12 0 -12 -11q0 -8 1 -33.5t1 -46.5v-53 q0 -22 -3 -24.5t-24 -7.5q-17 -3 -25 -3t-12 5t-4 10q0 1 1.5 5.5t3.5 15t3.5 26.5t3 46t1.5 67q0 4 -8 4h-5q-3 0 -8 -0.5t-23 -0.5h-47q-14 0 -38.5 -0.5t-33.5 -0.5q-18 0 -18 10zM84 192q0 -6 18 -6h81q17 0 17 7v6l1 26q1 26 1.5 58.5t0.5 47.5q0 16 -3 16 q-4 0 -60 -73t-56 -82z" />
<glyph horiz-adv-x="1000" d="M31 114q0 8 0.5 11.5t4.5 6.5t13 3h431q8 0 11.5 -2.5t4 -6t0.5 -12.5q0 -15 -3 -19.5t-18 -4.5h-427q-9 0 -12.5 3t-4 6.5t-0.5 14.5z" />
<glyph horiz-adv-x="1000" d="M116 591q0 14 15.5 32.5t31.5 18.5q17 0 32.5 -17.5t15.5 -33.5t-17.5 -34.5t-26.5 -18.5q-20 0 -35.5 19.5t-15.5 33.5z" />
<glyph horiz-adv-x="1000" d="M152 216q0 6 6 11q144 121 147 122q5 0 10.5 -6.5t5.5 -11.5t-47.5 -57t-47.5 -57q0 -6 46.5 -58.5t46.5 -56.5q0 -5 -5 -11.5t-10 -6.5q-4 0 -46 37l-100 87q-6 4 -6 8z" />
<glyph horiz-adv-x="1000" d="M212 320q0 16 12.5 28.5t29.5 12.5q16 0 28 -11.5t12 -28.5t-12 -29t-29 -12t-29 12t-12 28zM217 101q0 16 12 28t29 12q16 0 28.5 -12.5t12.5 -28.5t-11.5 -28t-28.5 -12t-29.5 12t-12.5 29z" />
<glyph horiz-adv-x="1000" d="M269 539q0 42 14 78t33 55.5t35.5 30t25.5 10.5q5 0 9 -4.5t4 -7.5q0 -6 -9 -13l-19 -16q-10 -8 -19 -27t-9 -45q0 -27 11 -45.5t23.5 -25.5t23.5 -16.5t11 -21.5q0 -6 -27 -33q-2 -2 -10.5 -12.5t-15 -14.5t-14.5 -4q-3 0 -10 3.5t-17 12.5t-19 21t-15 32t-6 43z" />
<glyph horiz-adv-x="1000" d="M251 649q0 6 27 33q2 2 10.5 12.5t15 14.5t14.5 4q7 0 21.5 -10t30.5 -37.5t16 -64.5q0 -42 -14 -78t-33.5 -55.5t-36 -30t-25.5 -10.5q-5 0 -9 4.5t-4 7.5q0 6 9 13l19 16q10 9 19 28t9 45q0 27 -11 45.5t-23.5 25.5t-23.5 16t-11 21z" />
<glyph horiz-adv-x="1000" d="M251 161q0 6 27 33q2 2 10.5 12.5t15 14.5t14.5 4q7 0 21.5 -10t30.5 -37.5t16 -64.5q0 -42 -14 -78t-33.5 -56t-36 -30.5t-25.5 -10.5q-5 0 -9 5t-4 8q0 6 9 13l19 16q10 8 19 27t9 45q0 27 -11 45.5t-23.5 25.5t-23.5 16.5t-11 21.5z" />
</font>
</defs>
</svg>
